<svg xmlns="http://www.w3.org/2000/svg" viewBox="0 0 16 16">
<path fill="currentColor" fill-rule="evenodd" d="M12.254 7.986a3.019 3.019 0 0 1-.871 2.148 2.96 2.96 0 0 1-2.134.913c-.765 0-1.544-.341-2.143-.936L5.742 8.742a.46.46 0 0 1-.129-.309c0-.244.203-.442.442-.442.12 0 .235.046.318.134l1.355 1.36c.429.433.982.678 1.516.678a2.05 2.05 0 0 0 1.498-.65c.401-.41.622-.963.622-1.535a2.142 2.142 0 0 0-2.129-2.129c-.447 0-.82.088-1.18.346a3.076 3.076 0 0 0-.212-.134c-.065-.041-.134-.078-.203-.115a4.912 4.912 0 0 0-.36-.171l-.078-.028h.005c.562-.525 1.258-.779 2.028-.779a3.035 3.035 0 0 1 3.019 3.019Zm-5.747 2.143v-.005h-.203c-.88 0-1.622-.737-1.622-1.609a1.599 1.599 0 0 1 1.59-1.586c.383 0 .747.134 1.037.383l1.028 1.051a.442.442 0 1 0 .636-.617l-1.032-1.06-.014-.009a2.472 2.472 0 0 0-1.655-.631 2.508 2.508 0 0 0-2.48 2.494 2.504 2.504 0 0 0 2.489 2.494v-.005h1.332s-.811-.493-1.106-.899Zm7.993-6.16v8.062a2.468 2.468 0 0 1-2.469 2.469H3.969A2.468 2.468 0 0 1 1.5 12.031V3.969A2.468 2.468 0 0 1 3.969 1.5h8.062A2.468 2.468 0 0 1 14.5 3.969Zm-1.776 4.017a3.582 3.582 0 0 0-.968-2.42A3.47 3.47 0 0 0 9.198 4.46c-.945 0-1.908.406-2.526 1.06a2.741 2.741 0 0 0-.341-.018c-1.858 0-3.005 1.563-3.005 3.005.005.779.309 1.53.843 2.097a2.95 2.95 0 0 0 2.162.936h2.867c1.945 0 3.526-1.595 3.526-3.554Z"/>
</svg>