<svg xmlns="http://www.w3.org/2000/svg" viewBox="0 0 16 16">
<path fill="currentColor" fill-rule="evenodd" d="M14.325 7.979a4.494 4.494 0 0 1-1.298 3.2 4.41 4.41 0 0 1-3.179 1.359c-1.14 0-2.3-.508-3.193-1.394L4.623 9.105a.679.679 0 0 1-.192-.46c0-.364.302-.659.659-.659a.65.65 0 0 1 .474.199l2.019 2.026c.639.645 1.462 1.009 2.259 1.009.845 0 1.655-.35 2.231-.968A3.273 3.273 0 0 0 13 7.966a3.191 3.191 0 0 0-3.172-3.172c-.666 0-1.222.13-1.758.515a4.542 4.542 0 0 0-.316-.199c-.096-.062-.199-.117-.302-.172a6.892 6.892 0 0 0-.536-.254l-.117-.041h.007c.838-.783 1.874-1.16 3.021-1.16 2.465 0 4.497 2.032 4.497 4.497Zm-8.562 3.193v-.007h-.302c-1.311 0-2.417-1.099-2.417-2.396a2.38 2.38 0 0 1 2.369-2.362c.57 0 1.112.199 1.545.57l1.531 1.565a.659.659 0 1 0 .948-.92L7.899 6.043l-.021-.014a3.684 3.684 0 0 0-2.465-.941c-2.032.014-3.694 1.689-3.694 3.715 0 2.039 1.675 3.715 3.708 3.715v-.007h1.984s-1.208-.735-1.648-1.339Zm9.262-3.193a5.343 5.343 0 0 0-1.442-3.605 5.175 5.175 0 0 0-3.811-1.648c-1.408 0-2.843.604-3.763 1.579a4.046 4.046 0 0 0-.508-.027c-2.767 0-4.477 2.328-4.477 4.477.007 1.16.46 2.28 1.256 3.124a4.393 4.393 0 0 0 3.22 1.394h4.271c2.898 0 5.253-2.376 5.253-5.294Z"/>
</svg>