<svg xmlns="http://www.w3.org/2000/svg" viewBox="0 0 16 16">
<path fill="currentColor" d="M11.5 7.67c.03.07.04.14.03.2v.05a.15.15 0 0 1-.12.04H9.95c0-.13.05-.26.12-.37a.9.9 0 0 1 .73-.4c.33-.04.63.17.7.48Zm-6.47.5h1.38l-.73-2.24-.65 2.24Zm9.47-4.4v8.45a2.28 2.28 0 0 1-2.28 2.28H3.78a2.28 2.28 0 0 1-2.28-2.28V3.78A2.28 2.28 0 0 1 3.78 1.5h8.44a2.28 2.28 0 0 1 2.28 2.28Zm-6.05 6.75-2-5.56c0-.04-.04-.04-.08-.04H5l-.04.04c.01.12 0 .2-.02.3l-.06.23-1.75 5.03c0 .05.04.08.09.08h.97c.08 0 .12-.04.12-.08l.4-1.26h2.04l.45 1.26c0 .05.03.08.08.08H8.4c.05 0 .05-.04.05-.08Zm4.22-2.4a2.23 2.23 0 0 0-.45-1.26c-.14-.2-.34-.35-.56-.44-.27-.12-.47-.17-.86-.17s-.6.04-.9.16c-.24.13-.46.31-.64.53-.18.22-.32.47-.4.73-.09.28-.13.57-.13.86a2.27 2.27 0 0 0 .49 1.46c.19.22.43.4.69.53.34.14.7.2 1.06.2a5 5 0 0 0 .77-.08c.18-.04.36-.09.53-.16l.04-.04v-.9c0-.04 0-.08-.04-.04l-.5.12c-.18.05-.37.08-.56.08a1.9 1.9 0 0 1-.7-.12.81.81 0 0 1-.4-.32 2.32 2.32 0 0 1-.16-.49h2.6c.04 0 .08-.04.08-.08.04-.08.04-.57.04-.57Z"/>
</svg>