<svg xmlns="http://www.w3.org/2000/svg" viewBox="0 0 16 16">
<path fill="currentColor" d="M11.93 8.08h-1.57q.16-.71.82-.71c.45 0 .71.3.75.71m-6.87.53h1.31L5.72 6.6zm9.44-4.78v8.34a2.33 2.33 0 0 1-2.33 2.33H3.83a2.33 2.33 0 0 1-2.33-2.33V3.83A2.33 2.33 0 0 1 3.83 1.5h8.34a2.33 2.33 0 0 1 2.33 2.33m-5.62 7.11L6.74 4.95H4.82l-2.2 6h1.67l.3-.92h2.24l.3.91zm4.5-2.47c0-1.4-.85-2.28-2.21-2.28-1.33 0-2.33.96-2.33 2.4 0 1.58 1.05 2.44 2.61 2.44a3.4 3.4 0 0 0 1.59-.31l-.02-1.24q-.62.29-1.32.28-1 0-1.28-.66h2.92q.05-.29.05-.63" />
</svg>