<svg
    xmlns="http://www.w3.org/2000/svg"
    width="137.59"
    height="24"
    viewBox="0 0 137.59 24"
    fill="currentColor"
>
    <title>Chronoise</title>
    <path d="M92.58 14.01 85.14 1.93h-5.21v17.38h3.83V6.94l7.64 12.37h5V1.93h-3.82v12.08zM111.65 6.79h3.68v12.52h-3.68zM50.29 9.12h-7.44V1.93h-3.83v12.64h3.83v-2.06h7.44v6.8h3.83V6.79h-3.83v2.33zM131.43 12.24h4.96V8.71h-4.96V6.79h-3.83v12.52h9.99v-3.53h-6.16v-3.54z" />
    <path d="M61.02 11.97c2.46-.44 3.76-2.33 3.76-4.76 0-4.05-3-5.28-6.56-5.28H50.3v3.54h7.54c1.4 0 3.14 0 3.14 1.82s-1.74 1.83-3.14 1.83h-2.5v3.24h1.89l2.98 5.7c.4.77 1.2 1.25 2.06 1.25h16.47v-3.54H63.31l-2.29-3.8ZM121.95 1.93c-.27 0-2.62.04-4.2 1.6-.85.86-1.31 2.01-1.31 3.32 0 4.94 6.4 4.93 6.4 7.26 0 1.56-1.8 1.67-2.18 1.68h-4.1v3.52h4.1c2.36 0 5.88-1.38 5.88-5.2 0-4.93-6.4-4.93-6.4-7.26 0-1.27 1.35-1.38 1.8-1.38h15.65V1.93h-15.64ZM30.1 10.62a5.16 5.16 0 0 1 5.17-5.16h2.55V1.93h-2.55a8.69 8.69 0 1 0 0 17.38h7.58v-3.52h-7.58a5.16 5.16 0 0 1-5.16-5.17ZM97.61 1.93h17.73v3.54H97.61z" />
    <path d="M72.37 1.59a6.51 6.51 0 1 0 0 13.02 6.51 6.51 0 0 0 0-13.02Zm0 9.63a3.12 3.12 0 1 1 0-6.24 3.12 3.12 0 0 1 0 6.24ZM104.03 6.63a6.51 6.51 0 1 0 0 13.02 6.51 6.51 0 0 0 0-13.02Zm0 9.63a3.12 3.12 0 1 1 0-6.24 3.12 3.12 0 0 1 0 6.24ZM14.77 12.46l-1.84 3.18H9.26v3.67h5.79l5.02-8.69-5.02-8.69H10.8l3.97 6.85H5.3L7.14 5.6h3.66V1.93H5.02L0 10.62l5.02 8.69h4.24L5.3 12.46h9.47z" />
</svg>