<svg
    xmlns="http://www.w3.org/2000/svg"
    width="24"
    height="24"
    viewBox="0 0 24 24"
    fill="none"
    stroke="currentColor"
    stroke-linecap="round"
    stroke-linejoin="round"
    stroke-width="2"
>
    <path d="M6 11h4M8 9v4m7-1h.01M18 10h.01m-.69-5H6.68A4 4 0 0 0 2.7 8.59c0 .05 0 .1-.02.15C2.6 9.42 2 14.46 2 16a3 3 0 0 0 3 3c1 0 1.5-.5 2-1l1.41-1.41A2 2 0 0 1 9.83 16h4.34a2 2 0 0 1 1.42.59L17 18c.5.5 1 1 2 1a3 3 0 0 0 3-3c0-1.54-.6-6.58-.69-7.26l-.01-.15A4 4 0 0 0 17.32 5z" />
</svg>