<svg
    xmlns="http://www.w3.org/2000/svg"
    width="24"
    height="24"
    viewBox="0 0 24 24"
>
    <g
        fill="none"
        stroke="currentColor"
    >
        <g stroke-width="2">
            <path d="m20.08 11.75-3.93-3.93-3.93-3.93c-2.43-2.43-6.41-2.67-8.9-.32a6.27 6.27 0 0 0 2.92 10.68 4.58 4.58 0 0 1 3.48 3.48 6.27 6.27 0 0 0 10.68 2.93c2.35-2.5 2.1-6.49-.32-8.91Z" />
            <path d="M9.02 6.72 6.19 9.55m2.83 0L6.19 6.72" />
        </g>
        <path d="m16.15 7.82 1.09-1.1c.61-.6 1.6-.6 2.21 0l.02.02c.6.62 1.6.62 2.2 0l.08-.07c.61-.6.61-1.6 0-2.2a1.56 1.56 0 0 1 0-2.22l1-1" />
    </g>
    <g fill="currentColor">
        <circle
            cx="14.12"
            cy="18.08"
            r="1.33"
        />
        <circle
            cx="14.12"
            cy="14.65"
            r="1.33"
        />
        <circle
            cx="17.55"
            cy="18.08"
            r="1.33"
        />
        <circle
            cx="17.55"
            cy="14.65"
            r="1.33"
        />
    </g>
</svg>