<svg xmlns="http://www.w3.org/2000/svg" viewBox="0 0 16 16">
<path fill="currentColor" d="M12.42 1.5H1.5v10.92c0 1.15.93 2.08 2.08 2.08h8.84c1.15 0 2.08-.93 2.08-2.08V3.58c0-1.15-.93-2.08-2.08-2.08ZM6.16 13.46c-.84 0-1.35-.47-1.34-1.34V9.94c0-.44.12-.78.38-1 .46-.45 1.53-.48 1.98 0 .28.25.39.75.36 1.22H6.6c0-.19 0-.47-.12-.57-.14-.19-.5-.17-.6.03a1 1 0 0 0-.1.48V12c0 .4.14.6.42.6.13 0 .23-.05.3-.14.09-.11.1-.36.1-.54h.95c.07.91-.47 1.55-1.39 1.54Zm3.04 0c-.93.01-1.34-.65-1.32-1.54h.9c-.02.4.12.75.44.72.14 0 .24-.04.3-.13.11-.17.13-.64-.03-.82-.1-.18-.5-.33-.71-.44-.3-.14-.52-.31-.65-.5-.3-.45-.27-1.4.15-1.8.4-.47 1.46-.5 1.87 0 .25.25.36.75.33 1.2h-.87c.01-.18 0-.49-.08-.6-.05-.09-.15-.14-.3-.14-.25 0-.37.16-.37.46 0 .32.13.46.42.6.38.14.86.4 1.04.7.52.93.16 2.35-1.12 2.3Zm2.92 0c-.93.01-1.34-.65-1.31-1.54h.9c-.02.4.11.75.43.72.14 0 .24-.04.3-.13.11-.17.13-.64-.03-.82-.1-.18-.5-.33-.71-.44-.3-.14-.52-.31-.65-.5-.3-.45-.27-1.4.15-1.8.4-.47 1.46-.5 1.87 0 .25.25.36.75.34 1.2h-.88c.01-.18 0-.49-.08-.6-.05-.09-.15-.14-.29-.14-.26 0-.38.16-.38.46 0 .32.13.46.42.6.38.14.86.4 1.04.7.52.93.16 2.35-1.12 2.3Z"/>
</svg>