<svg
    xmlns="http://www.w3.org/2000/svg"
    width="144.46"
    height="24"
    viewBox="0 0 144.46 24"
>
    <title>CSS-Tricks</title>
    <path
        fill="currentColor"
        d="m9.67 14.76-5.45 4c-.66.44-1.17.73-1.82.73-1.3 0-2.4-1.16-2.4-2.47 0-1.1.87-1.9 1.67-2.26L8.07 12l-6.4-2.84C.8 8.8 0 8 0 6.91 0 5.6 1.16 4.5 2.47 4.5c.66 0 1.1.22 1.75.73l5.45 4-.72-6.48C8.73 1.24 9.75 0 11.2 0s2.47 1.16 2.25 2.7l-.72 6.54 5.45-4c.66-.51 1.17-.73 1.82-.73a2.42 2.42 0 0 1 2.4 2.4c0 1.16-.8 1.89-1.67 2.25L14.33 12l6.4 2.76c.87.37 1.67 1.17 1.67 2.33 0 1.31-1.16 2.4-2.47 2.4-.58 0-1.1-.29-1.75-.73l-5.45-4 .72 6.48c.22 1.52-.8 2.76-2.25 2.76s-2.47-1.16-2.26-2.7l.73-6.54ZM39.2 15.36c-.28 0-.54.1-.74.28-1.01.86-2 1.35-3.46 1.35-2.65 0-4.57-2.23-4.57-5v-.04c0-2.75 1.94-4.96 4.57-4.96 1.21 0 2.39.45 3.3 1.26a1.22 1.22 0 0 0 1.74-.34c.12-.18.19-.4.2-.62a1.25 1.25 0 0 0-.48-.99 7.18 7.18 0 0 0-4.74-1.59c-4.18 0-7.13 3.28-7.13 7.28v.04c0 4.04 3 7.25 7.04 7.25a7 7 0 0 0 5.02-1.9 1.2 1.2 0 0 0 .4-.88c-.01-.3-.14-.6-.35-.8-.22-.22-.5-.34-.8-.34Zm9.05-4.48c-2.67-.65-3.3-1.13-3.3-2.22v-.04c0-.92.83-1.66 2.25-1.66 1.1 0 2.12.36 3.2 1.06a1.18 1.18 0 0 0 1.44-.15 1.15 1.15 0 0 0 .34-.81 1.13 1.13 0 0 0-.53-.99 7.53 7.53 0 0 0-4.4-1.3c-2.74 0-4.72 1.66-4.72 4.07v.04c0 2.6 1.66 3.48 4.6 4.2 2.58.6 3.13 1.15 3.13 2.16v.04c0 1.04-.95 1.77-2.46 1.77-1.42 0-2.79-.52-3.87-1.45a1.16 1.16 0 0 0-1.67.32 1.2 1.2 0 0 0-.2.6c0 .19.05.37.13.54s.2.3.35.4a8.52 8.52 0 0 0 5.2 1.78c2.91 0 4.95-1.57 4.95-4.2V15c0-2.34-1.51-3.4-4.44-4.12Zm12.27 0c-2.67-.65-3.3-1.13-3.3-2.22v-.04c0-.92.82-1.66 2.25-1.66 1.08 0 2.11.36 3.2 1.06a1.18 1.18 0 0 0 1.44-.15 1.15 1.15 0 0 0 .33-.81 1.13 1.13 0 0 0-.53-.99 7.53 7.53 0 0 0-4.4-1.3c-2.75 0-4.73 1.66-4.73 4.07v.04c0 2.6 1.66 3.48 4.6 4.2 2.58.6 3.13 1.15 3.13 2.16v.04c0 1.04-.95 1.77-2.45 1.77-1.42 0-2.8-.52-3.88-1.45a1.17 1.17 0 0 0-1.67.32c-.12.18-.18.39-.19.6a1.18 1.18 0 0 0 .47.95 8.53 8.53 0 0 0 5.2 1.77c2.91 0 4.95-1.57 4.95-4.2V15c0-2.34-1.5-3.4-4.43-4.12Zm11.21.8h-3.72c-.3.01-.59.15-.8.37a1.2 1.2 0 0 0 0 1.65c.21.23.5.36.8.37h3.72c.3-.01.59-.14.8-.37a1.2 1.2 0 0 0 0-1.65c-.21-.22-.5-.36-.8-.37Zm11.2-6.72h-9.18a1.11 1.11 0 0 0-1.1.7 1.16 1.16 0 0 0 .26 1.28 1.13 1.13 0 0 0 .84.32h3.36V17.9c0 .33.13.65.36.88a1.22 1.22 0 0 0 1.74 0c.23-.23.36-.55.36-.88V7.26h3.37a1.16 1.16 0 0 0 .76-1.94c-.2-.22-.47-.34-.76-.36Zm9.56 0h-4.94a1.2 1.2 0 0 0-.87.36 1.23 1.23 0 0 0-.36.9v11.7c.04.3.19.56.41.76.23.2.51.3.8.3a1.23 1.23 0 0 0 1.23-1.07v-3.78h3.06l3.36 4.36a1.4 1.4 0 0 0 1.19.65 1.13 1.13 0 0 0 1.07-.7c.06-.14.1-.3.1-.45a1.45 1.45 0 0 0-.4-.94l-2.65-3.4c1.86-.58 3.15-1.95 3.15-4.2V9.4a4.3 4.3 0 0 0-1.15-3.04c-.89-.88-2.24-1.4-4-1.4Zm2.68 4.63c0 1.42-1.11 2.35-2.85 2.35h-3.56V7.22h3.54c1.8 0 2.87.82 2.87 2.33v.04Zm6.62-4.73a1.18 1.18 0 0 0-.87.35 1.22 1.22 0 0 0-.36.88v11.82c.02.32.15.62.38.84a1.2 1.2 0 0 0 1.68 0c.22-.22.36-.52.37-.84V6.1a1.23 1.23 0 0 0-.74-1.13c-.14-.07-.3-.1-.46-.1Zm15.4 10.5c-.26 0-.53.1-.73.28-1.01.86-2 1.35-3.46 1.35-2.65 0-4.57-2.23-4.57-5v-.04c0-2.75 1.94-4.96 4.57-4.96 1.21 0 2.39.45 3.3 1.26.21.17.47.25.74.25a1.17 1.17 0 0 0 1.11-.74c.07-.15.1-.3.1-.46a1.27 1.27 0 0 0-.48-.99 7.2 7.2 0 0 0-4.75-1.59c-4.2 0-7.13 3.28-7.13 7.28v.04c0 4.04 3 7.25 7.04 7.25a7 7 0 0 0 5.03-1.9 1.2 1.2 0 0 0 .4-.88c-.01-.3-.14-.6-.35-.81-.22-.22-.5-.34-.81-.34Zm10.09-4.2 4.31-4.22a1.22 1.22 0 0 0 .35-1.37 1.13 1.13 0 0 0-1.04-.7 1.26 1.26 0 0 0-1 .47l-6.57 6.7V6.09a1.24 1.24 0 0 0-.37-.84 1.2 1.2 0 0 0-2.06.84V17.9c.01.32.15.62.37.84a1.2 1.2 0 0 0 1.69 0c.22-.22.36-.52.37-.84V15l2.25-2.22 4.45 5.78a1.23 1.23 0 0 0 1.9.24 1.21 1.21 0 0 0 .36-.87c0-.33-.12-.64-.33-.88l-4.68-5.9Zm12.73-.28c-2.67-.65-3.3-1.13-3.3-2.22v-.04c0-.92.83-1.66 2.25-1.66 1.1 0 2.12.36 3.2 1.06a1.18 1.18 0 0 0 1.44-.15 1.16 1.16 0 0 0 .34-.81 1.12 1.12 0 0 0-.52-.99 7.53 7.53 0 0 0-4.4-1.3c-2.74 0-4.72 1.66-4.72 4.07v.04c0 2.6 1.66 3.48 4.6 4.2 2.58.6 3.13 1.15 3.13 2.16v.04c0 1.04-.95 1.77-2.46 1.77-1.42 0-2.79-.52-3.87-1.45a1.17 1.17 0 0 0-1.67.32 1.2 1.2 0 0 0-.2.6 1.17 1.17 0 0 0 .48.95 8.52 8.52 0 0 0 5.2 1.77c2.91 0 4.95-1.57 4.95-4.2V15c-.01-2.34-1.51-3.4-4.44-4.12Z"
    />
</svg>