<svg xmlns="http://www.w3.org/2000/svg" viewBox="0 0 16 16">
<path fill="currentColor" d="m7.14 9.56-3.06 2.25c-.37.25-.66.4-1.02.4a1.4 1.4 0 0 1-1.35-1.38c0-.62.49-1.06.94-1.27l3.6-1.55-3.6-1.6c-.49-.2-.94-.64-.94-1.25 0-.74.65-1.36 1.39-1.36.37 0 .62.13.98.41l3.06 2.25-.4-3.64C6.6 1.97 7.19 1.28 8 1.28s1.39.65 1.26 1.51l-.4 3.67 3.06-2.24c.37-.29.66-.41 1.02-.41.74 0 1.34.6 1.35 1.35 0 .65-.45 1.06-.94 1.26l-3.6 1.6 3.6 1.54c.49.21.94.66.94 1.31a1.4 1.4 0 0 1-1.39 1.35c-.32 0-.62-.16-.98-.41L8.86 9.56l.4 3.64c.13.86-.45 1.55-1.26 1.55s-1.39-.65-1.27-1.51l.41-3.68Z" />
</svg>