<svg xmlns="http://www.w3.org/2000/svg" viewBox="0 0 16 16">
<path fill="currentColor"  d="M6.8 3.8v8.5l-.3.2h-1l-.2-.2v-7l-.4.1h-.2L4.6 5v-.6c0-.3.2-.4.3-.4l1.5-.4h.1c.1 0 .2 0 .3.2Zm7.6 2.5-.2-.1h-.8l-.1.4-.5 3.3-.6-3.3c0-.2-.1-.3-.2-.3l-.2-.1H11l-.2.1v.4l1.1 4.9.1.6v.6h-.6s-.2 0-.3.2v.7c.2.2.5.3.8.3l.7-.1.4-.6.2-1 1-5.6.1-.2v-.2Zm-4.1 5h-.7l-.1-.3V7.4h.6c.1 0 .3 0 .3-.5v-.6l-.3-.1h-.7V3.5l-.3-.1h-.6l-.2.1v.3L8 6.1c-.2 0-.2.1-.3.2V7c0 .4.2.5.3.5v3l.1.9.2.6.4.4.4.1h1.1s.3 0 .3-.3v-.4c0-.3-.2-.4-.3-.4ZM3.5 3.6 1.8 4c-.1 0-.3.1-.3.4V5l.1.4h.7v6.9c0 .2.2.2.3.2h.9s.2 0 .3-.2V3.8l-.3-.2Z"/>
</svg>