<svg xmlns="http://www.w3.org/2000/svg" viewBox="0 0 16 16">
<path fill="currentColor" fill-rule="evenodd" d="M4.45 6.17A2.54 2.54 0 0 1 5.83 1.5h4.35a2.54 2.54 0 0 1 1.38 4.67 2.54 2.54 0 0 1-1.38 4.66h-.05c-.66 0-1.26-.25-1.71-.67v2.37a2.57 2.57 0 0 1-2.58 2.56 2.53 2.53 0 0 1-1.4-4.67 2.54 2.54 0 0 1 0-4.25ZM8.4 8.3c0 .94.77 1.71 1.72 1.71h.05a1.72 1.72 0 1 0 0-3.43h-.05c-.95 0-1.72.77-1.72 1.72ZM7.6 6.58H5.83a1.72 1.72 0 0 0 0 3.43H7.6V6.58Zm-1.76 4.25a1.72 1.72 0 1 0 .01 3.44c.97 0 1.75-.78 1.75-1.74v-1.7H5.83Zm1.76-5.07H5.83a1.72 1.72 0 1 1 0-3.44h1.76v3.44Zm2.59 0H8.42V2.32h1.76a1.72 1.72 0 1 1 0 3.44Z"/>
</svg>