<svg xmlns="http://www.w3.org/2000/svg" xmlns:xlink="http://www.w3.org/1999/xlink" width="1200" height="285.9" viewBox="0 0 1200 285.9" preserveAspectRatio="xMidYMin meet">
    <defs>
        <pattern id="cyberpunk-dots" width="3" height="3" x="0" y="0" patternTransform="rotate(-45)" patternUnits="userSpaceOnUse" viewBox="0 0 3 3">
            <path fill="none" d="M0 0h3v3H0z"/>
            <circle cx="1.5" cy="1.5" r=".5" fill="#ff2457"/>
        </pattern>
    </defs>
    <g fill="none" stroke="#ff2457" stroke-linecap="square">
        <g stroke-width="2">
            <path d="M955.5 284.5 853.4 182.3h-73.1l-31.8 31.8h-42.3l-21.7-21.7"/>
            <path d="m946.4 284.5-95.9-95.9h-67.4l-31.7 31.8h-48.1L679.9 197"/>
            <path d="m937.2 284.4-89.5-89.5H786l-31.8 31.8h-53.7l-25.2-25.2"/>
            <path d="m928 284.4-83.1-83.1h-56.1L757 233.1h-59.3l-27-27"/>
            <path d="M918.8 284.3 842 207.6h-50.4l-31.8 31.8h-64.9l-28.7-28.7"/>
            <path d="m909.6 284.3-70.4-70.4h-44.7l-31.8 31.8H692l-30.4-30.4"/>

            <path d="m244.5 284.5 102.2-102.2h73l31.8 31.8h42.4l21.7-21.7"/>
            <path d="m253.7 284.5 95.8-95.9h67.4l31.8 31.8h48l23.4-23.4"/>
            <path d="m262.9 284.4 89.4-89.5h61.8l31.7 31.8h53.7l25.2-25.2"/>
            <path d="m272 284.4 83.1-83.1h56.1l31.8 31.8h59.3l27-27"/>
            <path d="m281.2 284.3 76.8-76.7h50.4l31.8 31.8h65l28.7-28.7"/>
            <path d="m290.4 284.3 70.4-70.4h44.8l31.8 31.8H508l30.4-30.4"/>
        </g>

        <g>
            <path d="m679.7 56.5 61 60.9v17.7l21.3 21.4h106.4l107.4 107.3H1180"/>
            <path d="m677.3 58.9 59.9 59.9v17.8l23.3 23.3H867l107.3 107.4H1185"/>
            <path d="m674.8 61.4 59 58.9V138l25.3 25.4h106.4l107.4 107.3H1190"/>
            <circle cx="1181.4" cy="263.8" r="1.4" />
            <circle cx="1186.4" cy="267.3" r="1.4" />
            <circle cx="1191.4" cy="270.7" r="1.4" />
        </g>
        <g>
            <path d="m520.3 56.5-61 60.9v17.7L438 156.5H331.6L224.2 263.8H20"/>
            <path d="m522.7 58.9-59.9 59.9v17.8l-23.3 23.3H333L225.7 267.3H15"/>
            <path d="m525.2 61.4-59 58.9V138l-25.3 25.4H334.5L227.1 270.7H10"/>
            <circle cx="18.6" cy="263.8" r="1.4" />
            <circle cx="13.6" cy="267.3" r="1.4" />
            <circle cx="8.6" cy="270.7" r="1.4" />
        </g>
    </g>
    <g fill="#801027">
        <path d="M727.3 130.6 605 8.3h-9.9L472.7 130.6v11l37 37.1v10.1l37.1 37.1h10.1l37.1 37h12.1l37-37h10.2l37-37.1v-10.1l37-37.1v-11z"/>
        <path d="m662.3 51.7 7.8-7.8L692.2 66l-7.8 7.8z"/>
        <path d="m515.5 74-7.8-7.9 22.2-22 7.7 7.7z"/>
    </g>
    <path fill="#4a0000" d="m720.7 131.6-27.1-27.1V91.4L644.2 42h-13.1L604 14.9h-7.9L568.9 42h-13l-49.4 49.4v13.1l-27.2 27.1v9.2l115.5 115.5h10.4l115.5-115.5v-9.2z"/>
    <path fill="none" stroke="#ff2457" d="m600 26.9 109.3 109.3L600 245.5 490.7 136.2z"/>
    <g stroke="#ff2457">
        <path fill="url(#cyberpunk-dots)" d="M623.4 112.8a33.1 33.1 0 0 0-55.4 14.9 33.1 33.1 0 0 0 40.6 40.6 33.1 33.1 0 0 0 14.9-55.4Z"/>
        <path fill="#4a0000" d="M611.7 124.5A16.6 16.6 0 0 0 584 132a16.6 16.6 0 0 0 20.3 20.3 16.6 16.6 0 0 0 7.4-27.7Z"/>
    </g>
    <path fill="#ff2457" d="m600 143 5.9-10.2h-11.8L600 143z"/>
</svg>
