<svg xmlns="http://www.w3.org/2000/svg" width="1200" height="266.2" viewBox="0 0 1200 266.2" preserveAspectRatio="xMidYMin slice">
    <path fill="#ffae00" d="M1200 88s-7-1-10 4c-2 5-5 11-20 11s-22-8-37 3-32 3-47 1-34-24-38-26-8 0-11 2-7 1-10 3-20 8-26 6-14 0-23 0-11 0-18 2-8 7-17 7c0 0-22 17-38 17-16-1-39-5-47-10-8-6-46-17-52-21-6-5-5-6-10-5s-11-8-17-12c-4-4-3-10-12-8s-43 10-46 12c0 0-6-6-10-7s-8 1-12-2l-31-20c-6-5-5 2-8 0-4-3-13-13-19-13s-17-2-19-7c-3-6-17-11-20-11s-7 3-16 7c-10 5-23 17-27 17s-17 2-22 1-9 9-9 9l-26 4c-6 0-1-5-15-4s-16-1-20-3-5-5-7-4-7 9-12 9h-12c-2-1-5-1-8 4-4 5-7 8-12 11-4 2-11 8-18 8s-11-2-14-4c-4-1-13-2-17-5s-11-7-14-7-8 2-12 6c-5 4-4 3-9 5-5 3-8-1-13 7l-17 16c-4 4-6 14-10 13s-11-2-12 1-5 1-8 2c-2 2-4 0-7-1l-12-2c-5 0-4 4-8 3-3-2-9-4-12-8s-1-5-11-5-11-9-15-8-3 2-6 6c-4 4-11 5-16 7-4 1-17 6-26 6s-8-2-13 0S0 116 0 116v150h1200V88Z"/>
    <path fill="#ef821b" d="M1200 129c-16 8-31-15-44-10s-40-4-52-7c-4-1-3 5-7 3-3-1-3-4-7-4-15 19-13-9-22 10-6 7-31-16-44-7-15-11-11-11-24-3-13-2-1-12-25-11-11-1-9 2-24 0-11-3-33-6-37 5s-18 9-24 15c-3 2-5-3-14 4-12-9-27 8-46 4-27-9-44-3-70-6-14-6-27-5-40-2-71 14-380 17-380 17s-57-20-93-19-37 5-53 0c-15-5-47-16-58-14-11 1-46 1-49-1-4-3-17-19-34-17S9 85 0 86v180h1200V129Z"/>
    <path fill="#9a3916" d="M0 264V151s131-10 182-21c36-7 146 18 176-2 15-11 29 6 63-4 27-9 119-6 145-3s62 34 85 32c22-2 89 9 123 0 33-9 53 8 136-12 35-8 70 26 104 27 101 2 186 32 186 32v64H0Z"/>
    <path fill="#500202" d="m1159 172-24-125-29 146c-28 8-61 13-98 11l-14-69-12 66-44-9c-94-27-265-14-338-13-166 3-291 29-389-10l-17-88-15 75c-26-10-51-18-74-24L81 7 58 122c-35-6-58-6-58-6v150h1200V146s-15 12-41 26Z"/>
</svg>