<svg xmlns="http://www.w3.org/2000/svg" width="1200" height="339.1" viewBox="0 0 1200 339.1" preserveAspectRatio="xMidYMin slice" style="
    background: radial-gradient(150% 150% at 50% 150%, #710A2F 0%, #2D0042 75%, transparent 100%) no-repeat 50% 100% / 100% 100%;
    vector-effect: non-scaling-stroke;
">
    <defs>
        <linearGradient id="footer-dusk-mask-grad" gradientUnits="userSpaceOnUse" x1="0" x2="0" y1="76" y2="100%">
            <stop offset="0" stop-color="white" stop-opacity="0" />
            <stop offset="1" stop-color="white" stop-opacity="1" />
        </linearGradient>

        <mask id="footer-dusk-mask">
            <rect x="0" y="0" width="100%" height="100%" fill="url(#footer-dusk-mask-grad)" />
        </mask>
    </defs>
    <path mask="url(#footer-dusk-mask)" stroke="cyan" stroke-width="2" d="M.62 76h1198.16m1.24 262.73H0M0 172.9h1198.15M0 125.65h1198.78M0 103.47h1198.78M0 90.46h1198.15M0 81.78h1198.78m-149.15-5.79 150.4 11.57M899.85 76l300.16 35.2M750.1 75.99l448.06 104.62M670.22 75.99l526.06 262.74M600.32 76v262.74M530.43 76 3.74 338.73M450.55 76 0 180.61M300.79 75.99 0 111.2M150.4 76 0 87.56"/>
</svg>