<svg
    xmlns="http://www.w3.org/2000/svg"
    width="1200"
    height="240"
    viewBox="0 0 1200 240"
>
    <path
        fill="#632120"
        d="M0 184.3h1200V240H0z"
    />
    <rect
        width="203.4"
        height="76.3"
        x="703.9"
        y="128.9"
        fill="#c6b78f"
        stroke="#632120"
        rx="15.4"
        ry="15.4"
    />
    <path
        fill="#221910"
        d="M880 197.4H731.3c-7.2 0-13.2-5.3-14.1-12.4l-4.3-32.3c-1-8.5 5.5-16 14.1-16h157a14 14 0 0 1 14.1 16L894 185c-1 7-7 12.4-14 12.4Z"
    />
    <g fill="#604c42">
        <circle
            cx="736.9"
            cy="156.9"
            r="3.1"
        />
        <circle
            cx="756.5"
            cy="156.9"
            r="3.1"
            fill="#604c42"
        />
        <circle
            cx="776.2"
            cy="156.9"
            r="3.1"
            fill="#604c42"
        />
        <circle
            cx="795.8"
            cy="156.9"
            r="3.1"
            fill="#604c42"
        />
        <circle
            cx="815.5"
            cy="156.9"
            r="3.1"
            fill="#604c42"
        />
        <circle
            cx="835.1"
            cy="156.9"
            r="3.1"
            fill="#604c42"
        />
        <circle
            cx="854.7"
            cy="156.9"
            r="3.1"
            fill="#604c42"
        />
        <circle
            cx="874.4"
            cy="156.9"
            r="3.1"
            fill="#604c42"
        />
        <circle
            cx="746.9"
            cy="177.1"
            r="3.1"
            fill="#604c42"
        />
        <circle
            cx="766.5"
            cy="177.1"
            r="3.1"
            fill="#604c42"
        />
        <circle
            cx="786.1"
            cy="177.1"
            r="3.1"
            fill="#604c42"
        />
        <circle
            cx="805.6"
            cy="177.1"
            r="3.1"
            fill="#604c42"
        />
        <circle
            cx="825.2"
            cy="177.1"
            r="3.1"
            fill="#604c42"
        />
        <circle
            cx="844.8"
            cy="177.1"
            r="3.1"
            fill="#604c42"
        />
        <circle
            cx="864.4"
            cy="177.1"
            r="3.1"
            fill="#604c42"
        />
    </g>
</svg>