<svg xmlns="http://www.w3.org/2000/svg" viewBox="0 0 1200 333.8" width="1200" height="333.8" preserveAspectRatio="xMidYMin slice">
    <path fill="#002e51" d="M0 73.6h1200v260.1H0z" />
    <path fill="#57caf0" d="M1136 72.6c-196.4 5-409-13.1-604.6-25C358 47 0 73.6 0 73.6V108c3.2 21.7 5 17.1 9.3 23.8 2.9 4.4 4.4 38.8 8.5 31.6 2.2-2.6 18-38.6 21.9-34 1.7 2.3 2.7 7.3 4.5 9.3 1.4 1.4 3-.1 4.6.2 3.9 1.1 5 9 7.1 13.4 1.6 4 5.3 16.9 8.6 11.5 3-5.5 5.2-28.6 6.4-28.6s2 11.3 3.1 14.8c1.9 5.2 5.4-3.6 6.5-5.5 3.4-7.2 6.9-14.5 10.3-22 2.6-4.8 4-9.7 6.9-12 7.1-4.4 6.2 22.2 16.7 19.9 6-1.2 11.8-4.3 15.3 2.7 2.8 5 4 15.8 9 18.6 5.7 3.3 16.4-29 22.8-29.7 4 .6 5 9.7 6.7 14.8 4 13.6 7.1 27.7 11.8 41 2.7 5.7 4.9-4.7 5.7-7 5.5-20 10.2-25.7 15.3-45.8 1.1-3.5 1.9-9.4 4.4-11.9 3.5-3 7.5 21 9.3 21.6 2.4 3.2 4-3.4 5-5 1.8-5 7-5.9 10.3-9.4 2.5-1.9 5.4-13.1 8.7-10.2a69 69 0 0 1 7.4 16.5c1.5 5.3 11.3 1 13.7 4 5 6.8 7 19 10.7 27.1 4 9.6 7-5 9-10.6 2.6-8.7 5.1-12.3 7.9-21.2 1.5-4.6 4.2-14 8.1-4.6 2.9 5.4 5.4 14 11.1 16.4 4 1.2 8.5-5.2 11-1.2 1.7 2.9 1.9 7.6 2.9 10.6 1.2 3.7 7.2-14.4 10.8-30.1 2.4-11.9 4.6-8.3 7 .8 5.3 17.8 10.8 18.6 16.2 36.3 7 21 7.9-7 13.2-4.4 1.7 1.1 3.5 6.9 5.8 8.1 1.9 1 4-.5 5.6-1.3 4.1-2 2.9 10 3.3 13.8.3 6.5.4 17.6 1.3 22 1 2.2 2.8-7.8 3-8.9 5.3-24 10.4-47.8 16.2-71.6.8-3.5 2.4-7.8 3.1-1 .9 8 1.3 18.4 2.3 26.7.3 1.4.6 6 1.9 5.4 2.3-1 4.8-13.2 6.6-18 1.6-4.8 4.3-13.5 5.7-16 .2-.4.5-.9.9-1 1.5 1.2 1.1 6.5 1.6 11.1.4 5.4.7 14 2 17.6 1.6 4.8 6.7-1.5 8 5.4 3 20.5 4.4 41.5 7 62 1.3 7 3.2-4.8 3.6-6.4 1.6-7.4 3.1-15 4.3-22.4.6-3.1 1-8.9 4.9-9 2.2 0 4.6 1.4 6.9.6 6-2.1 9.6-26.4 14.9-31.7 4.1-2.4 5.6 14 8.7 16 3.2 2 5-9.2 6.5-13.8 1.5-6 3.9-16.4 6.1-21 2.5-4 3 5.7 3.2 7.4 1.4 15.3 2.6 30.8 4.7 46 1.8 9.7 7-18.2 7.8-22.3 1.3-4.8 2.4-16 7.2-13.7 2.7 1.5 4.6 6.5 8 6.8 6-.6 12.3-23.4 17.3-27.3 1.8-.8 2 1.5 2.5 4 2.7 29.5 4 59.7 5.7 89.4.5 8.6 1.5 9.6 3.5.4 1.3-6 2.7-12.4 4.2-18.4 3.4-13.8 6-27.3 8.7-41 .6-2.7 1.4-7 2.7-9 3.1-3.2 4.2 13.4 5.3 15.1 1.5 3.6 2.9-9.3 3.5-12.4l2.3-15.8c1-6.2 1.9-21.8 6.4-10 4.8 13.2 7.7 27 10 40.8.5 1.6 1.6 13 3 6.4 1.4-5.3 2-13.5 7-17.1 7.2-3.1 8.6 13.5 16.7-.3 2-2.5 7.3-17.4 10.7-11 1.4 2.7 1.8 6.3 3.2 9 1.7 2.8 4-1 6.4 1.5 3.5 4.7 5.6 17.2 8 23 1.2 3 2.3 4.5 3.8 2.5 1.8-2.8 3.7-12.1 5-17.4 1.4-5.7 3.4-16.4 4.3-6 .6 8.1.3 19.3 7.3 5.5 3.7-7 7.1-14.3 10.7-21.4 2.4-4.7 5-10 7-11.4 3.9-2.5 5 5 5.9 7.5 1.5 5.5 3.1 13.4 9.8 13.3 3.3.1 7-1.4 10.3-.2 7 3.2 6.8 14.8 10 20.3 5.7 13.4 17.8-25.4 25.2-25 4.4 1.2 4.6 11.3 6.2 16.7 2.3 10.4 5.4 21 7.9 31.4.8 2.6 1.4 9 4 9.4 1.4-.6 2.7-4.3 3.4-6.4 7.3-23.6 12.4-47.7 19-71.3 5.4-13.5 7 20.2 12 19.6 2.4-1.8 3.4-6.2 5-9 1.4-2.5 6.5-2.5 9.4-7.1 1.6-2.3 2.7-5.4 4.3-7.5 3.7-4.7 4.9 4.5 5.7 7 2.4 9.1 3.7 19.3 7 28.3 2.7 5.8 6-3.4 9.5-1.1 2.8 2.5 3.5 8 5.6 13.6 2.6 6.6 6.6 27.8 12.2 11 3.3-9.7 6.3-19.5 9-29.5 3.7-14.6 6-16.1 11-2 2.2 5 3.3 13 8 15.4 3 1 7-4 9.5-3 3.7 1.5 3.2 10.5 3.7 12.3 1.3 4.6 2.4-2.5 2.8-4.1l7-40c1-4 1.6-10.7 4-10.2.5.3 1 1.3 1.6 2.9l1.2 3.5c5.3 18 10.8 36.6 16.2 54.3 5.5 17.4 6.6 5.4 10.8-3.5 2.8-4.2 4.9 3.3 6.4 5.1 1.3 2.1 2.7 3 4.8 1.8 1.2-.6 2.6-2.7 4-1.7s1.4 20.1 2 27.9c0 3.2 1 13 3 5 5.5-24 9.7-48.8 14.4-73.5 4.2-25.3 5.5 10.6 6.3 16.9 1.3 17.7 3.7 8.4 7-3.7 2.3-6.3 7.6-35.5 9.4-12.3.8 6.2.5 15.9 2.4 20.2 1.1 2 3.7-.3 5.3.3.8.2 2 2 2.7 6.5 2.6 19 3.3 25.8 5.7 45 .5 2.9 1.2 3.1 1.9.6 2-9.5 3.4-19.5 4.9-29 1-3.2.7-9.1 5-9.2 2 0 4.5 1.2 6.6.4 2.5-.5 4.2-5.8 5.3-9.6 2.4-6.3 11.8-10.9 13-8.3 1.4 2.5 2.8 7.3 3.9 10.2 2.7 7.7 4.6 2.6 5.6-1.4 1.5-6 2.8-12.2 4-18.2 1.3-4.4 2.6-14.3 4.7-14.4.4.2 1.4 4.3 1.5 5.6 1.6 14.3 3.3 28.7 5.5 43 2.4 16.6 3.7 7 5.7-4.4 1.8-7.5 3-19.6 5.5-25.6 2.7-4.4 5.7 2.3 8 4 5.4 5 7.7-4 9.8-9.2 2.2-5.3 5-13.9 7.7-17.5 3-4.2 4 1.7 4.6 4.4 2.9 16.3 7.8 56.2 9.5 58.3.6.6 1.3-.1 1.6-.7 2.8-5.8 6-19.3 8-26.9 1.6-4.7 3.7-18.2 6.6-11.8 3.7 11.8 4.4 23 6.4.6l1.9-15.8c.8-4.5.9-14.5 3.3-14.5.5.2 1 1 1.7 2.1 1.2 3 2.7 6.7 3.7 10 4.6 12.3 10.4 39.7 10.8 39.4.4-.4.7-1.7 1.1-3.8 2.2-17 6.2-24.4 10.3-41 2-8.9 5.5-12.5 7.3-21.3v-26l-64-1Z" />
    <path fill="#88e6ff" d="M1200 73.6 661.3 54.2 11.6 82.7 0 91.4s-.3 15.5 9.5 30.4c4 6 11.1-4.8 18.1-7.4 3.5-1.3 7.4-3.3 11.1-2.3 5.1 1.3 10 4 14.4 7.4 1.6 1.3 3.3 3 5 4 1 .5 1.9.9 2.8 1 2.1.2 3.8-1.4 5.2-2.8 1-1.1 2-2.6 3.3-3.3 1.5-.7 3.1 1 5.8 1.3 8 .1 13.1-10 20.7-11.3 5.8-.8 9.5 5.2 14.8 6.4 5.3 1.6 12 .1 17 3.5 5.3 3.4 10.2 8.4 17 4.8 4.3-2 8.5-6 13.3-6.6 7-.8 10.1 5.7 14.3 11.4 3.4 4.5 6.4 10.1 11.5 7.5 4.5-2.8 8.6-12.2 12.2-17.5 10.7-18 11.7-3.7 21.5-3.6 3.3 0 7.9-3 11.5-4.5 3.8-1.4 8-2 11.3.2 2 1.5 3.7 3.9 5.4 5.9 3.6 4.7 8.5 4.6 14 6.3 5.1 1.6 8.2 8.4 13.8 8.8 4 .2 7-4.4 9.3-7.5 9.1-12.6 11.1-6.8 21-1.3 4.1 1.7 8.7 1.3 12.9 2.5 6.3 1.8 7.2-.6 9.8-5.6 2-3.5 3.9-17 8.6-16.4 1.7.4 3.5 7.5 5.5 9.8 5.2 5.7 9.4 13 15.6 17.8 4.4 3 8.5-.2 13-.3 5.3-.5 12 1 14 6.6.9 1.3 1.4 5.2 3.2 5 1.2.2 4.2-4.8 5.6-7.9 3.2-5.6 7.1-23.8 10.4-28.2 5.2-5.5 4.9 20.4 11.1 15.3 2.8-1.7 6.3-18 9.7-16.8 1.9 1.2 2.6 12.6 4.2 14.3 3 3.7 7.2 3.8 9.9 9.4 2.2 4.7 3.4 11 6 15.4 3.9 6.4 6.6-5.5 9.2-7.6 3.4-3.8 8.5-3.6 13.3-6.4 2.7-1.6 4.9-4.3 7.2-6.4 5.7-5.7 10.4.4 15.8-1.7 2.3-1.2 3.8-3.5 5.3-5.5 1.1-1.6 2.8-3.8 4.6-3.8 6.7.8 6.3 26.9 15 11.3 6.2-11.2 11.7-4.6 21-9.3 3.8-2 7.3-7.3 11.9-6.6 5 1.2 6.7 16.8 8.3 22.4 3.3 15.8 5.7 13.1 11.1.6 2.3-4.4 3.9-9.5 7.1-13.3 3.6-3.7 7.2 1.3 9.6-3.2 2-3 2.5-11 7-10.7 3.8.8 7 6.2 9.3 9.3 1.7 2 3 5 5.8 5 2.2 0 4.9-3.7 8.7-4.6 3.6-1 8 .2 12-.8 2-.4 4-1.4 5.8-2.3 4-2 7.3-2.7 11.3-2 3.8 1 7.4 3 10.8 5.3 2.2 1.4 5 3.7 7.3 3 2.3-.5 4-2.8 5.6-4.5.7-.8 1.4-1.6 2.4-1.7 1.9-.3 4 2.3 7.7.4 6.8-3.2 13.5-15.6 21.7-12.7 2.8 1 5.4 3.2 8.2 4.4 5 2.5 11.7.2 16.9 2.4 5.5 2.3 10.2 7.9 16.5 4.1 5.4-2.6 10.8-9.4 17.4-7.2 6.4 2.5 9 11.5 13.7 15.5 6 5.5 10.7-1.8 13.8-7.7 3.4-5.6 7-15.2 11.9-18.2 2.2-1.4 4.4-.3 6.3 1 3 2.1 6.7 3.4 10.3 2 5.8-2.1 13.5-8.6 19.5-3.1 2.1 2 3.8 4.9 6 7 4.6 4.3 10.2 2.4 15.6 7 2.9 2.1 5.7 5.6 9.4 5.6 9-.2 11.9-19.1 21.4-14.3 2.7 1.3 5.1 3.7 8 4.9 2.6 1.2 5.5 1.3 8.3 1.8l4.3 1c2.8.5 4.5 1.1 6.3-1.2 2.7-3.5 3.8-8.9 6.2-12.4 5.5-8 11 4.6 14.6 8.6 4.2 5 8.6 12.9 14.9 12.4 5.5-1.1 11.5-2.2 17 .3 1.5.6 3 1.6 3.9 3.2 1 1.5 1.5 3.7 2.2 5.4.5 1.2 1 1.9 1.8 1.8.4-.1 1-.4 1.3-.8 1.8-1.8 3.9-6.7 6-11 2.2-3.8 7.3-20.1 11.1-14.7 1.7 2.1 2.3 6.3 4.9 7.6.7.2 1.6-.1 2.2-.5 2.1-1.4 4.8-5.7 7.1-7 3-1.9 4.8 2.3 6.3 4.3 3 4.7 7.1 5.6 10.3 11.8 2.3 4.5 3.3 10.2 5.5 14.5 3.2 6.1 5.4-3 7.6-5.2 4-5.8 10.7-3.5 16-8.2 1.8-1.4 3.3-3.3 5-4.7.9-.9 1.9-1.5 2.9-1.8 4.1-1.4 8.1 3.7 11.7 2.2 3.4-1.4 4.9-5.6 7.4-8 2.4-2.3 4.1-1 5.6 2 1.4 3.4 2.4 7.7 4 11 2.3 5.6 5.2 3.2 7.2-.4 1.6-2.4 3.3-5.3 6-6.2 3.7-1.4 8.7.4 13.3-1.9 4-1.6 7.1-6 11.6-5.6 8 1.8 7.5 20 14 22 2.5 0 4.3-2.3 6-4.2 2.6-3.5 5.8-8.3 10.5-6.1 1.4.4 2.8 1 3.9-.2l.5-.5c1.5-2 2.7-7.3 4.6-9.2.7-.7 1.5-1.1 2.5-1 1.5.3 2.8 1.5 3.8 2.6 2.7 2.9 5.4 8 7.5 11 4.2 6.7 6.9-.2 9.1-4.6 2.3-4.8 6-8.8 8-13.6 4-9.7 4-10.3 4-10.3V73.6Z" />
    <path fill="#d2eef8" d="M73.3 45.2c42.2-14.7 87.1-4.4 131.2 1C285 56 367 3.4 445.5 23.9c18.8 4.9 37.4 13.5 56.7 11.3 11.6-1.2 22.5-6.4 33.9-9 25-6 50.9 0 76.4 2.4 19.8 1.9 41.2 1.1 58.6-7.9a37.3 37.3 0 0 1 32.7-.5c30.6 14 49 21.8 82.5 21.8 44.3 0 40.3-24.5 92.9-19.3 25.5 2.5 50.7 7 76 10.3 36.3 4.8 64.1 21.1 100.4 16 15.7-2.2 31.6-5.3 47.4-3.6 33.6 3.5 63.3 27.8 97 28.2v9.2c-7 7.8-27.5 20-42 10.9-55-34.6-104.8-3.3-162.6-4-67.8-1-119.8-11.6-228-12.6-38.5-.3-101.8 16.4-141.7 16-59.5-.4-79.5-13.5-164-17-62.6-2.5-100.8 19.7-197.2 7.7-45.3-5.6-107.4-6.4-208.6 17.7-29.1 7-49.2-.9-55.9-10.1V73.6s35.1-15.1 73.3-28.4Z" />
</svg>