<svg
    xmlns="http://www.w3.org/2000/svg"
    width="1200"
    height="316.9"
    preserveAspectRatio="xMidYMin meet"
    viewBox="0 0 1200 316.9"
>
    <g fill="#3c3b52">
        <path d="M797.7 77.1s33.7 3 41.4 4.1c1.1.2 2.3.4 3.2 0 8.8-3.5 18-5 27.2-6.5 1-.2 1.9-.6 2.8-1l-2.8-.8-13.7-2.6c-.6 0-1.2-.5-1.8-.8.7 0 1.4-.3 2-.2 7 1.2 14.2 1.8 21 3.9 7.9 2.4 14.8.8 22-2.2 5.7-2.3 11.7-3.5 17.6-5.2.6-.2 1.3 0 2 .1l-1.7.7-20 6.1c-1.2.4-2.6 1-3 1.9-1 1.7-2.3 1.7-3.8 2a9 9 0 0 1-6.9-.6c-3.7-2-7.9-1.8-12-.7-5 1.3-10.2 2-15.3 3.1-3 .7-6 1.7-9 2.6-.6.2-1.4.4-1.6.8-1.2 3.2-4.3 1.2-6.2 2.4-.2.1-1-.1-1-.4-1.1-2.4-3.6-2.1-5.6-2.4-5.6-1-34.8-3.8-34.8-3.8l-.5-.2.5-.3ZM1040.2 47c8.7 1.6 17.3 3.3 26 5.1 5.4 1.1 10.8 2.8 16.4 3.4 3 .4 6.3-1 9.5-1.5l29.7-4.5a9 9 0 0 1 2.1 0c.5 0 1 .2 1.5.4l-1.4.4c-10 1.6-20 3.1-30 5-2.1.3-5.2-.3-5.7 3.2l-1.4.1c-1 0-2.2.2-3.3 0-1.2-.2-2.3-.6-3.5-1-1-.4-1.8-1-2.7-1.2-8.6-2.2-17.1-4.6-25.7-6.5-3.9-1-7.9-1-11.8-1.6-.4 0-.9-.4-1.3-.5l1.5-.5.1-.4ZM1026.9 23.5c8.5.8 17 1.2 25.4 2.3 7.3 1 14.4 2.8 21.5 4 1.8.4 3.7.4 5.4 0 5.6-1.2 11.2-2.9 16.9-4 8.7-1.5 17.6-2.7 26.4-4l1.8-.1 1.5.2-1.4.4c-10 1.6-20.2 3.1-30.3 4.9-3.8.6-7.5 1.7-11.2 2.8-1.3.4-2.3 1.8-3.6 2.3-1.5.5-3.1.4-4.7.5-1.4.1-3 1-3.6-1.4-.1-.6-1.5-1.2-2.5-1.4-7.8-1.5-15.7-3.3-23.6-4-10.4-1-20.9-1.2-31.3-1.7-.4 0-.8-.2-1.1-.3.4-.2.8-.5 1.2-.5h13.2ZM983.1 65.7c10.1-.2 20 1.1 29.9 3.3 2 .5 4.3-.3 6.5-.6 10.3-1.4 20.6-2.9 31-4.1 4.9-.7 9.9-.9 14.8-1.2.7 0 1.5.3 2.2.5l-2 .6c-13.8 1.4-27.5 2.7-41.2 4.3-2 .2-4 1.8-6 2.5a9 9 0 0 1-4.4.4c-3.7-.8-7.3-2-11-2.8-10.1-1.9-20.4-2.2-30.6-2h-1l-1.3-.4c.4-.2.8-.5 1.2-.5h12ZM944 69.1c-1.1 0-2 .2-2.3-.1-3.3-3.2-7.6-3-11.7-3.6l-1.9-.8c.7 0 1.3-.3 2-.2 3.2.4 6.4.7 9.6 1.5 3.2.7 6.1.2 9.2-.6 10.5-2.7 21-5.4 31.9-6.4l1.1-.3c-.4-.2-.7-.5-1.1-.6l-11.4-2-1.9-.6c.7 0 1.4-.3 2.1-.2l9.6 1.5c5.3.7 10.5 1.7 15.7 1.8 4.3.1 8.6-.9 13-1.3h1.5l-1.4.8c-2.5 1-5 2.5-7.6 2.6-3.7.1-7.5-1-11.3-1.1-4-.1-8.3 0-12.3.7-8.8 1.6-17.4 3.7-26.1 5.7-1.5.4-2.7 1.7-4 2.4-1 .5-2.1.6-2.7.8ZM1157.3 63c-2 0-3.6-.1-5.4-1.8-1.7-1.6-4.7-2-7.3-2.5-7.9-1.3-15.8-2.4-23.8-3.6l-1.3-.3 1.4-.2c10.8.4 21.5 1.2 31.8 4.7 1.4.5 3.2.6 4.6 0 13-4.7 26.7-5.7 40.4-5.5l1.5.3c-.5.2-1 .5-1.6.5-9.2.6-18.5.4-27.5 2.8l-5.6 1.6c-.8.2-2.2.8-2.2 1.3-.4 3.5-3 2.5-5 2.6ZM1093.6 79.4c-1.8.3-3.4 1.3-5 2-2.3.6-4 .8-6.5-.5-4-2-8.5-3.2-13-4-6.7-1-13.5-1.2-20.2-1.9-.6 0-1.2-.5-1.8-.8.7 0 1.4-.2 2-.1 6.2.6 12.4 1 18.5 2 5.8.9 11.5 2.2 17.3 3.3.8.2 1.8.1 2.7 0 4.5-.9 8.9-2 13.4-2.6 6.2-.7 12.5-.8 18.7-1.2l1.2.3c-.4.1-.7.3-1.1.3l-4 .2c-.4 0-14.8 1.7-22.2 3ZM796.5 48.9l54 4.4c1 0 2.2-.2 3.2-.6 10.2-4.3 21-6.6 31.8-9 1.1-.2 2.3 0 3.5 0-1.1.3-2.2.8-3.3 1L857.4 53c-1.3.4-2.2 1.8-3.5 2.2-2.3.6-4.4 1.5-7.2.4-4.3-1.7-9-2-13.7-2.8-.3-.1-40-3-40.3-3.3l3.8-.5ZM915.4 39.5c3.2.5 6.3.7 9.4 1.4 2.8.7 5.3-.1 8-.7l26.3-6 8.7-1.5 1.4.2c-.4.2-.8.5-1.3.6l-28.3 5.8c-2.7.6-5.3 1.3-7.5 3.5-1.3 1.3-3.5 1.8-5.8.2-1.9-1.3-4.5-1.4-6.9-2l-6.9-1c-.3 0-.5-.2-.8-.4l1-.1h2.7ZM912.4 44.7c13.6 1.9 27.3 3.8 41 5.4 2.7.3 5.7-.7 8.5-1 1-.2 2.1-.2 3.2-.3l-2.8 1.1-7.5 2.7c-.6.2-1.3.2-1.8 0-9-4.8-19.1-3.8-28.8-5.1-4.9-.7-9.9-1-14.8-1.4-.3 0-.7-.3-1-.4.4-.1.7-.3 1.1-.3h2.8v-.7ZM1013.2 81.6l10.8 1.5c1 0 2 0 3-.2l25.4-2.7h1.2l-1 .2-20.5 2.9c-.8 0-1.7.2-2.4.6-3.1 2.2-6.3 1.4-9.5.2l-7-2.5ZM911.3 81.6c-3 1.7-21.5 7-24.6 8.6-.5.2-1.4-.1-2-.3-3.7-1-7.3-2.4-11-3.1-5-1-10-1.3-15-2-.4 0-.8-.3-1.1-.5l1.1-.2c8.5 1.1 17 2.2 25.3 3.5 2.4.4 4.4.4 6.5-.5 1.7-.8 18.8-5 20.6-5.7l.2.2ZM926.3 88c5.1 2 10.1-1.4 15.5-2.3l5-.5-4.3 1.1c-3 .7-6 1-8.2 3.6-.5.6-2 .7-3 .6-2.4-.3-4.6-.9-6.8-1.4-.6 0-1-.4-1.6-.6l1.5-.5h1.9ZM1013.5 56.7l-.7-.3 1.3-.5c8.2-1 16.3-2.2 24.4-3.3l1.5.2c-.4.2-.8.5-1.3.6-6.7 1-13.4 1.8-20.2 2.7l-5 .6ZM970.6 80.7c-3.2 1.6-6.4.8-9.5.4l-10.5-1c-7.6-.8-29.5-1.7-32.8-1.7l-1 .1 1.1.2 13.4.7 14 .8c.5.1 10.7 1 11.2 1.2 2 .4 4 .4 5.7 1.1 3.2 1.4 6 1.7 8.8-.8.4-.4.8-.6 1.2-.8-.5 0-1.2-.4-1.6-.2ZM995.5 76.7l-1 .3-18.9 3.4-1-.2c.2-.3.3-.7.6-.8l2-.6 16.6-2.5h1.7v.4ZM1058.6 35.1a104 104 0 0 0-30.1 6.8c-4.6 1.8-9 2.7-13.9 1.5-.3-.2-8-1-8.4-1l-20.2-3-1.7.1 1.3.5 1.7.4 18.9 2.6c.4.2 8.2 1 8.6 1.2 1.4.4 3.2.4 4 1.3 1 1.3 2 1.2 3.3.8 1.4-.4 3.7-.2 4-.9 1-3 3.8-2.6 6-3.5 8.5-3.5 17.7-4.6 26.8-6.2.6 0 1.1-.3 1.7-.4l-2-.2Z" />
        <path d="m1013.2 81.6-16 .3-3.3-.3c1-.2 2.1-.6 3.2-.6l16.1.6ZM895.2 37.7c.3 0 .6.3 1 .5l-.9.3-16.6-.3c-.4 0-.7-.2-1-.4l1.1-.2 16.4.1ZM966.7 48.3c2.6-.8 8-2 10.5-2.8.3-.1.6.1.8.2l-1 .5c-2.5.7-7.6 1.6-10.1 2.3l-.2-.2ZM920.4 63l2.4.4 2.2.8h-2.3l-3.6-.6c-.5 0-1-.2-1.4-.3l1.5-.3h1.2ZM904.7 59.6c-4.4 1.3-8.6 2-13 .3-1.5-.6-3.2-.9-4.8-1l-15.6-2.1-1 .2c.3.2.6.4 1 .4l7.5 1.2c5.8 1.2 12.2.6 17.3 4.8a21.1 21.1 0 0 0 8.8-2c4.2-1.9 9-2.8 13.5-4.2 2-.6 9.7-2 11.6-2.8l2.9-1.1c-6.5 1.6-21.8 4.4-28.2 6.3ZM841.7 68.6l-1.6-.3c.3-.1.7-.4 1-.3l2.2.3-1.6.3ZM904.8 38.3l1.5.8-.8.2-1.5-.6.8-.4ZM849.3 69.3l-1.3-.5c.5 0 1-.3 1.4-.2.5 0 1 .2 1.4.3l-1.5.4ZM899.5 42.4l-1.3-.3.8-.2 1.5.1-1 .4ZM1013.3 85l-12.5 1c-2.7.4-5.4 0-8.1-1-1.5-.5-3.1-.8-4.7-1-.5-.1-1 .2-1.6.3l1.3.6c2.2.7 4.6 1 6.6 2 3.3 1.7 4.2 1.9 6.8-.2l13.1-1.5-1-.3ZM982.6 45l-1 .3c-.3 0-.5-.2-.7-.3l.7-.3 1 .3ZM1010.1 43.1l.2.2h-.3l.1-.2zM975.4 32.3h.2l-.2.1v-.1zM149.8 160.2c7.1 1.2 13.3.5 19.5-.9 6-1.4 12.4.7 19.5-2.3l-16.5-2.5c10.3-2.2 19.8.7 28.8 4h18.7C162.3 138.2 104 132 44.2 147c22.5 4.3 43.8 13.6 66.7 15.3-1-.7-2-.8-3-1.3-1-.6-2.7-.6-2.7-2.2 8-1.3 13.7 5 21.4 6.3 1.9-1 4.7-.7 6.7-3-3-1.1-6-1-8.2-3.8 6.8-2 10.8 3.9 16 4.1 2.3-.2 4-.6 5.8-1.7-3.1-3-8-1.2-10.7-6 5.3 1.8 10.7.5 13.6 5.4ZM8.1 178.5l-7.3-2.2c9.7-.7 18.8-3.7 28.4-3.2-8.7-4.4-19.1-3.2-28.3-8.9 6.1-.4 25.6 4.2 33 7.6 24-.9 48-1.6 71.8-5.4a226 226 0 0 1-43-10.8 148.2 148.2 0 0 0-47.2-6.1c-3.2 0-6.4 2.3-10.5-.1 4.3-2.4 7.8-4.8 12.3-3.8 2.1.5 4 .3 6-.2 8-1.9 16.1-1.7 24.2-2.8 4.7-.7 9.3-1.5 14-2.4 7.5-1.6 15-2.8 22.6-4 6.7-1 13.6-.6 20.4-.6 12.2 0 24.5-.2 36.7.4 8.5.4 17 1.3 25.4 3.8 12.6 3.7 25.1 7.4 38 10.2 5.5 1.2 10.8 3.3 16 5.3a15 15 0 0 0 8.8.5c15.6-3.5 31.5-5.5 47.6-6a365 365 0 0 1 64 3c22.1 3.2 44.2 6.4 66.5 9.3-4.3-2-9.3-2.6-13.2-5.4 9.6-.6 13.2.5 21.7 7.2 8.6 0 17.7-1.6 28-1.1-5.7-3.4-11.4-3-16.9-5.5 5-3 9.2 1 13.4.3l-.2-.2a53.2 53.2 0 0 0 24.5 6.7c-.3-1.8-2.3-.7-2.7-2.2 4.7-1 9.1 4.9 14.2.1-17.4-5.9-35.1-10.1-53.7-15.5 5.4-1 12.8.8 23.6 4.3 7.2 2.4 14.7 4.4 22 6.4 7.6 2 15.3 3.4 22.8 6.6l-6.1 1.5c32.5 8.4 64 15.7 96 22.7-5.6 3.2-10.7 1-15.6 0-10.3-2.3-20.6-5.1-31-7.6-14-3.3-27.9-7.4-42-10-10.5-2-21-4-31.6-4.2-17.6-.3-35.2-.3-52.6 3a31 31 0 0 1-4.8.6c-4.7.2-9.3 1.2-13.8 3.7-10-3.7-21-3-32.2-6.7 3.2-1.7 5.4-1.2 7.5-1l14.7 2.3a59 59 0 0 0 29-3.2c-14.3-1.7-27.5-3.2-40.8-4.9-10-1.3-20-3-30.1-4.3-8.3-1-16.6-2.2-25-2.3-7 0-14-1.1-21-1.2-11.4-.2-22.6 1.1-33.9 1.7-8.1.4-16.4 1.7-24.4 4.6 20 5.5 40.5 7 60.3 12 1-1.3-.2-2-.2-3.2 5.2-.3 9.6 3.9 14.8 2.4 4 3.5 8.7 3.5 13.4 4 10.9 1 21.7 1.3 32.4 1.5 2.4 3.8 6.3 3.7 9.6 3.7 7.7 0 14.8 2 22 3.9 9 2.4 18 4 27.1 5.9 2 .4 4 .7 5.8 2.8a79 79 0 0 1-25.6-3.9c-16.2-4.8-32.7-8-49.5-6.8-11.5.8-23 1-34.5 2-14 1.4-27.7 4-41.7 5-.9 0-1.8.4-3-1 10.4-4 21.3-3 31.6-5 10.5-2 21.2-1.2 31.9-3.2-.5-2.1-2.3-1.8-3.7-2-14.6-1-29-4.2-43.5-6.2-11-1.5-21.5-5-32.8-4.8-5.5.2-10.8-2.8-16.6-3-13.2-.3-26.5-1.3-40.2-1 2 2 4.5 2.1 5.8 4.1l.2-.1a9 9 0 0 1-6-1.4c-5.8-3.5-12.1-2.6-18.4-2.2-10.8.7-21.6 1.7-32.4 2.5-3.4.2-6.8.2-10.2 1.7 7.4 2.3 15.1 2.3 22.2 5.8-6.4 1.3-12.3-1-18.4-1.5-10-.9-19.7-1.1-29.7.3-10.7 1.5-21.6 2.1-32.4 3a520.8 520.8 0 0 1-52.2 1.6l-3.2.5c14 1.2 25.9 5.7 38 9.4a511 511 0 0 0 42.7 10.4c.7.2 1.3 0 2.7 0-4.2-3.6-9.6-2.7-13.6-5.3 4.8-1.7 17.3 1.5 24.8 6l78-4 .3-1.3-25.9-7c8.4-.3 27.3 3.8 33.4 6.7 30.6-2.7 60.2-.5 89.7 4.8.1-2-1.4-1.3-2-1.8-1-.6-2-1-3.2-1.5.7-1.5 2-1 2.8-.8 10 2.7 20.4 3.6 30.2 7.3 2.1.8 4.4.7 6.7.9l-.2-.2 10.4 6.7c-4.4.9-8.2-.7-12-1.2-15-2.3-30-5-44.7-8.2-14.5-3-29.1-4-43.8-4-10.4-.1-20.9-.4-31.3.1-12.8.6-25.6 2-38.4 3.2-5.8.6-11.7.8-17.5 1.3-7.9.5-15.8.7-23.8 1 2.5 3.4 6.1 2.7 9.3 3.5 8 2 16 3 24 4.6 12.2 2.4 24 5.9 36 9.7 7.8 2.5 16.5 4.9 25.1 1.5 1.2-.5 2.7-.5 4-.4 7.7.9 15.2 1.1 23 .7 6.7-.4 13.7.3 22.2.3-7.6 4.6-14.6 2.1-21.5 3.5 6.5 3.8 13.6 3.7 20.2 4.8 15.9 2.5 31.7 5.2 47.3 9 11.6 2.9 23.4 5 35.3 6.2 5.6.6 10.9 3.6 17.9 1.9L323 227.9c3.8-1.6 5.9.2 7.9 1 12 4.4 24.3 8.6 36 14 7.5 3.6 15.3 5.4 23.1 7.7 6.7 2.1 13.5.3 20.2 0 4.4-.1 8.6.3 12.7 1.6 9.4 3 18.8 6.2 28.3 9 7.7 2.4 15.3 5.6 23 8.3-6 .8-11.4-1.8-17-3-9.8-2-19.1-5.5-28.4-9a80.5 80.5 0 0 0-31.5-3.4c-6.5.3-13 1.2-19.5 1-6.3 0-12.5 2.4-20.4 1l24.2-3.7c-.3-1.7-1.6-1.6-2.4-1.8-8.2-1.6-16.4-3.4-24.6-4.6a617.8 617.8 0 0 1-49.5-8.3c-13.9-3-27.8-6.3-41.8-8.8-9.3-1.7-18.8-2.2-28.2-3.4a184 184 0 0 0-23.7-1.6c-11 0-21.5 2.4-32.3 3.4-9.4.9-18.4 4-28 4-.7-3 1.3-2.8 3-3 12.3-1.8 24.7-3.2 36.9-5.7 1.3-.3 2.7-.2 3.5-1.8-.4-.4-.9-1-1.4-1.2-21.8-5.1-43.5-10.5-65.3-15.2-11-2.3-22.3-3.4-33.5-4.7-10.8-1.3-21.5-2.8-32.3-3.3-9-.3-18 .4-27 1.3-8.3.7-16.5 2-24.8 3.4-2.2.3-4.3 1.3-6.4 2-1.3.5-2.5 1-3.9-.9 3-3.2 7.4-2.9 11-3.8 4-1 8-1.4 13-2.3-4.5-4-10.7-3.3-15.2-7.9a29 29 0 0 1 14.7 3.6c4.3 2.2 8.4 2.9 14.7 1.2L1.8 180.6c1.9-2.3 5.7-1 5.7-1s25.8 6.2 33.5 14.1c7.2-.2 14.2-2.3 21.3-1.4-15.9-6.3-32.1-11-49.2-12.6l-5-1.2Z" />
        <path d="M615.8 175.2c8.7-.2 17.1 1.4 25.5 3.3a47.3 47.3 0 0 0 19.3.4l8-1.6c-2-1.7-4.4-1.7-6.8-1.8-12.2-.8-24.1-3.6-36.2-5l-4.7-.6a89 89 0 0 1-18.8-2.4c-7.9-2-16-3-24-4.1-13.3-1.7-26.5-4.3-40-3.2-7.3.7-14.8 1-22.2 2-5.4.7-10.8.6-16.4.7-1-6.2-7.3-3-10.9-6.6 6.6 0 12.3 1.3 18 3.3l26-2.3c.4-1.1-1.1-1.7-.1-3 1.8 0 4-.2 6.1.4 8 2.1 16.2 1.5 24.2 2.8l28.8 4.4 43.6 6.5c8.5 1.2 16.8 3.4 25.4 4.3 10.8 1.2 35.8 6.2 36.2 6.3 9.1 1.6 18.4 2.1 27.5 3.5 7.7 1.2 15.7 2.6 23.6 2 7.8-.5 15.4 1.3 23 2 5.9.4 11.7 1 17.6.9 10.2-.2 20.2 2 30.4 3 12.1 1.3 24.3 2.4 36.5 2.2 2 0 4 .3 6.5.5-3.6 1.9-7 2.7-10.7 2.2-10.8-1.5-21.7-.5-32.5-1.2-25.3-1.7-50.6-2.8-75.5-7.4-5.8-1-11.7-.9-17.6-1.5-16-1.7-31.9-3.5-48-3.5-12.8 0-25.2 1.5-37.7 3.8-8.2 1.6-16.5 3.2-24.9 3.5a8 8 0 0 0-5 1.7l14 3.9-1.3 1.7c9 2.1 18.1 3.1 28 6.2-2.5-3.6-6.7-3.3-7.8-6.8 7 2.7 14.3 4.5 21.1 8.9 5.4 0 11 2.5 17.8 1.3-8-3.4-16-5.3-23-9 .7-2 2-1.6 2.8-1.2 11 4.7 23.1 6.3 34 11.3 4.3 1.9 9.3.8 15 .4-9.3-4.7-19.1-5.5-28.2-11.8 7.2 1 12.7 3.6 18.4 5.1 7.2 2 14.2 4.3 21.4 6.6 1.8.6 3.6 0 5.3.2 16.7 1.4 33.5 2.1 50.2 1.7 1.1 0 2.3-.2 3.4 1.2-2 2-4.5 1.3-6.8 1.4-11.2.3-22.4.6-33.7.5-18.1-.3-36.2-1.5-54.3-2.2a169 169 0 0 1-29.5-4.1c-13.7-3-27.7-4.6-41.3-7.8-12.6-2.9-25.4-3.8-38.3-4.3a35 35 0 0 1-4-.4c-.4 0-.7-.5-1.7-1.4 7.8-1.7 15-.5 22 .5.7-1.5-1-3 .7-4.4-12.3-5.7-26.4-5.6-38.9-12.6 4.7-1 8.5.8 12.3 1.5a133 133 0 0 1 19.8 4.7 57 57 0 0 0 31.7 3.7c-6.6-2.2-12.4-2.8-18.2-4-6-1.1-12-2.3-17.7-4.2-5.7-2-11.4-3.6-17.8-5.6 1.4-.8 2-1.2 2.2-1.1 13.1 4.2 26.7 6.5 40.3 9 3 .7 6.2 1.4 9.1 2.6a24.8 24.8 0 0 0 19.8.1c-.2-2-1.9-1.5-3-1.8-6-1.6-12.5-1.9-17.9-5.5v.2ZM496 203.7c-23-3-46-3.2-69-2.7-8.6.2-17 2-25.6 2.2-12.3.4-24.3 3-36.5 3.4l-27 1.5c-1.6 0-3 .4-4-1.3 1.2-2.6 4-1.2 6-2.3-1.3-1.4-3.8-.8-4.4-3.2 3.8-.8 6.4 1.4 9 3.2 3.4.8 6.4.2 9.4-.4.6-2-1.5-1.4-2-2.7 4.2-1.2 7.8 0 10.9 1.8l73.5-5.5c-4.6-3.2-10.3-2.7-15-5.6 13.8-1.3 26.4 5.7 41.3 5.8-5-4.6-10.4-4.6-15-5.9-5-1.4-9.9-2.5-14.4-5 4.4-.2 8.5.7 12.5 2l24 7.3c2.7.8 5.3.6 7.9-.5.5-1.3-.5-1.4-1.4-1.6-.8-.2-1.8.1-2.6-1.4a32 32 0 0 1 13.7 1.9c4.5 1.4 9 .7 13.1.9 1.9-.4 1-1.4 1-2.5 5-1.2 10.5 3.3 15.6-1-19.8-6.5-40.4-8.8-59.7-16.4 21.7 4.9 43.1 10.4 65.3 13.2l4.2 3.5 8-1.4a12 12 0 0 0-9.2-3.5c-3.2 0-6.2-1.1-9.5-2.2 6.6-.8 21.1 2 26 4.8 8 .5 16.4-1 24.5 2.7h-8.4c-13-.1-26 1.2-39 2.7-5.4.7-10.9.7-16.3 1.1-6.4.6-13 .5-20.4 1.3 4.6 3 9.2 4 13.4 6l.1-.2ZM599.5 217.2c2 .2 4.3 0 6 .7 6.4 2.6 13 2.1 19.5 2 9.5 0 19-.3 28.5 0 8.8.2 17.6 1 25.9 4.6 1.7.8 3.5.8 5.3.7 6.4-.4 12.5 1.4 18.9 1.8.6 0 1.3.3 1.4 1.7-.1 1.6-1.7 2-3.3 1.8-11.2-1.8-34-6.1-34-6.1s-9.6-.7-14.5-.7c-11.5 0-23 .9-34.5.4-16-.6-32.1-.2-48.2 0-7.3.1-14.3-1-21.3-3.3-8.1-2.7-16.6-4.4-24.5-7.7-1.6-.7-3.5-.9-5.2-2.6 1.8-1.6 3.5-.4 4.9 0 12.9 4.4 26.2 6.8 39.2 10.7 6.5 2 13 .6 20 1.2-1.4-3-4-3.3-6-4l-22.5-7.7c-2.1-.7-4.4-1-5.3-4.7 16.8 6.6 33 14.3 51.7 14.1l-1.8-3-.2.1ZM301.6 258c4.4-.5 8.7.3 12.7 1.6a25.4 25.4 0 0 0 17-1 84.8 84.8 0 0 1-21.2-4.2c10.2 1 20.5 1.6 31 3.7 3.8-1.1 8-2 12.2-.7-13.4 1.9-26.3 8.3-40.2 4.8-1.8.2-2 2.2-4.3 2.7-25.7.3-52.4-1-79.4-3.4-1.6-2.3-3.2-5-6.9-5.6a41 41 0 0 1 18 3c5.2 2.1 10 2.5 14.5-.5 3.6.2 6.4 3.7 10.6 1.3-5.2-3-11.3-2-16.4-5.6 8.2-1 14.8 4.5 22.5 3.5-.6-1.4-2.4-.3-2.9-2.3 13-.3 25 6.8 39.1 5.3-2.6-1.7-5-.5-6.2-2.8v.2Z" />
        <path d="M529.4 154.2c-5.3 2.1-9.9-.2-14.2-1-17.5-3.7-34.9-8-52.3-12-9-2-18-4-27-6.2-8.7-2.1-17.5-1.9-26 .5-13.8 3.8-27.9 5.6-41.8 8.4-8.2 1.7-16.7.8-24.9 2.7-3.5.8-7.1 1-10.6 2-2 .7-3.9 1.2-6.4-.6 3.6-2 7-2.5 10.4-2.7 12.4-.8 24.7-2 36.9-4.3 10-1.8 19.8-4.4 29.6-7a70.2 70.2 0 0 1 32.8-1.1c12.5 2.7 25.2 5 37.7 7.8 18.5 4.2 37 8 55.8 13.5ZM527.5 226.2c-14.1-4.5-28.5-6.5-42.3-11.2 6.7 1.2 13.4.9 20 2.7 6.7 1.8 13.7 2.5 20.6 3.8 1.3.2 2.7.3 4 .8 6.4 2.5 12.8 4 19.7 1.2 1.1-.5 2.6-.1 4.4 1.3-4.8 2.1-9.6 3-14.2 3.3-15.8 1.2-31.6 2-47.4 2.7-2.8.1-5.9.7-9-1.4 1.2-1.8 3.5-.8 4.7-2-1-1.3-2.7-.3-3.8-1.2-.2-.3 0-.5.6-.6 2.3-.1 4.6-.2 6.7 1 3.6 2 7.6 2 11.2 1.3 7.5-1.4 15-1 22.3-1.3.9 0 1.7-.2 2.5-.4ZM234 265.4c-2.3 1.4-4.3.8-6.2.4a345.3 345.3 0 0 0-43.1-8c-3.2-.4-6.3-.2-9.4.2-10 1.2-20.2 1.4-30.2 3.4-6.5 1.4-13.3 3-20.5 1.6 3.8-3.1 8.3-2.4 12.3-3.1 9-1.7 18.3-2.4 27.5-3.5 5.4-.6 10.8-.9 16.2-1.3 10.8-.8 21 1.2 31.3 4 7.3 2 14.7 3.8 22.2 6.3ZM285.7 210.6c-1.6-3.2-5.2-1.5-7.2-3.3q5.5-1 11.2 1c1.3.9-.4 2.8 1.3 3.5 22.4.7 45-3.5 67.4 2.2-10.4 1.3-20.6-1.6-31-1.1-10.3.4-20.7.4-31 1.8-10.5 1.4-21 2.8-31.5 3.7 3.4-2 7.2-2.3 10.7-3.2 3.6-1 7.7-.5 10-4.6ZM216 185.5c-10.6 1.1-20.5-1.9-30.5-4.2-9.9-2.3-19.5-5.4-29-8 4.6-1.3 18.7-.5 22.8 1.3l-1.6 1.2c.3.3.6.6.9.7 3.5.8 7 3.5 10.8.8 2.9 1.8 6.3.4 9.4 1.5 3 1 6 2.2 9 2.7 3.3.5 5 3.4 8.2 4ZM360.1 287.3c-7.5 3.1-53.7-2.8-61.8-7.5 2.6-1 8.4-.6 15.1.8 5.1 1 10.2 2.1 15.3 2.9 5.4.8 10.9.9 16.1 2 5.1 1.1 10.3.4 15.3 1.8ZM405 216.4c8.5.2 14.7 5.5 23 7.6-5.2 2.1-22.2-.4-33.8-4.9 3.8-.4 6.2-.3 8.7.4 2.6.6 5.2.8 8.1 1.3-1.4-3-4.3-2.8-6-4.4ZM1.5 155.2c7 .6 36.9 11.3 40 13.9-4.1.3-7.4-.8-10.6-2.2-9.6-4.4-21-4.4-29.4-11.7ZM93.6 267.4c-13.8 3.5-27.6 1.7-41.4.2 2.6-2.4 5.8-1.7 8.6-1 4.5 1 8.8.6 13.4 0 5.7-.6 11.6-.5 17.5-.6.7 0 1.8 0 1.9 1.4ZM453.6 229c1.3-1.3 2.8-.5 3.4-2.4l-9.8-3.1c7.4-.8 14.2 1.5 20.8 4.4 2.7.7 5.7-.4 8.2 1.8a56.6 56.6 0 0 1-22.6-.6ZM200.6 176.3c.3-1 1-1.3 1.6-1.1 12.1 3.7 24.5 6.5 36.2 12-4.3-.5-8.6-.6-12.9-.6l3.7-1.2-28.6-9ZM116.2 234.2c4.8-1.3 9.4-3.8 13.6-3.3 6.3.8 12.3-2.7 18.8-.9-4 3.4-24 6-32.4 4.2ZM599.7 217c-7 .1-13.3-2.6-19.6-4.8-3.8-1.2-8-1.8-11.4-4.7 4-.7 20.2 4.5 30.8 9.7l.2-.1Z" />
        <path d="M409.4 154c-11.3-1-22.5-2.4-34-2.5 1.6-1.2 3.4-2.1 5.5-2l28.6 3v1.4ZM470.5 186.5c9.2 1.1 18.3 1.9 26.8 5.6-9.4.3-18-3.5-26.8-5.6ZM415.9 247.9c-9.8 1.5-19-1.7-28.2-4.3 9.6 0 18.9 2.3 28.2 4.3ZM44.5 165.6c-7-1-13.7-3.5-21-8.1.5-2 2.2-1.8 3.2-1.3 6 3.2 12.4 5.3 17.7 9.6v-.2ZM45.7 157.1c8.2-.7 14.5 4.8 21.9 6.7-8-.2-15-3-22-6.7ZM430.8 153.4c-5 0-17.4-2.8-21.8-5.1a33 33 0 0 1 21.7 5.2v-.1ZM247.2 184.6c-6.8.7-12.6-2.2-18.3-5.3 6.2 1.4 13 .3 18.2 5.4ZM271.6 274.3c-6.8.6-13-1.6-20.6-4 7.2-1 15.4 1 20.5 4.1l.1-.1ZM197.9 248.1a55 55 0 0 1 16.6 5.3A22 22 0 0 1 198 248Z" />
        <path d="M271.5 274.4c6.8-1 13.1 1 19.3 3.4-6.8 1.5-13-1.1-19.2-3.5v.1ZM440.5 157.6c-2.6-3-7-1.5-9.7-4.2l-.1.1c1.7-.4 3.5-.5 5.3 0 4.7 1.3 9.4 2.6 14 4.5-3.3.3-6.4-1.2-9.7-.6l.2.2ZM86.7 183.3c-4.1.3-7.8-1.2-11.6-2.8 3.5-2.8 7-1.7 11.5 2.9v-.1ZM533.1 278.7h13.7q-3.6 2.5-13.7 0ZM267.7 177.2c4.8-1 8.6 1.4 12.4 3.4-4.5.1-8.7-.8-12.4-3.4ZM384.3 155.6c-6.4.6-12.6-1.5-19-1.3a29.3 29.3 0 0 1 19 1.3ZM285 159.1l15.3 4.2c-4.3 1.1-8.7.3-15.2-4.2ZM496 203.8a28 28 0 0 1 15.8 2.6c-4 1.1-6.9.6-15.8-2.7v.1ZM123 222.7l-12-4c5.8-1.3 6.9-1 12 4ZM247 184.7c4.6-.7 8.5 1.6 13.3 2.4-4.5 2.1-5.8 1.8-13.1-2.5l-.1.1ZM478.1 174.4c3.8.4 7.1 1.2 11.3 3.5-5.4 1-8.4-1.4-11.3-3.5ZM210.3 216.7c-4.8.3-9.2-1-13.4-3 4.6.3 9.2 1 13.4 3ZM196.7 165.7c4.1 1.1 8 3 11.3 5.6-4.5-.4-8.4-1.9-11.1-5.7l-.2.1ZM490.4 221.5c3.8-.4 7.2-.9 10.9 1.6q-5.6 1.1-10.9-1.6ZM292.5 226c4.9-1.4 7.7.4 11.6 3-4.8.7-7.6-1.6-11.6-3ZM309.2 194.1c-2.9-1.1-6.3-1-7.8-5l8.6 4-.8 1ZM546.8 212c4 2.9 8.4 4.4 13.3 4.5a32.1 32.1 0 0 0-13.3-4.6ZM539.2 209c2.1 2 4.4 2.8 7 2.7-3-3.6-3.2-3.6-7-2.7ZM63.5 183.3c-2.8.2-5.5 0-8.3-3.3 3.8.4 6.6.2 8.2 3.4l.1-.1ZM301.7 257.8c-4.3.7-8.3-.5-12.2-2 4.2-.4 8.2.5 12.1 2.2l.1-.2ZM616 175c-4 .7-7.5-.6-12.1-2 5-1.2 8.5.4 12 2.2v-.2ZM430.3 181.2c-3.3 1-5.1 0-6.6-2q3 0 6.6 2ZM474.6 152.4c-4.7 1.8-7.1 0-10.8-.9 4-1.7 6.5.4 10.8 1ZM342.6 199c-2.6-.2-5-1-8-3.5 3.6 1 6 1.5 8.5 2.1l-.5 1.4ZM438 242.3c-2.3.8-4.2 1.1-6.2-.7q3-1 6.2.7ZM80 216.6c3.1-1.1 5.7-.2 9 1.7-3.9.7-6.4-1.2-9-1.7ZM453.1 182l7.8 1.8q-3.7.6-7.8-1.8ZM44.4 165.8c2.7-.4 5 .8 7.6 1.8q-3 1.5-7.5-2l-.1.2ZM122.5 178c-2.7.9-4.1-.8-6.1-1.9 1.1-1.4 2.4-.7 3.5-.4 1 .2 2.2.4 2.6 2.3ZM873.7 193.6c-3.1.8-5.5 1.5-8.2 0 2.8-2.6 5-1.5 8.2 0ZM241 254.7c-2.9 1-5-.5-8-1.6 3.5-1.4 5.6 1.2 8 1.6ZM424 183.8c-2.8 1.6-4.5-1-6.9-1.1 2.7-1.5 4.7.7 7 1ZM226.5 172.3c-2.9-1-4.8-1.2-5.8-3.4 2.6-.7 3.9.7 5.8 3.4Z" />
        <path d="M63.4 183.4c3-.6 5.7.5 9 2.2a10 10 0 0 1-8.9-2.3v.1ZM184 210c2.2-.9 3.8-1.1 5.3 1-2.2 1.2-3.7.9-5.3-1ZM320.8 199.7l-.6-2c1.8-1 3.4-1 4.7.8-1.2 1.6-3 .6-4.3 1l.2.2ZM322.9 192c-3.2.8-4.4-.6-6.8-2.4 3.5-.4 4.5 1.5 6.8 2.5ZM339 191.2c-2.4-.8-4.1-1.2-5.1-2.7.2-1 .8-1 1.4-.8 1.5.4 2.8 1.2 3.8 3.5ZM95.7 220.2c-1.8 1-3 1.5-4.3-.6 1.7-1.2 3-1.1 4.3.6ZM366.4 150.2c1.3-1 2.6-1.2 3.8.3-.2 1.5-1.4 1.4-2.4 1.4-.9-.1-1.6-.6-1.4-1.7ZM515.5 277.3h7.7a8.5 8.5 0 0 1-7.7 0ZM86.6 183.4c3-.6 5.4 1.4 8.2 1.9-3.1 1-6 .6-8.1-2l-.1.1ZM590.9 168.8c-2.1 1.2-3.3.8-4-1 1.5-1 2.8-1.2 4 1ZM189.2 242c-3.1.7-3.5-.6-4.3-1.8 2.5-1.5 2.7.4 4.3 1.8ZM115.4 264.3c1.6-1.3 3.5-1.6 6-1-2 2.4-4.2 1.1-6 1ZM248.4 268.7c-2 1.5-3.3 1.4-4.2-.4 1.3-1 2.5-.9 4.2.4ZM181.6 209c-2 1.9-3 .8-4.4-.2 1.6-1.2 2.8-1 4.4.1ZM161.3 151.5c-8.2.2-15.7-2-23-5.2 8.1-.6 15.5 2.9 23 5.2ZM110.8 154.6c-6.9-1.8-13.7-3.3-21-6.3q4.4-2.5 21 6.3ZM99.2 158.4 81.4 153c2.4-2.2 2.5-2.3 9.3.2 3 1.2 6.6 1.1 8.5 5.3ZM111.8 148c-2.7 1.8-4 0-5.9-1.8 3-1.4 4.2 1 5.9 1.7Z" />
    </g>
</svg>