<svg
    xmlns="http://www.w3.org/2000/svg"
    width="1200"
    height="316.9"
    preserveAspectRatio="xMidYMin meet"
    viewBox="0 0 1200 316.9"
>
    <g fill="#3c3b52">
        <path d="M771.2 77.1s33.7 3 41.4 4.1c1 .2 2.3.4 3.2 0 8.8-3.5 18-5 27.2-6.5 1-.2 1.8-.6 2.8-1L843 73l-13.7-2.6c-.7 0-1.2-.5-1.8-.8.6 0 1.3-.3 2-.2 7 1.2 14.1 1.8 20.9 3.9 8 2.4 14.9.8 22.2-2.2 5.6-2.3 11.6-3.5 17.4-5.2.6-.2 1.3 0 2 .1l-1.6.7-20 6.1c-1.2.4-2.6 1-3.1 1.9-.9 1.7-2.2 1.7-3.7 2a9 9 0 0 1-6.9-.6c-3.8-2-7.9-1.8-12.1-.7-5 1.3-10.1 2-15.2 3.1-3 .7-6 1.7-9 2.6-.6.2-1.5.4-1.6.8-1.2 3.2-4.3 1.2-6.2 2.4-.3.1-1-.1-1-.4-1.2-2.4-3.7-2.1-5.6-2.4-5.6-1-34.8-3.8-34.8-3.8l-.5-.2.5-.3ZM1013.7 47l26 5.1c5.4 1.1 10.8 2.8 16.3 3.4 3 .4 6.3-1 9.5-1.5l29.8-4.5a9 9 0 0 1 2 0c.6 0 1.1.2 1.6.4l-1.4.4c-10 1.6-20 3.1-30 5-2.1.3-5.2-.3-5.8 3.2l-1.3.1c-1.1 0-2.2.2-3.3 0-1.2-.2-2.4-.6-3.5-1-1-.4-1.8-1-2.8-1.2-8.5-2.2-17-4.6-25.7-6.5-3.8-1-7.8-1-11.7-1.6-.5 0-1-.4-1.4-.5l1.5-.5.2-.4Zm-13.4-23.5c8.5.8 17 1.2 25.5 2.3 7.2 1 14.3 2.8 21.5 4 1.7.4 3.6.4 5.3 0 5.7-1.2 11.2-2.9 17-4 8.7-1.5 17.5-2.7 26.4-4l1.8-.1 1.4.2-1.3.4c-10.1 1.6-20.2 3.1-30.3 4.9-3.8.6-7.5 1.7-11.2 2.8-1.4.4-2.4 1.8-3.7 2.3-1.4.5-3 .4-4.6.5-1.4.1-3 1-3.6-1.4-.2-.6-1.6-1.2-2.5-1.4-7.9-1.5-15.7-3.3-23.7-4-10.3-1-20.8-1.2-31.3-1.7l-1-.3c.4-.2.8-.5 1.2-.5h13.1Zm-43.7 42.2c10-.2 20 1.1 29.8 3.3 2 .5 4.4-.3 6.5-.6 10.4-1.4 20.7-2.9 31-4.1 5-.7 10-.9 14.9-1.2.7 0 1.4.3 2.2.5l-2.1.6c-13.7 1.4-27.4 2.7-41.1 4.3-2.1.2-4 1.8-6 2.5a9 9 0 0 1-4.4.4c-3.7-.8-7.3-2-11-2.8a150.5 150.5 0 0 0-30.7-2h-.9l-1.3-.4c.4-.2.8-.5 1.2-.5h11.9Zm-39.2 3.4c-1 0-1.9.2-2.2-.1-3.3-3.2-7.7-3-11.7-3.6l-2-.8c.7 0 1.4-.3 2-.2 3.2.4 6.5.7 9.6 1.5 3.2.7 6.2.2 9.3-.6 10.5-2.7 21-5.4 31.8-6.4l1.2-.3-1.2-.6-11.3-2-1.9-.6c.7 0 1.4-.3 2-.2l9.7 1.5c5.2.7 10.5 1.7 15.7 1.8 4.3.1 8.6-.9 13-1.3h1.4l-1.3.8c-2.5 1-5 2.5-7.6 2.6-3.7.1-7.5-1-11.3-1.1-4-.1-8.3 0-12.3.7-8.8 1.6-17.5 3.7-26.2 5.7-1.4.4-2.6 1.7-4 2.4-1 .5-2 .6-2.7.8Zm213.3-6.1c-2 0-3.5-.1-5.3-1.8-1.7-1.6-4.8-2-7.3-2.5l-23.8-3.6c-.5 0-1-.2-1.4-.3l1.5-.2c10.8.4 21.4 1.2 31.8 4.7 1.3.5 3.2.6 4.6 0 13-4.7 26.6-5.7 40.4-5.5.5 0 1 .2 1.4.3-.5.2-1 .5-1.5.5-9.2.6-18.5.4-27.5 2.8L1138 59c-.8.2-2.2.8-2.3 1.3-.4 3.5-3 2.5-5 2.6ZM1067 79.4c-1.7.3-3.3 1.3-5 2-2.2.6-4 .8-6.5-.5-4-2-8.5-3.2-13-4-6.6-1-13.4-1.2-20.1-1.9-.7 0-1.3-.5-1.9-.8.7 0 1.4-.2 2.1-.1 6.2.6 12.3 1 18.4 2 5.8.9 11.6 2.2 17.3 3.3.9.2 1.9.1 2.7 0 4.5-.9 9-2 13.5-2.6 6.2-.7 12.5-.8 18.7-1.2.4 0 .8.2 1.1.3l-1 .3-4 .2c-.4 0-14.9 1.7-22.3 3ZM770 48.9l54 4.4c1 0 2.2-.2 3.1-.6 10.3-4.3 21.1-6.6 31.9-9 1.1-.2 2.3 0 3.5 0-1.1.3-2.2.8-3.3 1-9.5 2.8-19 5.4-28.3 8.2-1.3.4-2.3 1.8-3.5 2.2-2.4.6-4.4 1.5-7.2.4-4.3-1.7-9.1-2-13.7-2.8-.4-.1-40-3-40.3-3.3l3.7-.5Zm118.9-9.4c3.1.5 6.3.7 9.3 1.4 2.8.7 5.4-.1 8-.7l26.4-6 8.7-1.5 1.4.2-1.3.6-28.3 5.8c-2.7.6-5.4 1.3-7.6 3.5-1.2 1.3-3.4 1.8-5.7.2-1.9-1.3-4.6-1.4-7-2l-6.8-1c-.3 0-.5-.2-.8-.4l1-.1h2.7Zm-3.1 5.2c13.7 1.9 27.3 3.8 41 5.4 2.8.3 5.7-.7 8.6-1 1-.2 2.1-.2 3.1-.3l-2.7 1.1c-2.5 1-5 1.9-7.6 2.7-.5.2-1.3.2-1.7 0-9.1-4.8-19.2-3.8-28.8-5.1-5-.7-9.9-1-14.8-1.4-.4 0-.7-.3-1-.4.3-.1.7-.3 1.1-.3h2.7l.1-.7Zm100.9 36.9 10.8 1.5c1 0 2 0 3-.2l25.3-2.7h1.3l-1.1.2-20.5 2.9c-.8 0-1.7.2-2.3.6-3.2 2.2-6.4 1.4-9.6.2l-6.9-2.5Zm-102 0c-3 1.7-21.4 7-24.6 8.6-.4.2-1.3-.1-2-.3-3.6-1-7.2-2.4-10.9-3.1-5-1-10-1.3-15-2-.5 0-.8-.3-1.2-.5l1.2-.2c8.4 1.1 16.9 2.2 25.3 3.5 2.3.4 4.3.4 6.5-.5 1.7-.8 18.7-5 20.5-5.7l.2.2Zm15 6.4c5.2 2 10.2-1.4 15.6-2.3l5-.5-4.4 1.1c-2.9.7-6 1-8.1 3.6-.5.6-2 .7-3.1.6-2.3-.3-4.5-.9-6.7-1.4-.6 0-1-.4-1.6-.6l1.5-.5h1.8ZM987 56.7l-.8-.3 1.4-.5 24.4-3.3 1.4.2-1.2.6c-6.7 1-13.5 1.8-20.2 2.7l-5 .6Zm-43 24c-3 1.6-6.3.8-9.5.4l-10.4-1c-7.7-.8-29.5-1.7-32.8-1.7l-1.1.1 1.2.2 13.4.7 13.9.8c.5.1 10.7 1 11.3 1.2 1.9.4 4 .4 5.6 1.1 3.2 1.4 6.1 1.7 8.9-.8.3-.4.8-.6 1.2-.8-.6 0-1.3-.4-1.7-.2Zm25-4c-.4.1-.7.3-1.1.3L949 80.4l-1.1-.2c.2-.3.4-.7.7-.8.7-.3 1.3-.5 2-.6l16.5-2.5h1.8v.4Zm63-41.6a104 104 0 0 0-30 6.8c-4.7 1.8-9 2.7-14 1.5-.3-.2-8-1-8.3-1l-20.2-3-1.7.1 1.2.5 1.8.4 18.8 2.6c.5.2 8.2 1 8.7 1.2 1.3.4 3.1.4 3.9 1.3 1.1 1.3 2 1.2 3.4.8 1.3-.4 3.7-.2 4-.9 1-3 3.8-2.6 5.9-3.5 8.6-3.5 17.8-4.6 26.8-6.2.6 0 1.2-.3 1.8-.4l-2-.2Z" />
        <path d="m986.7 81.6-16 .3-3.3-.3c1-.2 2.1-.6 3.2-.6l16 .6h.1Zm-118-43.9c.3 0 .6.3.9.5l-.8.3c-5.6 0-11.1-.2-16.7-.3-.3 0-.6-.2-1-.4l1.2-.2 16.4.1Zm71.5 10.6c2.6-.8 7.9-2 10.5-2.8.2-.1.5.1.8.2l-1 .5c-2.6.7-7.6 1.6-10.2 2.3v-.2ZM893.9 63l2.3.4 2.3.8H896c-1.2-.1-2.4-.4-3.5-.6-.5 0-1-.2-1.4-.3l1.4-.3h1.3Zm-15.7-3.4c-4.4 1.3-8.6 2-13 .3a395.5 395.5 0 0 0-20.5-3.1l-1 .2c.4.2.7.4 1 .4l7.5 1.2c5.9 1.2 12.3.6 17.3 4.8.3.3 1 .1 1.5 0 2.6-.1 4.9-.8 7.3-2 4.3-1.9 9-2.8 13.6-4.2 2-.6 9.7-2 11.6-2.8l2.8-1.1c-6.5 1.6-21.7 4.4-28.1 6.3Zm-63.1 9-1.5-.3c.3-.1.6-.4 1-.3l2.2.3-1.7.3Zm63.2-30.3 1.5.8-.8.2-1.5-.6.8-.4Zm-55.5 31-1.3-.5c.4 0 1-.3 1.4-.2l1.3.3-1.4.4ZM873 42.4l-1.3-.3.8-.2 1.5.1-1 .4ZM986.8 85l-12.5 1a16 16 0 0 1-8.1-1c-1.6-.5-3.2-.8-4.8-1-.5-.1-1 .2-1.5.3l1.3.6c2.2.7 4.5 1 6.6 2 3.3 1.7 4.2 1.9 6.8-.2l13.1-1.5-1-.3ZM956 45l-1 .3-.7-.3c.3 0 .5-.2.8-.3l1 .3Zm27.6-1.9.1.2h-.2l.1-.2zm-34.8-10.8h.2l-.1.1-.1-.1z" />
        <path d="M194.3 160.2c7.1 1.2 13.3.5 19.5-.9 6-1.4 12.4.7 19.6-2.3l-16.6-2.5c10.3-2.2 19.8.7 28.8 4h18.7C206.8 138.2 148.4 132 88.7 147c22.5 4.3 43.8 13.6 66.7 15.3-1-.7-2-.8-3-1.3-1-.6-2.7-.6-2.7-2.2 8-1.3 13.7 5 21.4 6.3 1.9-1 4.7-.7 6.7-3-3-1.1-6-1-8.2-3.8 6.8-2 10.9 3.9 16 4.1 2.3-.2 4-.6 5.8-1.7-3.1-3-8-1.2-10.7-6 5.3 1.8 10.8.5 13.6 5.4ZM52.6 178.5l-7.2-2.2c9.6-.7 18.7-3.7 28.3-3.2-8.7-4.4-19.1-3.2-28.2-8.9 6-.4 25.5 4.2 33 7.6 23.8-.9 47.8-1.6 71.7-5.4a226 226 0 0 1-42.9-10.8 148.2 148.2 0 0 0-47.3-6.1c-3.2 0-6.4 2.3-10.5-.1 4.3-2.4 7.8-4.8 12.3-3.8 2.1.5 4 .3 6-.2 8-1.9 16.2-1.7 24.2-2.8 4.7-.7 9.3-1.5 14-2.4a427 427 0 0 1 22.6-4c6.7-1 13.6-.6 20.4-.6 12.2 0 24.5-.2 36.7.4 8.5.4 17 1.3 25.4 3.8 12.6 3.7 25.1 7.4 38 10.2 5.5 1.2 10.8 3.3 16.1 5.3a15 15 0 0 0 8.7.5 253 253 0 0 1 47.6-6 365 365 0 0 1 64 3c22.1 3.2 44.2 6.4 66.5 9.3-4.3-2-9.3-2.6-13.2-5.4 9.6-.6 13.2.5 21.7 7.2 8.6 0 17.7-1.6 28-1.1-5.7-3.4-11.4-3-16.9-5.5 5-3 9.2 1 13.4.3l-.2-.2a53.2 53.2 0 0 0 24.5 6.7c-.3-1.8-2.3-.7-2.7-2.2 4.7-1 9.1 4.9 14.2.1-17.4-5.9-35.1-10.1-53.7-15.5 5.4-1 12.8.8 23.6 4.3 7.2 2.4 14.7 4.4 22 6.4 7.6 2 15.3 3.4 22.8 6.6l-6 1.5c32.4 8.4 63.8 15.7 95.9 22.7-5.6 3.2-10.7 1-15.5 0-10.4-2.3-20.7-5.1-31-7.6-14-3.3-28-7.4-42.2-10-10.4-2-21-4-31.5-4.2-17.6-.3-35.2-.3-52.6 3a31 31 0 0 1-4.7.6c-4.8.2-9.4 1.2-14 3.7-9.8-3.7-20.9-3-32-6.7 3-1.7 5.3-1.2 7.4-1l14.7 2.3a59 59 0 0 0 29-3.2c-14.3-1.7-27.5-3.2-40.8-4.9-10-1.3-20-3-30.1-4.3-8.3-1-16.6-2.2-25-2.3-7 0-14-1.1-21-1.2-11.3-.2-22.6 1.1-33.9 1.7-8.1.4-16.4 1.7-24.4 4.6 20 5.5 40.5 7 60.3 12 1-1.3-.2-2-.2-3.2 5.2-.3 9.6 3.9 14.8 2.4 4 3.5 8.7 3.5 13.5 4 10.8 1 21.6 1.3 32.3 1.5 2.4 3.8 6.3 3.7 9.7 3.7 7.6 0 14.7 2 22 3.9 8.9 2.4 18 4 27 5.9 2 .4 4 .7 5.8 2.8a79 79 0 0 1-25.6-3.9c-16.2-4.8-32.7-8-49.5-6.8-11.5.8-23 1-34.5 2-14 1.4-27.7 4-41.7 5-.8 0-1.8.4-3-1 10.4-4 21.3-3 31.7-5 10.4-2 21.1-1.2 31.8-3.2-.5-2.1-2.3-1.8-3.7-2-14.6-1-29-4.2-43.5-6.2-11-1.5-21.5-5-32.8-4.8-5.5.2-10.8-2.8-16.6-3-13.2-.3-26.5-1.3-40.2-1 2 2 4.5 2.1 5.8 4.1l.2-.1a9 9 0 0 1-6-1.4c-5.8-3.5-12.1-2.6-18.4-2.2-10.8.7-21.6 1.7-32.4 2.5-3.4.2-6.7.2-10.2 1.7 7.4 2.3 15.1 2.3 22.2 5.8-6.4 1.3-12.3-1-18.4-1.5-9.9-.9-19.7-1.1-29.7.3-10.7 1.5-21.5 2.1-32.3 3a520.8 520.8 0 0 1-52.3 1.6l-3.2.5c14 1.2 25.9 5.7 38 9.4a511 511 0 0 0 42.8 10.4c.6.2 1.2 0 2.6 0-4.2-3.6-9.6-2.7-13.6-5.3 4.8-1.7 17.3 1.5 24.8 6l78-4 .3-1.3-25.9-7a109 109 0 0 1 33.5 6.7c30.5-2.7 60.1-.5 89.6 4.8.1-2-1.4-1.3-2-1.8-1-.6-2-1-3.1-1.5.6-1.5 1.8-1 2.7-.8 10 2.7 20.4 3.6 30.2 7.3 2.2.8 4.4.7 6.7.9l-.2-.2 10.4 6.7c-4.4.9-8.2-.7-12-1.2-15-2.3-30-5-44.7-8.2-14.5-3-29-4-43.8-4-10.4-.1-20.9-.4-31.3.1-12.8.6-25.6 2-38.4 3.2-5.8.6-11.7.8-17.5 1.3-7.9.5-15.8.7-23.8 1 2.5 3.4 6.1 2.7 9.4 3.5 7.9 2 16 3 23.9 4.6 12.2 2.4 24.1 5.9 36 9.7 7.8 2.5 16.5 4.9 25.1 1.5a9 9 0 0 1 4-.4c7.7.9 15.2 1.1 23 .7 6.7-.4 13.7.3 22.2.3-7.6 4.6-14.6 2.1-21.5 3.5 6.5 3.8 13.6 3.7 20.2 4.8 15.9 2.5 31.7 5.2 47.3 9 11.6 2.9 23.4 5 35.3 6.2 5.6.6 10.9 3.6 17.9 1.9l-39.2-15.8c3.8-1.6 5.9.2 7.9 1 12 4.4 24.3 8.6 36 14 7.5 3.6 15.3 5.4 23.1 7.7 6.7 2.1 13.5.3 20.2 0 4.4-.1 8.7.3 12.7 1.6 9.4 3 18.8 6.2 28.4 9 7.6 2.4 15.2 5.6 22.8 8.3-6 .8-11.3-1.8-16.9-3a191 191 0 0 1-28.4-9 80.5 80.5 0 0 0-31.5-3.4c-6.5.3-13 1.2-19.5 1-6.3 0-12.5 2.4-20.4 1l24.2-3.7c-.3-1.7-1.6-1.6-2.4-1.8-8.2-1.6-16.4-3.4-24.6-4.6a617.8 617.8 0 0 1-49.5-8.3c-13.9-3-27.7-6.3-41.7-8.8-9.4-1.7-19-2.2-28.3-3.4a184 184 0 0 0-23.7-1.6c-11 0-21.5 2.4-32.3 3.4-9.4.9-18.4 4-28 4-.7-3 1.3-2.8 3-3 12.4-1.8 24.7-3.2 36.9-5.7 1.3-.3 2.7-.2 3.5-1.8-.4-.4-.9-1-1.4-1.2-21.8-5.1-43.5-10.5-65.3-15.2-11-2.3-22.3-3.4-33.5-4.7-10.8-1.3-21.5-2.8-32.3-3.3a301.3 301.3 0 0 0-51.8 4.7c-2.2.3-4.3 1.3-6.4 2-1.3.5-2.5 1-3.9-.9 3-3.2 7.4-2.9 11.1-3.8 4-1 8-1.4 13-2.3-4.6-4-10.8-3.3-15.2-7.9a29 29 0 0 1 14.6 3.6c4.3 2.2 8.4 2.9 14.7 1.2l-36.4-12.4c1.9-2.3 5.7-1 5.7-1s25.8 6.2 33.6 14.1c7.1-.2 14-2.3 21.3-1.4-16-6.3-32.2-11-49.3-12.6l-5-1.2Z" />
        <path d="M660.3 175.2c8.7-.2 17.1 1.4 25.5 3.3a47.3 47.3 0 0 0 19.4.4l8-1.6c-2-1.7-4.5-1.7-6.9-1.8-12.2-.8-24.1-3.6-36.2-5l-4.7-.6a89 89 0 0 1-18.8-2.4c-7.9-2-16-3-24-4.1-13.3-1.7-26.4-4.3-39.9-3.2-7.4.7-14.9 1-22.3 2-5.4.7-10.8.6-16.4.7-1-6.2-7.3-3-10.9-6.6 6.6 0 12.3 1.3 18 3.3l26-2.3c.4-1.1-1.1-1.7-.1-3 1.8 0 4-.2 6.1.4 8 2.1 16.2 1.5 24.2 2.8l28.8 4.4 43.6 6.5c8.5 1.2 16.8 3.4 25.4 4.3C716 174 741 179 741.3 179c9.1 1.6 18.4 2.1 27.5 3.5 7.8 1.2 15.7 2.6 23.6 2 7.8-.5 15.4 1.3 23 2 5.9.4 11.7 1 17.6.9 10.2-.2 20.3 2 30.4 3 12.1 1.3 24.3 2.4 36.5 2.2 2 0 4.1.3 6.5.5-3.6 1.9-7 2.7-10.7 2.2-10.8-1.5-21.7-.5-32.5-1.2-25.3-1.7-50.6-2.8-75.5-7.4-5.8-1-11.7-.9-17.6-1.5-16-1.7-31.9-3.5-48-3.5-12.7 0-25.2 1.5-37.7 3.8a161 161 0 0 1-24.8 3.5 8 8 0 0 0-5.2 1.7l14.2 3.9c-.5.6-1 1.1-1.3 1.7 8.9 2.1 18 3.1 27.9 6.2-2.5-3.6-6.7-3.3-7.8-6.8 7 2.7 14.3 4.5 21.1 8.9 5.4 0 11 2.5 17.8 1.3-8-3.4-16-5.3-23-9 .7-2 2-1.6 2.8-1.2 11 4.7 23.1 6.3 34 11.3 4.3 1.9 9.3.8 15 .4-9.3-4.7-19.1-5.5-28.2-11.8 7.2 1 12.7 3.6 18.4 5.1 7.2 2 14.3 4.3 21.4 6.6 1.8.6 3.6 0 5.4.2a466 466 0 0 0 50.1 1.7c1.1 0 2.3-.2 3.4 1.2-2 2-4.5 1.3-6.8 1.4-11.2.3-22.4.6-33.7.5-18.1-.3-36.2-1.5-54.3-2.2a169 169 0 0 1-29.5-4.1c-13.7-3-27.7-4.6-41.3-7.8a205.2 205.2 0 0 0-38.3-4.3 35 35 0 0 1-4-.4c-.4 0-.7-.5-1.6-1.4 7.7-1.7 14.9-.5 22 .5.6-1.5-1.1-3 .6-4.4-12.3-5.7-26.4-5.6-38.8-12.6 4.7-1 8.4.8 12.3 1.5a133 133 0 0 1 19.7 4.7 57 57 0 0 0 31.7 3.7c-6.6-2.2-12.4-2.8-18.2-4-6-1.1-12-2.3-17.7-4.2-5.7-2-11.4-3.6-17.8-5.6 1.4-.8 2-1.2 2.2-1.1 13.2 4.2 26.7 6.5 40.3 9 3 .7 6.2 1.4 9.1 2.6a24.8 24.8 0 0 0 19.8.1c-.2-2-1.9-1.5-3-1.8-6-1.6-12.5-1.9-17.8-5.5l-.2.2Zm-119.8 28.5c-22.9-3-46-3.2-69-2.7-8.6.2-17 2-25.6 2.2-12.3.4-24.2 3-36.5 3.4l-27 1.5c-1.5 0-3 .4-4-1.3 1.2-2.6 4-1.2 6-2.3-1.3-1.4-3.8-.8-4.4-3.2 3.8-.8 6.5 1.4 9 3.2 3.4.8 6.4.2 9.4-.4.6-2-1.5-1.4-2-2.7 4.2-1.2 7.8 0 11 1.8l73.4-5.5c-4.6-3.2-10.3-2.7-15-5.6 13.8-1.3 26.4 5.7 41.3 5.8-5-4.6-10.4-4.6-15-5.9-5-1.4-9.9-2.5-14.4-5 4.4-.2 8.5.7 12.5 2l24 7.3c2.7.8 5.3.6 7.9-.5.5-1.3-.5-1.4-1.4-1.6-.8-.2-1.8.1-2.5-1.4a32 32 0 0 1 13.6 1.9c4.5 1.4 9 .7 13.1.9 1.9-.4 1-1.4 1.1-2.5 5-1.2 10.4 3.3 15.5-1-19.8-6.5-40.4-8.8-59.7-16.4 21.7 4.9 43.1 10.4 65.3 13.2l4.2 3.5 8-1.4a12 12 0 0 0-9.2-3.5c-3.2 0-6.2-1.1-9.5-2.2 6.6-.8 21.1 2 26 4.8 8 .5 16.4-1 24.5 2.7h-8.3a320 320 0 0 0-39.2 2.7c-5.3.7-10.8.7-16.2 1.1-6.4.6-13 .5-20.4 1.3 4.6 3 9.2 4 13.4 6l.1-.2ZM644 217.2c2 .2 4.3 0 6 .7 6.4 2.6 13 2.1 19.5 2 9.5 0 19-.3 28.5 0 8.8.2 17.6 1 25.9 4.6 1.7.8 3.5.8 5.3.7 6.4-.4 12.6 1.4 18.9 1.8.6 0 1.3.3 1.4 1.7-.1 1.6-1.7 2-3.3 1.8-11.2-1.8-34-6.1-34-6.1s-9.6-.7-14.4-.7c-11.5 0-23 .9-34.6.4-16-.6-32.1-.2-48.2 0-7.3.1-14.3-1-21.3-3.3-8.1-2.7-16.6-4.4-24.5-7.7-1.6-.7-3.5-.9-5.2-2.6 1.8-1.6 3.5-.4 5 0 12.8 4.4 26.2 6.8 39.1 10.7 6.6 2 13 .6 20 1.2-1.4-3-4-3.3-6-4l-22.5-7.7c-2-.7-4.4-1-5.3-4.7 16.9 6.6 33 14.3 51.7 14.1l-1.8-3-.2.1ZM346.1 258c4.4-.5 8.7.3 12.8 1.6a25.4 25.4 0 0 0 17-1 84.8 84.8 0 0 1-21.3-4.2c10.2 1 20.5 1.6 31 3.7 3.8-1.1 8-2 12.2-.7-13.4 1.9-26.3 8.3-40.2 4.8-1.8.2-1.9 2.2-4.3 2.7-25.7.3-52.4-1-79.4-3.4-1.6-2.3-3.2-5-6.9-5.6a41 41 0 0 1 18 3c5.2 2.1 10 2.5 14.5-.5 3.6.2 6.4 3.7 10.6 1.3-5.1-3-11.3-2-16.4-5.6 8.2-1 14.9 4.5 22.5 3.5-.6-1.4-2.4-.3-2.9-2.3 13-.3 25 6.8 39.2 5.3-2.6-1.7-5.2-.5-6.2-2.8l-.2.2Z" />
        <path d="M574 154.2c-5.4 2.1-10-.2-14.3-1-17.5-3.7-34.9-8-52.3-12-9-2-18-4-27-6.2a50.9 50.9 0 0 0-26 .5c-13.8 3.8-27.9 5.6-41.8 8.4-8.2 1.7-16.7.8-24.9 2.7-3.4.8-7.1 1-10.6 2-2 .7-3.8 1.2-6.4-.6 3.6-2 7-2.5 10.4-2.7 12.4-.8 24.7-2 36.9-4.3 10-1.8 19.8-4.4 29.6-7a70.2 70.2 0 0 1 32.8-1.1c12.5 2.7 25.2 5 37.7 7.8 18.5 4.2 37 8 55.8 13.5Zm-2 72c-14.1-4.5-28.5-6.5-42.2-11.2 6.6 1.2 13.3.9 20 2.7 6.6 1.8 13.6 2.5 20.5 3.8 1.3.2 2.7.3 4 .8 6.4 2.5 12.9 4 19.7 1.2 1.1-.5 2.6-.1 4.4 1.3-4.8 2.1-9.5 3-14.2 3.3-15.8 1.2-31.6 2-47.4 2.7-2.8.1-5.8.7-9-1.4 1.2-1.8 3.5-.8 4.7-2-1-1.3-2.7-.3-3.8-1.2-.2-.3 0-.5.6-.6 2.3-.1 4.6-.2 6.7 1 3.6 2 7.6 2 11.2 1.3 7.5-1.4 15-1 22.4-1.3.8 0 1.6-.2 2.4-.4Zm-293.4 39.2c-2.3 1.4-4.4.8-6.3.4a345.3 345.3 0 0 0-43.1-8c-3.2-.4-6.3-.2-9.4.2-10 1.2-20.2 1.4-30.2 3.4-6.5 1.4-13.3 3-20.5 1.6 3.8-3.1 8.3-2.4 12.3-3.1 9-1.7 18.3-2.4 27.5-3.5 5.4-.6 10.8-.9 16.2-1.3a92 92 0 0 1 31.3 4c7.3 2 14.7 3.8 22.2 6.3Zm51.6-54.8c-1.6-3.2-5.2-1.5-7.2-3.3q5.6-1 11.2 1c1.3.9-.4 2.8 1.3 3.5 22.4.7 45-3.5 67.4 2.2-10.4 1.3-20.6-1.6-31-1.1-10.3.4-20.7.4-31 1.8-10.5 1.4-21 2.8-31.5 3.7 3.4-2 7.2-2.3 10.8-3.2 3.5-1 7.6-.5 10-4.6Zm-69.7-25.1c-10.6 1.1-20.5-1.9-30.5-4.2-9.8-2.3-19.5-5.4-29-8 4.6-1.3 18.7-.5 22.8 1.3l-1.6 1.2c.3.3.6.6.9.7 3.6.8 7 3.5 10.8.8 2.9 1.8 6.3.4 9.4 1.5 3 1 6 2.2 9 2.7 3.3.5 5 3.4 8.2 4Zm144.2 101.8c-7.6 3.1-53.8-2.8-61.9-7.5 2.6-1 8.4-.6 15.1.8 5.1 1 10.2 2.1 15.3 2.9 5.4.8 10.9.9 16.1 2 5.1 1.1 10.4.4 15.4 1.8Zm44.8-70.9c8.5.2 14.7 5.5 23 7.6-5.2 2.1-22.2-.4-33.8-4.9 3.9-.4 6.2-.3 8.8.4 2.5.6 5.1.8 8 1.3-1.4-3-4.3-2.8-6-4.4ZM46 155.2c7 .6 36.9 11.3 40 13.9-4 .3-7.4-.8-10.6-2.2-9.6-4.4-21-4.4-29.4-11.7Zm92.1 112.2c-13.8 3.5-27.6 1.7-41.4.2 2.6-2.4 5.8-1.7 8.6-1 4.5 1 8.8.6 13.4 0 5.7-.6 11.6-.5 17.5-.6.7 0 1.8 0 2 1.4Zm360-38.4c1.3-1.3 2.8-.5 3.5-2.4l-10-3.1c7.5-.8 14.3 1.5 21 4.4 2.6.7 5.6-.4 8.1 1.8a56.6 56.6 0 0 1-22.6-.6Zm-253-52.7c.3-1 1-1.3 1.6-1.1 12.1 3.7 24.6 6.5 36.2 12-4.3-.5-8.6-.6-12.9-.6l3.7-1.2-28.6-9Zm-84.3 57.9c4.7-1.3 9.3-3.8 13.5-3.3 6.3.8 12.3-2.7 18.8-.9-4 3.4-24 6-32.3 4.2ZM644.2 217c-7 .1-13.3-2.6-19.6-4.8-3.8-1.2-8-1.8-11.4-4.7 4-.7 20.2 4.5 30.8 9.7l.2-.1Z" />
        <path d="M454 154c-11.4-1-22.6-2.4-34.1-2.5a8.5 8.5 0 0 1 5.5-2l28.6 3v1.4Zm61 32.5c9.2 1.1 18.3 1.9 26.8 5.6-9.4.3-18-3.5-26.8-5.6Zm-54.6 61.4c-9.8 1.5-19-1.7-28.2-4.3 9.6 0 18.9 2.3 28.2 4.3ZM89 165.6c-7-1-13.7-3.5-21-8.1.5-2 2.2-1.8 3.2-1.3 6 3.2 12.4 5.3 17.7 9.6l.1-.2Zm1.2-8.5c8.2-.7 14.5 4.8 21.9 6.7-8-.2-15-3-21.9-6.7Zm385.1-3.7c-5 0-17.4-2.8-21.8-5.1a33 33 0 0 1 21.7 5.2l.1-.1Zm-183.6 31.2c-6.8.7-12.6-2.2-18.3-5.3 6.2 1.4 13 .3 18.2 5.4Zm24.4 89.7c-6.8.6-13-1.6-20.6-4 7.2-1 15.4 1 20.5 4.1l.1-.1Zm-73.7-26.2a55 55 0 0 1 16.6 5.3 22 22 0 0 1-16.6-5.3Z" />
        <path d="M316 274.4c6.8-1 13.1 1 19.4 3.4-7 1.5-13-1.1-19.3-3.5v.1Zm169-116.8c-2.6-3-7-1.5-9.7-4.2l-.1.1c1.7-.4 3.5-.5 5.3 0 4.7 1.3 9.5 2.6 14 4.5-3.3.3-6.4-1.2-9.7-.6l.2.2Zm-353.8 25.7c-4.1.3-7.7-1.2-11.6-2.8 3.5-2.8 7-1.7 11.5 2.9v-.1Zm446.4 95.4h13.7q-3.6 2.5-13.7 0ZM312.2 177.2c4.8-1 8.6 1.4 12.4 3.4-4.5.1-8.7-.8-12.4-3.4Zm116.6-21.6c-6.4.6-12.6-1.5-19-1.3a29.3 29.3 0 0 1 19 1.3Zm-99.2 3.5 15.2 4.2c-4.3 1.1-8.6.3-15.2-4.2Zm210.8 44.7a28 28 0 0 1 15.9 2.6c-4 1.1-6.9.6-15.8-2.7v.1Zm-372.8 18.9-12-4c5.7-1.3 6.8-1 12 4Zm124-38c4.5-.7 8.4 1.6 13.2 2.4-4.5 2.1-5.8 1.8-13.1-2.5l-.1.1Zm231.1-10.3c3.7.4 7 1.2 11.2 3.5-5.4 1-8.3-1.4-11.2-3.5Zm-267.9 42.3c-4.8.3-9.2-1-13.4-3 4.6.3 9.2 1 13.4 3Zm-13.6-51c4.2 1.1 8 3 11.3 5.6-4.5-.4-8.4-1.9-11.1-5.7l-.2.1ZM535 221.5c3.7-.4 7.1-.9 10.8 1.6q-5.6 1.1-10.9-1.6ZM337 226c4.9-1.4 7.7.4 11.7 3-4.9.7-7.7-1.6-11.7-3Zm16.7-31.9c-2.9-1.1-6.3-1-7.8-5l8.6 4-.8 1Z" />
        <path d="M591.3 212c4 2.9 8.4 4.4 13.3 4.5a32.1 32.1 0 0 0-13.3-4.6Zm-7.6-3c2.1 2 4.4 2.8 7 2.7-3-3.6-3.1-3.6-7-2.7Z" />
        <path d="M108 183.3c-2.8.2-5.5 0-8.2-3.3 3.7.4 6.5.2 8.1 3.4l.2-.1Zm238.3 74.5c-4.4.7-8.4-.5-12.3-2a24 24 0 0 1 12.1 2.2l.2-.2ZM660.5 175c-4 .7-7.5-.6-12-2 5-1.2 8.4.4 11.8 2.2l.2-.2Zm-185.7 6.2c-3.3 1-5.1 0-6.6-2q3.1 0 6.6 2Zm44.2-28.8c-4.5 1.8-7 0-10.7-.9 4-1.7 6.5.4 10.8 1ZM387.1 199c-2.5-.2-5-1-8-3.5 3.6 1 6 1.5 8.5 2.1l-.5 1.4Zm95.5 43.3c-2.4.8-4.3 1.1-6.3-.7q3-1 6.3.7Zm-358.1-25.7c3.2-1.1 5.7-.2 9 1.7-3.9.7-6.4-1.2-9-1.7ZM497.6 182l7.8 1.8q-3.7.6-7.8-1.8ZM88.9 165.8c2.7-.4 5 .8 7.6 1.8q-3 1.5-7.5-2l-.1.2ZM167 178c-2.7.9-4.1-.8-6.1-1.9 1.1-1.4 2.4-.7 3.5-.4 1 .2 2.2.4 2.6 2.3Zm751.2 15.6c-3.1.8-5.4 1.5-8.2 0 2.8-2.6 5-1.5 8.2 0Zm-632.6 61.1c-3 1-5.1-.5-8-1.6 3.5-1.4 5.5 1.2 8 1.6Zm183-70.9c-2.9 1.6-4.6-1-7-1.1 2.8-1.5 4.8.7 7 1ZM271 172.3c-2.8-1-4.8-1.2-5.8-3.4 2.6-.7 3.9.7 5.8 3.4Z" />
        <path d="M108 183.4c3-.6 5.6.5 9 2.2a10 10 0 0 1-9-2.3v.1ZM228.6 210c2-.9 3.7-1.1 5.2 1-2.2 1.2-3.7.9-5.2-1Zm136.7-10.3-.6-2c1.8-1 3.4-1 4.7.8-1.2 1.6-3 .6-4.3 1l.2.2Zm2.1-7.7c-3.2.8-4.4-.6-6.8-2.4 3.5-.4 4.5 1.5 6.8 2.5Zm16.2-.8c-2.5-.8-4.2-1.2-5.2-2.7.2-1 .8-1 1.4-.8 1.5.4 2.8 1.2 3.8 3.5Zm-243.4 29c-1.7 1-3 1.5-4.3-.6 1.7-1.2 3-1.1 4.3.6Zm270.7-70c1.3-1 2.6-1.2 3.8.3-.2 1.5-1.3 1.4-2.4 1.4-.9-.1-1.6-.6-1.4-1.7ZM560 277.3h7.7a8.5 8.5 0 0 1-7.7 0Zm-429-93.9c3-.6 5.5 1.4 8.3 1.9-3.1 1-5.9.6-8.1-2l-.1.1Zm504.4-14.6c-2.1 1.2-3.2.8-4-1 1.5-1 2.8-1.2 4 1ZM233.7 242c-3.1.7-3.5-.6-4.3-1.8 2.5-1.5 2.7.4 4.3 1.8Zm-73.8 22.3c1.7-1.3 3.5-1.6 6-1-2 2.4-4.1 1.1-6 1Zm133 4.4c-2 1.5-3.3 1.4-4.2-.4 1.3-1 2.5-.9 4.2.4ZM226 209c-2 1.9-3 .8-4.3-.2 1.6-1.2 2.8-1 4.4.1Z" />
        <path d="M205.8 151.5c-8.2.2-15.7-2-23-5.2 8.2-.6 15.5 2.9 23 5.2Zm-50.5 3.1c-6.9-1.8-13.7-3.3-21-6.3q4.4-2.5 21 6.3Zm-11.6 3.8-17.8-5.5c2.4-2.2 2.5-2.3 9.3.2 3 1.2 6.6 1.1 8.5 5.3Zm12.6-10.4c-2.7 1.8-4 0-5.9-1.8 3-1.4 4.2 1 5.9 1.7Z" />
    </g>
</svg>