<svg
    xmlns="http://www.w3.org/2000/svg"
    width="32"
    height="32"
    viewBox="0 0 32 32"
>
    <defs>
        <symbol
            id="gaming-solid-ps1-logo"
            width="32"
            height="32"
            viewBox="0 0 32 32"
        >
            <rect
                fill="none"
                width="100%"
                height="100%"
            ></rect>
            <path
                fill="currentColor"
                d="M18 9.3c-.6-.2-.9.3-.9 1v15.8l-4.2-1.4V6l5.8 1.6c3.6 1.3 4.8 2.8 4.8 6.3 0 3.4-2 4.6-4.7 3.4V11c0-.8-.1-1.4-.8-1.6Zm9.2 9.8c-1.7-.6-4-.9-5.9-.7-1.8.2-3.1.7-3.1.7h-.3v2.6l4.6-1.6c.7-.2 1.9-.3 2.5-.1.6.2.5.6-.3.9L18 23.3v2.5l9.3-3.4s1.2-.4 1.7-1c.6-.7.3-1.6-1.7-2.3ZM3.6 20.6c-1 .7-.6 1.9 1.5 2.5a13.8 13.8 0 0 0 7 .4v-2.2l-2.2.8c-.7.2-1.9.3-2.5.1-.6-.2-.5-.6.3-.9l4.3-1.5v-2.5l-6 2.2s-1.5.4-2.4 1Z"
            />
        </symbol>
    </defs>
    <g id="gaming-ps1-logo">
        <rect
            fill="none"
            width="100%"
            height="100%"
        ></rect>
        <g>
            <path
                fill="#3b73b8"
                d="m13 16.8-2 .8 2 .6v-1.4Z"
            />
            <path
                fill="#ecb731"
                d="m17.1 26 3.8-1.3-4.2-1.3.4 2.7Z"
            />
            <path
                fill="#43ad9c"
                d="m23 21.3-6.3 2 4.2 1.4 6.2-2.2-4-1.2Zm-5.9-1.9a5 5 0 0 0-.3.2L12.4 21l-1.5.6 3.8 1.2 6.3-2.2-3.9-1.2Z"
            />
            <path
                fill="#3b73b8"
                d="M28.4 19.6a13.4 13.4 0 0 0-6.7-1.3c-1 0-3.6.8-4.6 1.1l3.9 1.2 1.4-.5s1.3-.5 2.5-.1c1.3.3-.9 1-1.8 1.3l4 1.2.3-.1s3.2-1.6 1-2.8Z"
            />
            <path
                fill="#ecb731"
                d="M10.4 21.8c-1 .4-2 .6-2.7.4-1.3-.5 0-1 .9-1.3l-3.7-1.1c-1.1.6-4 2.7 1.6 3.7 4.5.9 6.1 0 7.2-.4l1-.3-3.8-1.2-.5.2Z"
            />
            <path
                fill="#43ad9c"
                d="m9.1 20.8 5.7-2-3.8-1.2-5.7 2-.4.2 3.7 1.1.5-.1Z"
            />
            <path
                fill="#cc2229"
                d="M12.9 6v18.6l4.2 1.5V10c0-.7 1.6-1 1.6.4v6.8s2.2 1 3.5 0c1.5-1.2 2.7-5.3 0-7.8 0 0-1.3-1.4-5.8-2.6l-3.5-1Z"
            />
        </g>

    </g>
</svg>