<svg
    xmlns="http://www.w3.org/2000/svg"
    width="64"
    height="32"
    data-name="Layer 1"
    viewBox="0 0 64 32"
>
    <defs>
        <symbol
            id="gaming-old-ps3-logo"
            width="32"
            height="32"
            viewBox="0 0 32 32"
        >
            <rect
                fill="none"
                width="100%"
                height="100%"
            ></rect>
            <path
                fill="currentColor"
                d="m7.7 11.3 1-2.5h3c4.7 0 6-.4 6-.4l1.2-3h-.1a26.3 26.3 0 0 0-5.4-.5L10 5l-3 .3-.5 1.4h.6l-1.7 4.6h2.3Zm1.8-4.8a42.1 42.1 0 0 1 6.7 0l-.3.8H9.2l.3-.8ZM31 5.3l-.5 1.5a24.2 24.2 0 0 0-5.4-.4 42 42 0 0 0-3.4.1l-.4.9h9L29 10.8a35.3 35.3 0 0 1-11.1 0l.4-1.4a24.8 24.8 0 0 0 5.5.4l3.4-.1.3-1h-9L20 5.4a31.8 31.8 0 0 1 9-.4l2 .3h.1Zm-4 9.4h.1l-3.9 10.7a68.5 68.5 0 0 1-21.7 0l1-2.8a47.4 47.4 0 0 0 10.5.8c2.3 0 4.5-.1 6.7-.3l.6-1.7H7l1-2.7h13.3l.6-1.8a78 78 0 0 0-17.4.5h-.2l1-2.7a61.9 61.9 0 0 1 11.2-.9 66.8 66.8 0 0 1 10.5.9Z"
            />
        </symbol>

        <symbol
            id="gaming-new-ps3-logo"
            width="32"
            height="64"
            viewBox="0 0 32 64"
        >
            <rect
                fill="none"
                width="100%"
                height="100%"
            ></rect>
            <use
                xlink:href="#gaming-ps3-logo"
                transform="translate(32 0) rotate(90 0 0) "
            ></use>
        </symbol>
    </defs>

    <g id="gaming-ps3-logo">
        <rect
            fill="none"
            width="100%"
            height="100%"
        ></rect>
        <path
            fill="currentColor"
            d="M40.5 9v1.2h-6.9c-1.2 0-1.7.8-1.7 2V18c0 2-1.2 3.4-3.6 3.4h-7.6l-.1-.1V20h6.8c1.2 0 1.8-1 1.8-2.1v-5.8c0-2 1.1-3.4 3.5-3.4h7.7l.1.1Zm-22.8-.2H3l-.1.1v1.2h14c1.2 0 1.8 1 1.8 2.1 0 1.2-.6 2-1.8 2h-11c-1.7 0-3 1.5-3 3.4v3.7h2.6v-3.7c0-1.2.8-2 1.8-2h10.5c2.4 0 3.6-1.5 3.6-3.4S20 8.8 17.7 8.8ZM60.5 15v-.1c.7-.6 1-1.5 1-2.6 0-1.9-1-3.4-3.5-3.4H43.2v1.3h14c1.1 0 1.7 1 1.7 2.1 0 1.2-.6 2-1.7 2h-14v1.3h14c1.5 0 1.7 1.6 1.7 2.4v.1c0 1.2-.6 2-1.7 2h-14v1.3H58c2.4 0 3.6-1.5 3.6-3.3V18a4 4 0 0 0-1.1-3Z"
        />
    </g>
</svg>