<svg
    width="64"
    height="32"
    viewBox="0 0 64 32"
>
    <defs>
        <symbol
            id="gaming-vertical-ps2-logo"
            width="32"
            height="154.4"
            viewBox="0 0 32 154.4"
        >
            <rect
                fill="none"
                width="100%"
                height="100%"
            ></rect>
            <path
                fill="currentColor"
                d="M22.7 151.8c-2.1 0-3.2-.1-4.3-.8-1-.6-1.8-1.9-1.8-4.7l.1-3.4c0-.5-.2-2-.9-2.6-.6-.6-1-.6-2.7-.7H8.3v11.7H6v-15h5.3c4.2 0 4.8.3 5.9 1.2.7.6 1.6 2 1.7 3.9v3.6c0 1.6.2 2.1.8 2.6a4 4 0 0 0 2.6.7c1.2 0 2.3-.2 2.8-.6.6-.6 1-1 1-2.6V137h2.4v8.6c0 2.8-.7 4.3-1.7 5-1 .8-2 1.1-4 1.2Zm-16-37v2.8h12v2.8c0 2.8-2.5 2.5-2.5 2.5H6.6v3h9.8c4.4 0 4.4-4.5 4.4-4.5v-6.6h-14Zm8.6-3.3H12a5.5 5.5 0 0 1-5.6-5.5v-1.4c0-3 2.5-5.5 5.6-5.5h3.3c3 0 5.5 2.5 5.5 5.5v1.4c0 3-2.4 5.5-5.5 5.5Zm.7-3.2c1.6 0 3-1.3 3-3s-1.4-3-3-3h-4.7c-1.7 0-3 1.4-3 3s1.3 3 3 3H16Zm8.9-12.2v-2.9h-2.6v2.9h2.6Zm-4 0v-2.9H6.8v2.9h14ZM8.3 89.8v-.4c0-2.1 2.2-2 2.2-2h8.3v3.2h2v-3.2h2.3v-2.8H9.8c-3.4 0-3.2 2-3.2 2v3.2h1.7ZM19 72.2v4c0 2.8-2.4 2.7-2.4 2.7h-8v-2.7c0-1.7.8-2.5 3-2.5s2.3 1.6 2.3 1.6V77h1.6v-2.7c0-3.5-3.7-3.6-3.7-3.6h-.9c-4.3 0-4.3 4.1-4.3 4.1v7H17c4 0 4-4.2 4-4.2v-5.3h-2ZM8.3 67.8v-.4c0-2.1 2.2-2 2.2-2h8.3v3.2h2v-3.2h2.3v-2.8H9.8c-3.4 0-3.2 2-3.2 2v3.2h1.7Zm-1.7-18v5.9c0 3.6 3.8 3.9 3.8 3.9h3c3.8 0 3.8-3 3.8-3v-2.3c0-2.3 2.4-2.4 2.4-2.4h1C23 51.9 23 54 23 54v4.4h1.9v-5c0-4.2-4-4.4-4-4.4h-1.6c-4.6-.2-4.5 3.7-4.5 3.7V55c0 1.7-1.9 1.9-1.9 1.9h-1.6c-3 0-2.9-2.2-2.9-2.2v-4.8H6.6ZM7 39.4l-7-3.1v2.5l21 8.9V45l-9.8-4 9.6-3.7V34L7.1 39.4ZM19 23v4c0 2.7-2.4 2.6-2.4 2.6h-8V27c0-1.7.8-2.5 3-2.5s2.3 1.6 2.3 1.6v1.6h1.6v-2.6c0-3.6-3.7-3.7-3.7-3.7h-.9c-4.3 0-4.3 4.1-4.3 4.1v7H17c4 0 4-4.2 4-4.2V23h-2Zm5.9-4.4V16H6.6v2.8h18.3Zm0-9.3V1.8H6.7v2.8h16.1v3.8c0 2.1-2.8 2.2-2.8 2.2h-1.8c-3-.2-2.6-1.6-2.6-1.6V6.4h-2v3c0 4 4.4 4 4.4 4h2.9c4 0 4-4 4-4Z"
            />
        </symbol>
    </defs>
    <g id="gaming-ps2-logo">
        <rect
            fill="none"
            width="100%"
            height="100%"
        ></rect>
        <path
            fill="currentColor"
            d="M30 9.8h10.5v1.3h-9.2v9.2H20.8v-1.2H30V9.8Zm31.2 6v-6H42.6v1.3H60v3.4H42.6v5.8h18.6v-1.2H44v-3.4h17.3Zm-39.8-6H2.8v1.3H20v3.4H2.8v5.8H4v-4.6h17.4V9.8Z"
        />
    </g>
</svg>