<svg
    xmlns="http://www.w3.org/2000/svg"
    width="32"
    height="32"
    viewBox="0 0 32 32"
>
    <g id="gaming-switch-logo">
        <rect
            fill="none"
            width="100%"
            height="100%"
        ></rect>
        <path
            fill="currentColor"
            d="M18.346 29.086h4.032a6.709 6.709 0 0 0 6.708-6.708V9.622a6.709 6.709 0 0 0-6.708-6.708h-4.053a.162.162 0 0 0-.165.165v25.822c0 .102.083.185.185.185Zm4.979-14.423c1.46 0 2.654 1.193 2.654 2.654s-1.193 2.654-2.654 2.654-2.654-1.193-2.654-2.654c.02-1.461 1.193-2.654 2.654-2.654ZM6.988 10.774c0 1.358 1.111 2.469 2.47 2.469s2.468-1.111 2.468-2.469-1.11-2.469-2.469-2.469a2.45 2.45 0 0 0-2.469 2.469Zm8.354-7.86h-5.72a6.709 6.709 0 0 0-6.708 6.708v12.756a6.709 6.709 0 0 0 6.708 6.708h5.72a.184.184 0 0 0 .185-.186V3.1a.184.184 0 0 0-.185-.186Zm-1.914 24.073H9.622a4.493 4.493 0 0 1-3.251-1.358 4.577 4.577 0 0 1-1.358-3.25V9.621c0-1.235.473-2.387 1.358-3.251a4.577 4.577 0 0 1 3.25-1.358h3.807v21.974Z"
        />
    </g>
</svg>