<svg
    xmlns="http://www.w3.org/2000/svg"
    width="64"
    height="32"
    viewBox="0 0 64 32"
>
    <symbol
        id="gaming-vertical-ps5-logo"
        width="32"
        height="64"
        viewBox="0 0 32 64"
    >
        <rect
            fill="none"
            width="100%"
            height="100%"
        ></rect>
        <use
            xlink:href="#gaming-ps5-logo"
            transform="translate(32 0) rotate(90 0 0) "
        ></use>
    </symbol>
    <g id="gaming-ps5-logo">
        <rect
            fill="none"
            width="100%"
            height="100%"
        ></rect>
        <path
            fill="currentColor"
            d="M32.3 8.8h7.9v1.4h-6.7a2 2 0 0 0-1.2.4 2 2 0 0 0-.8 1.6V18c0 1-.4 1.9-1 2.5-.8.6-1.7.9-2.6.9h-7.6V20H27c.7 0 1.3-.3 1.6-.9.3-.3.4-.8.4-1.2v-5.4c0-3.6 3.4-3.7 3.4-3.7Zm-14.5 0h-15v1.4h13.5c.4 0 .8 0 1.1.2.6.2 1.2.8 1.2 1.8s-.6 1.5-1.2 1.8c-.3.2-.7.2-1 .2H6.2c-.6 0-1.2.2-1.7.4-.9.4-1.8 1.4-1.8 3v3.8h2.6v-3.7l.1-.7c.2-.6.8-1.5 2-1.5h10.2l1-.1c1-.3 2.5-1 2.5-3.2 0-3.4-3.4-3.4-3.4-3.4Zm41.5 5.8c-.6-.2-1.3-.4-2-.4H46.6a1 1 0 0 1-.5 0 1 1 0 0 1-.5-1v-3h15.3V8.8h-18v4.9s0 1.8 2.3 1.8h11l1.2.3a2 2 0 0 1 1.3 2 2 2 0 0 1-1 1.8c-.3.3-.8.4-1.3.4H43v1.4h15s3.4-.2 3.4-3.7a3 3 0 0 0-2-3Z"
        />
    </g>
</svg>