<svg
    xmlns="http://www.w3.org/2000/svg"
    width="64"
    height="32"
    viewBox="0 0 64 32"
>
    <symbol
        id="gaming-vertical-ps4-logo"
        width="32"
        height="64"
        viewBox="0 0 32 64"
    >
        <rect
            fill="none"
            width="100%"
            height="100%"
        ></rect>
        <use
            xlink:href="#gaming-ps4-logo"
            transform="translate(32 0) rotate(90 0 0) "
        ></use>
    </symbol>
    <g id="gaming-ps4-logo">
        <rect
            fill="none"
            width="100%"
            height="100%"
        ></rect>
        <path
            fill="currentColor"
            d="M42 10.2h-7.3c-1.2 0-1.8.8-1.8 2V18c0 2-1.1 3.4-3.5 3.4h-8.6l-.1-.1V20h7.8c1.2 0 1.7-1 1.7-2.1v-5.8c0-2 1.2-3.4 3.6-3.4H42V10ZM17.7 8.8H3l-.1.1v1.2h14c1.2 0 1.8 1 1.8 2.1s-.6 2-1.8 2h-11c-1.7 0-3 1.5-3 3.4v3.7h2.6v-3.7c0-1.2.8-2 1.8-2h10.5c2.4 0 3.6-1.5 3.6-3.4S20 8.8 17.7 8.8Zm43.9 10v1.1l-.1.1H59l-.1.1v1.2h-2.7V20H42c-.6 0-1-.2-1-.5-.2-.3 0-.7.6-1l15.1-9.4c1.3-.8 2.2-.3 2.2 1v8.4l2.6.1Zm-5.4-7.4c0-.2-.1-.2-.2-.1l-11.8 7.2v.1H56v-7.2Z"
        />
    </g>
</svg>