<svg xmlns="http://www.w3.org/2000/svg" width="24" height="24" viewBox="0 0 24 24">
    <path fill="currentColor" d="M12 2a10 10 0 0 0-3.16 19.49c.5.1.66-.22.66-.48v-1.86c-2.78.6-3.36-1.18-3.36-1.18-.46-1.16-1.11-1.47-1.11-1.47-.9-.62.07-.6.07-.6 1 .07 1.53 1.03 1.53 1.03.9 1.53 2.34 1.08 2.91.83.09-.65.35-1.09.64-1.34-2.23-.25-4.56-1.11-4.56-4.94 0-1.1.39-1.99 1.03-2.69a3.6 3.6 0 0 1 .1-2.64s.84-.27 2.75 1.02a9.6 9.6 0 0 1 5 0c1.91-1.3 2.75-1.02 2.75-1.02.55 1.37.2 2.4.1 2.64.64.7 1.03 1.6 1.03 2.69 0 3.84-2.34 4.69-4.57 4.93.36.31.69.92.69 1.85v2.75c0 .26.16.58.67.48A10 10 0 0 0 12 2Z"/>
</svg>
