<svg xmlns="http://www.w3.org/2000/svg" viewBox="0 0 16 16">
<path fill="currentColor" d="M8 1.25a6.76 6.76 0 0 0-2.14 13.17c.34.07.45-.15.45-.32v-1.26c-1.88.4-2.27-.8-2.27-.8-.32-.78-.75-1-.75-1-.61-.41.04-.4.04-.4.68.05 1.04.7 1.04.7.6 1.03 1.58.73 1.96.56.06-.44.24-.74.44-.9-1.51-.18-3.09-.76-3.09-3.35 0-.74.27-1.34.7-1.82-.2-.58-.18-1.22.07-1.78 0 0 .57-.18 1.86.69 1.1-.3 2.27-.3 3.38 0 1.29-.88 1.86-.69 1.86-.69.37.93.13 1.62.06 1.78.44.48.7 1.09.7 1.82 0 2.6-1.58 3.17-3.09 3.33.24.21.47.63.47 1.25v1.86c0 .18.1.4.45.33A6.76 6.76 0 0 0 8 1.24Z"/>
</svg>