<svg xmlns="http://www.w3.org/2000/svg" viewBox="0 0 16 16" width="16" height="16">
    <path fill="none" stroke="currentColor" stroke-linecap="round" stroke-linejoin="round" stroke-width=".8" d="M9.8 2.6s-.8.2-2.8.2c-1.2 0-2.4-.4-2.4-.8 0-.3 1-.6 3.4-.6s2.9.3 3 .5l.5 2M8 6c1.6 0 3-.2 3.9-.3.3-.1.6-.5.5-.9v-.4c-.1-.4-.5-.6-.8-.5a18.8 18.8 0 0 1-7.2 0c-.3 0-.7.1-.7.5l-.1.4c0 .4.2.8.5.9.8.1 2.3.3 3.9.3ZM4.7 7l.8 6.7c0 .9 1 1 2.5 1s2.4-.2 2.5-1l1-8"/>
    <path fill="currentColor" d="M8.3 7.5c-.5.2-1 .4-1.8.4l-.9-.1.5 5.2a.9.9 0 0 0 .9.8h2a.9.9 0 0 0 .9-.8l.5-5.7-.8-.2c-.4 0-.8.2-1.3.4Z"/>
</svg>