<svg xmlns="http://www.w3.org/2000/svg" viewBox="0 0 16 16">
<path fill="currentColor" d="M1.5 1.5v13h13v-13h-13Zm7.08 10.14c0 1.26-.74 1.84-1.82 1.84a1.9 1.9 0 0 1-1.84-1.12l1-.6c.19.34.36.63.78.63.4 0 .66-.16.66-.77V7.47h1.22v4.17Zm2.89 1.84c-1.14 0-1.87-.54-2.23-1.25l1-.57c.25.42.6.74 1.2.74.5 0 .83-.26.83-.6 0-.42-.33-.57-.9-.82l-.3-.13c-.88-.37-1.46-.84-1.46-1.84 0-.91.7-1.61 1.79-1.61.77 0 1.33.27 1.73.98l-.95.6c-.2-.37-.43-.52-.78-.52-.36 0-.59.23-.59.53 0 .36.23.51.75.74l.3.13c1.04.45 1.63.9 1.63 1.92 0 1.1-.86 1.7-2.02 1.7Z"/>
</svg>