<svg xmlns="http://www.w3.org/2000/svg" viewBox="0 0 16 16">
<path fill="currentColor" d="M2.6 7.1c.3 0 .5 0 .7-.2s.2-.4.2-.7l-.1-1.9.1-1 .5-.7.8-.4 1-.2H7v1.8h-.8a1 1 0 0 0-.6.2c-.2 0-.2.3-.2.6l.1 1.9V7l-.5.5a2 2 0 0 1-.6.2l-.7.2.7.1.6.3.4.5c.1.2.2.4.1.6l-.1 2c0 .2 0 .4.2.5l.6.2H7V14H5.8a3 3 0 0 1-1-.2c-.3 0-.6-.2-.8-.4a2 2 0 0 1-.6-1.8l.1-1.8c0-.3 0-.5-.2-.7a1 1 0 0 0-.7-.2H2V7.1h.6ZM10.2 2c.4 0 .7 0 1 .2.3 0 .6.2.8.4a2 2 0 0 1 .6 1.8l-.1 1.8c0 .3 0 .5.2.7l.7.2h.6v1.8h-.6c-.3 0-.5 0-.7.2s-.2.4-.2.7l.1 1.9-.1 1a2 2 0 0 1-.5.7l-.8.4-1 .2H9v-1.8h.8c.3 0 .5 0 .6-.2.2 0 .2-.3.2-.6l-.1-1.9V9c0-.2.3-.3.5-.5l.6-.2.7-.2-.7-.1-.6-.3-.4-.5c-.1-.2-.2-.4-.1-.6l.1-2c0-.2 0-.4-.2-.5a.9.9 0 0 0-.6-.2H9V2h1.2Z"/>
</svg>