<svg xmlns="http://www.w3.org/2000/svg" viewBox="0 0 16 16">
<path fill="currentColor" d="M2.56 7.11q.45 0 .7-.24c.26-.24.27-.38.25-.65L3.37 4.3q-.03-.53.13-.95.17-.43.5-.73.31-.3.79-.46.46-.15 1.01-.16h1.15v1.79h-.74a1 1 0 0 0-.61.17q-.23.18-.2.6l.14 1.92q.02.35-.11.63a1 1 0 0 1-.39.45q-.24.18-.6.28-.33.1-.73.11v.07q.38.01.74.11.34.1.6.3a1.2 1.2 0 0 1 .48 1.11l-.13 1.9q-.03.36.2.56c.24.2.37.22.61.22h.74V14H5.8a3 3 0 0 1-1.01-.17 2.06 2.06 0 0 1-1.41-2.2L3.5 9.8a.8.8 0 0 0-.24-.65 1 1 0 0 0-.7-.24H2V7.1zM10.2 2q.54 0 1.02.17.46.16.79.47a2 2 0 0 1 .62 1.72l-.14 1.85q-.03.4.24.65.28.24.7.24H14v1.8h-.56q-.44 0-.7.24c-.27.24-.27.38-.25.65l.14 1.92q.03.53-.13.95-.17.43-.5.73t-.78.46q-.48.16-1.02.16H9.05v-1.79h.74q.4 0 .61-.17.23-.18.2-.6l-.13-1.92q-.03-.35.1-.63c.13-.28.22-.33.39-.45a2 2 0 0 1 .6-.28q.34-.1.73-.12v-.06q-.38 0-.74-.12a2 2 0 0 1-.6-.3q-.24-.19-.38-.47c-.14-.28-.12-.39-.1-.63l.13-1.9a.6.6 0 0 0-.2-.56 1 1 0 0 0-.61-.22h-.74V2z"/>
</svg>