<svg xmlns="http://www.w3.org/2000/svg" width="24" height="24" viewBox="0 0 24 24">
    <path fill="currentColor" d="M21.41 6.43c-.3-2.15-2.19-3.84-4.43-4.17C16.6 2.2 15.17 2 11.84 2h-.02c-3.33 0-4.04.2-4.42.26-2.18.32-4.17 1.84-4.66 4.01a13.62 13.62 0 0 0-.21 3.35c.06 1.56.07 3.12.22 4.68.1 1.03.27 2.05.51 3.06.46 1.87 2.32 3.42 4.15 4.05a11.23 11.23 0 0 0 6.71.14c.5-.16 1.06-.33 1.49-.63a.05.05 0 0 0 .01-.04v-1.52a.05.05 0 0 0-.05-.03c-1.29.3-2.6.46-3.93.46-2.28 0-2.9-1.07-3.07-1.52a4.65 4.65 0 0 1-.25-1.23h.04c1.26.3 2.56.45 3.87.45h.93c1.32-.05 2.7-.11 3.99-.36l.09-.02c2.03-.39 3.97-1.6 4.16-4.67l.03-1.4c0-.42.14-3.02-.02-4.61Zm-3.13 7.66h-2.14V8.91c0-1.1-.46-1.65-1.4-1.65-1.02 0-1.54.66-1.54 1.96v2.84h-2.12V9.22c0-1.3-.52-1.96-1.54-1.96-.93 0-1.4.56-1.4 1.65v5.18H6V8.75c0-1.09.29-1.96.85-2.6a2.95 2.95 0 0 1 2.29-.97c1.1 0 1.92.42 2.47 1.25l.53.88.54-.88a2.77 2.77 0 0 1 2.47-1.25c.94 0 1.7.33 2.29.97.56.64.84 1.51.84 2.6v5.34Z"/>
</svg>
