<svg
    xmlns="http://www.w3.org/2000/svg"
    width="109.276"
    height="23.243"
    viewBox="0 0 1092.76 232.43"
>
    <path
        data-name-part="first"
        style="--d: 0;"
        d="M124.11 115.66c-5.74 2.82-13.04 4.23-21.9 4.23-10.9 0-20.97-1.94-30.22-5.84a52.83 52.83 0 0 1-22.34-17.66c-5.64-7.89-8.47-17.52-8.47-28.91 0-11 2.53-20.54 7.6-28.62a50.16 50.16 0 0 1 20.87-18.83c8.86-4.38 18.84-6.57 29.93-6.57 8.66 0 16.35 1.12 23.07 3.36 6.81 2.24 12.02 4.91 15.62 8.03l3.21 24.38h-5.54c-2.63-7.1-5.75-12.9-9.35-17.38-3.5-4.57-7.25-7.93-11.24-10.07a25.1 25.1 0 0 0-12.26-3.21c-5.94 0-10.95 1.9-15.04 5.7-4.09 3.7-7.2 8.9-9.35 15.61-2.14 6.72-3.2 14.5-3.2 23.36 0 9.06 1.45 17.09 4.37 24.1 2.92 6.9 7.16 12.3 12.7 16.2 5.55 3.9 12.12 5.84 19.71 5.84 6.14 0 11.49-1.46 16.06-4.38a25.58 25.58 0 0 0 9.93-12.4l4.82 1.6c-.97 3.8-2.92 7.64-5.84 11.53-2.92 3.8-7.3 7.1-13.14 9.93Zm936.4-.88v3.07h-11.39c-6.62 0-12.16-.34-16.64-1.02a28.01 28.01 0 0 1-11.39-4.24 19.3 19.3 0 0 1-7-9.2 31.3 31.3 0 0 1-2.2-10.07c-.19-3.7-.24-7.83-.14-13.29.1-5.45-.05-9.68-.44-12.7a14.1 14.1 0 0 0-2.92-7.74c-1.56-2.04-4.09-3.06-7.6-3.06h-7v47.74c0 2.73.44 4.82 1.31 6.28a8.3 8.3 0 0 0 3.36 3.06c1.36.5 3.07.83 5.11 1.03.59 0 1.22.05 1.9.14v3.07H813.48v-3.07h1.76c2.14-.29 3.89-.68 5.25-1.17a7.25 7.25 0 0 0 3.36-3.06c.88-1.46 1.31-3.55 1.31-6.28V49.96h-27.6v54.31c0 2.73.45 4.82 1.32 6.28a8.29 8.29 0 0 0 3.36 3.06c1.36.5 3.07.83 5.11 1.03.59 0 1.22.05 1.9.14v3.07h-57.38v-3.07h1.75c2.14-.29 3.9-.68 5.26-1.17a7.24 7.24 0 0 0 3.36-3.06c.87-1.46 1.31-3.55 1.31-6.28V29.23c0-2.73-.44-4.82-1.31-6.28a6.45 6.45 0 0 0-3.36-2.92 20.63 20.63 0 0 0-5.26-1.32h-1.75v-3.06h57.38v3.06c-.68 0-1.31.05-1.9.15-2.04.2-3.75.58-5.1 1.17a7.26 7.26 0 0 0-3.37 2.92c-.87 1.46-1.31 3.55-1.31 6.28v15.62h27.6V29.23c0-2.73-.44-4.82-1.32-6.28a6.45 6.45 0 0 0-3.36-2.92 20.63 20.63 0 0 0-5.25-1.32h-1.76v-3.06h206.74c5.84 0 10.85.97 15.03 2.92 4.2 1.85 7.35 4.38 9.5 7.6a17.24 17.24 0 0 1 3.21 9.92c0 3.3-.98 6.33-2.92 9.05a21.67 21.67 0 0 1-7.89 6.42 24.98 24.98 0 0 1-10.36 2.49c5.93 1.26 10.31 3.2 13.14 5.84 2.82 2.53 4.52 5.35 5.11 8.46.58 3.12.92 7.5 1.02 13.14-.1 3.9-.05 6.92.14 9.93.3 2.92.93 5.9 1.9 8.9 1.36 4.68 3.12 8.28 5.26 10.81 2.24 2.53 4.62 3.65 7.15 3.65ZM872.35 29.23c0-2.73-.43-4.82-1.3-6.28a6.45 6.45 0 0 0-3.37-2.92c-.56-.24-1.2-.45-1.9-.64-.69.18-1.34.39-1.93.64a6.45 6.45 0 0 0-3.36 2.92c-.87 1.46-1.3 3.55-1.3 6.28v75.04c0 2.73.43 4.82 1.3 6.28.88 1.46 2 2.48 3.36 3.06.6.22 1.25.4 1.95.55.68-.17 1.32-.35 1.88-.55a7.24 7.24 0 0 0 3.36-3.06c.88-1.46 1.31-3.55 1.31-6.28V29.23Zm87.42 0c0-2.73-.44-4.82-1.31-6.28a6.45 6.45 0 0 0-3.36-2.92c-.78-.34-1.7-.62-2.74-.85v32.24h-2.92a49.55 49.55 0 0 0-3.2-15.04c-1.76-4.48-4.83-8.18-9.2-11.1-4.39-3.01-10.28-4.52-17.67-4.52h-13v24.09h3.21c3.12 0 5.55-.63 7.3-1.9a9.22 9.22 0 0 0 3.36-5.7c.49-2.52.44-5.69-.14-9.48l2.62-.44 15.63 47.45-2.63.44a61.9 61.9 0 0 0-7.89-13.14c-3.01-3.9-6.13-6.87-9.34-8.9-3.21-2.15-6.18-3.22-8.9-3.22h-3.22v62.78h13c7.4 0 13.28-1.46 17.66-4.38 4.38-3.02 7.45-6.72 9.2-11.1a51.19 51.19 0 0 0 3.21-15.18h2.92v32.27c1.04-.21 1.96-.46 2.74-.74a7.24 7.24 0 0 0 3.36-3.06c.87-1.46 1.31-3.55 1.31-6.28V29.23Zm53.3 6.71c0-2.72-.54-5.2-1.6-7.44a11.9 11.9 0 0 0-4.69-5.55c-2.04-1.46-4.57-2.2-7.59-2.2h-5.4v30.52h5.4c2.92 0 5.4-.68 7.45-2.04a13.73 13.73 0 0 0 4.82-5.7 18.66 18.66 0 0 0 1.6-7.59Zm-615.72 78.7c.59 0 1.22.05 1.9.14v3.07h-57.38v-.01a108.1 108.1 0 0 1-14.72-1.01 28.01 28.01 0 0 1-11.39-4.24c-3.11-2.14-5.45-5.2-7-9.2a31 31 0 0 1-2.2-10.07c-.19-3.7-.24-7.83-.14-13.29.1-5.45-.05-9.68-.44-12.7-.29-3.11-1.26-5.7-2.92-7.74-1.56-2.04-4.09-3.06-7.59-3.06h-7v47.74c0 2.73.43 4.82 1.3 6.28a8.3 8.3 0 0 0 3.36 3.06c1.37.5 3.07.83 5.11 1.03.59 0 1.22.05 1.9.14v3.07H195.57v-3.07h1.75c2.14-.29 3.9-.68 5.26-1.17a7.24 7.24 0 0 0 3.36-3.06c.87-1.46 1.31-3.55 1.31-6.28V49.96h-27.6v54.31c0 2.73.45 4.82 1.32 6.28a8.3 8.3 0 0 0 3.36 3.06c1.36.5 3.07.83 5.11 1.03.58 0 1.22.05 1.9.14v3.07h-57.38v-3.07h1.75c2.14-.29 3.9-.68 5.26-1.17a7.24 7.24 0 0 0 3.36-3.06c.87-1.46 1.31-3.55 1.31-6.28V29.23c0-2.73-.44-4.82-1.31-6.28a6.45 6.45 0 0 0-3.36-2.92 20.63 20.63 0 0 0-5.26-1.32h-1.75v-3.06h57.38v3.06c-.68 0-1.32.05-1.9.15-2.04.2-3.75.58-5.11 1.17a7.27 7.27 0 0 0-3.36 2.92c-.87 1.46-1.31 3.55-1.31 6.28v15.62h27.6V29.23c0-2.73-.45-4.82-1.32-6.28a6.45 6.45 0 0 0-3.36-2.92 20.63 20.63 0 0 0-5.26-1.32h-1.75v-3.06H314.9c5.84 0 10.85.97 15.04 2.92 4.18 1.85 7.34 4.38 9.49 7.6a17.22 17.22 0 0 1 3.2 9.92c0 3.3-.97 6.33-2.91 9.05a21.63 21.63 0 0 1-7.89 6.42 24.98 24.98 0 0 1-10.36 2.49c5.93 1.26 10.31 3.2 13.14 5.84 2.82 2.53 4.52 5.35 5.1 8.46.6 3.12.93 7.5 1.03 13.14-.1 3.9-.05 6.92.15 9.93.29 2.92.92 5.9 1.9 8.9 1.36 4.68 3.1 8.28 5.25 10.81.65.74 1.31 1.34 1.99 1.84a7.7 7.7 0 0 0 2.22-2.42c.87-1.46 1.31-3.55 1.31-6.28V29.23c0-2.73-.44-4.82-1.31-6.28a6.45 6.45 0 0 0-3.36-2.92 20.63 20.63 0 0 0-5.26-1.32h-1.75v-3.06h57.38v3.06c-.68 0-1.31.05-1.9.15-2.04.2-3.74.58-5.1 1.17a7.27 7.27 0 0 0-3.37 2.92c-.87 1.46-1.3 3.55-1.3 6.28v75.04c0 2.73.43 4.82 1.3 6.28a8.3 8.3 0 0 0 3.36 3.06c1.37.5 3.07.83 5.11 1.03Zm-142.9-85.41c0-2.73-.44-4.82-1.32-6.28a6.45 6.45 0 0 0-3.36-2.92c-.56-.24-1.2-.45-1.9-.64-.69.18-1.34.39-1.93.64a6.45 6.45 0 0 0-3.36 2.92c-.87 1.46-1.31 3.55-1.31 6.28v75.04c0 2.73.44 4.82 1.31 6.28.88 1.46 3.36 3.6 5.3 3.6s4.37-2.14 5.25-3.6c.88-1.46 1.31-3.55 1.31-6.28V29.23Zm53.28 6.71c0-2.72-.53-5.2-1.6-7.44a11.82 11.82 0 0 0-4.67-5.55c-2.05-1.46-4.58-2.2-7.6-2.2h-5.4v30.52h5.4c2.92 0 5.4-.68 7.45-2.04a13.67 13.67 0 0 0 4.82-5.7 18.65 18.65 0 0 0 1.6-7.59Zm442.74 17.81c-4.18 1.95-9.2 2.92-15.03 2.92H709v47.6c0 2.73.44 4.82 1.31 6.28a8.29 8.29 0 0 0 3.36 3.06c1.36.5 3.07.83 5.11 1.03.59 0 1.22.05 1.9.14v3.07H663.3v-3.07c.68 0 1.75-.17 2.43-.26 2.24-.3 3.6-.86 4.87-1.34a6.01 6.01 0 0 0 3.07-2.78c.87-1.36 1.31-3.4 1.31-6.13V29.23c0-2.73-.44-4.82-1.31-6.28a6.45 6.45 0 0 0-3.36-2.92 20.63 20.63 0 0 0-5.26-1.32h-1.75v-3.06h72.13c5.84 0 10.85.97 15.03 2.92 4.19 1.95 7.35 4.52 9.5 7.74 2.14 3.11 3.2 6.42 3.2 9.92s-1.06 6.82-3.2 9.93c-2.05 3.12-5.21 5.65-9.5 7.6Zm-22.19-17.8c0-2.64-.53-5.12-1.6-7.45a11.82 11.82 0 0 0-4.68-5.55c-2.04-1.46-4.57-2.2-7.59-2.2h-5.4v30.67h5.4c2.92 0 5.4-.68 7.45-2.05a13.67 13.67 0 0 0 4.82-5.69 19.01 19.01 0 0 0 1.6-7.74ZM664.6 96.96a40.72 40.72 0 0 1-17.96 17.37c-7.6 3.8-16.45 5.7-26.57 5.7s-19.03-1.9-26.72-5.7c-7.6-3.8-13.58-9.58-17.96-17.37-4.28-7.88-6.42-17.71-6.42-29.5 0-8.2 1.08-15.47 3.2-21.88a55.7 55.7 0 0 0-2.43-9.5 24.9 24.9 0 0 0-8.62-11.68c-4.08-3.21-9.54-4.82-16.35-4.82h-2.92v84.68c0 2.73.44 4.92 1.32 6.57a9.22 9.22 0 0 0 3.35 3.36c1.37.58 3.12 1.07 5.26 1.46l1.75.3v1.89h-57.38v-1.9l1.76-.3c2.14-.38 3.89-.87 5.25-1.45a7.97 7.97 0 0 0 3.36-3.36c.88-1.65 1.31-3.84 1.31-6.57V19.6h-2.77c-6.91 0-12.41 1.6-16.5 4.82-4.09 3.11-7 7-8.76 11.68a60.17 60.17 0 0 0-3.21 15.33h-3.9c-2.33-6.72-5.79-14.4-9-18.98-3.21-4.67-6.72-8.13-10.51-10.37-3.7-2.33-7.35-3.5-10.95-3.5-3.02 0-5.65.44-7.89 1.31-2.24.78-3.99 2.1-5.25 3.94a11.59 11.59 0 0 0-1.76 6.57c0 3.12 1.08 6.19 3.22 9.2a40.42 40.42 0 0 0 8.03 8.32 271.4 271.4 0 0 0 13.28 9.64 236.63 236.63 0 0 1 15.92 11.24 48.84 48.84 0 0 1 10.36 10.66c2.92 4 4.38 8.18 4.38 12.56 0 6.9-2.19 12.46-6.57 16.64-4.38 4.09-10.02 7-16.93 8.76a92.6 92.6 0 0 1-22.78 2.63 87.97 87.97 0 0 1-25.11-3.5c-7.79-2.44-13.24-5.46-16.35-9.06l-4.1-26.72h6.73c2.04 7.2 4.96 13.39 8.76 18.55s7.98 9.05 12.55 11.68c4.67 2.53 9.35 3.8 14.02 3.8 3.7 0 6.9-.4 9.63-1.18 2.73-.77 4.87-1.9 6.43-3.35a7.75 7.75 0 0 0 2.33-5.7c0-2.14-.92-4.33-2.77-6.57a36.5 36.5 0 0 0-6.72-6.71 358.76 358.76 0 0 0-11.38-8.47 312.7 312.7 0 0 1-17.96-13 60.56 60.56 0 0 1-11.97-12.99 28.4 28.4 0 0 1-4.97-16.06c0-6.23 1.7-11.34 5.11-15.33 3.5-3.99 8.37-6.96 14.6-8.9 6.23-2.05 13.58-3.07 22.05-3.07 8.17 0 15.33.92 21.46 2.77 6.13 1.75 11.49 4.14 15.09 7.16v-7.74h102.2v21.48c4.35-7.79 10.22-13.65 17.63-17.54 7.68-4.09 16.54-6.13 26.57-6.13s18.88 2.04 26.57 6.13c7.69 4 13.67 10.03 17.96 18.1 4.28 8.08 6.42 18.01 6.42 29.79s-2.14 21.6-6.42 29.5ZM636.13 66.6c0-12.55-.59-22.24-1.76-29.05-1.07-6.91-2.77-11.78-5.1-14.6-2.34-2.92-5.4-4.38-9.2-4.38s-6.87 1.41-9.2 4.23c-2.34 2.83-4.09 7.6-5.26 14.31-1.07 6.62-1.6 15.96-1.6 28.03 0 12.85.53 22.88 1.6 30.08 1.17 7.1 2.92 12.17 5.26 15.18 2.33 3.02 5.4 4.53 9.2 4.53s6.86-1.46 9.2-4.38c2.33-2.92 4.03-7.84 5.1-14.75 1.17-6.9 1.76-16.64 1.76-29.2Z"
    />
    <path
        data-name-part="last"
        style="--d: 1;"
        d="m433.6 149.97 15 15-15 15-15-15 15-15Zm-27.74 63.36c1.85.3 3.94.49 6.28.59v3.06h-60.89v-3.06h1.32c1.85-.1 3.26-.4 4.23-.88.98-.49 1.56-1.36 1.75-2.63.2-1.36-.19-3.3-1.16-5.84l-22.93-53-3.2 1.9v49.93c0 2.83.48 5.02 1.45 6.57a8.95 8.95 0 0 0 3.65 3.07c1.46.49 3.26.78 5.4.88h1.17v3.06h-61.3c-6.61 0-12.16-.34-16.64-1.02a28.01 28.01 0 0 1-11.38-4.23c-3.12-2.14-5.46-5.21-7.01-9.2a31 31 0 0 1-2.2-10.08c-.19-3.7-.24-7.83-.14-13.28.1-5.45-.05-9.69-.44-12.7-.29-3.12-1.26-5.7-2.92-7.74-1.55-2.05-4.08-3.07-7.59-3.07h-7v47.74c0 2.73.43 4.82 1.3 6.28a8.29 8.29 0 0 0 3.37 3.07c1.36.49 3.06.83 5.1 1.02.59 0 1.22.05 1.9.15v3.06H74.2v-3.06h1.32c1.84-.1 3.26-.4 4.23-.88.97-.49 1.56-1.36 1.75-2.63.2-1.36-.2-3.3-1.17-5.84l-22.92-53-3.21 1.9v49.93c0 2.83.49 5.02 1.46 6.57a8.96 8.96 0 0 0 3.65 3.07c1.46.49 3.26.78 5.4.88h1.17v3.06H8.49v-3.06c2.53-.1 4.58-.34 6.13-.73a7.68 7.68 0 0 0 3.94-2.92c1.08-1.46 1.61-3.75 1.61-6.87v-75.04c0-3.11-.53-5.4-1.6-6.86a6.76 6.76 0 0 0-4.1-2.92 30.37 30.37 0 0 0-5.98-.73v-3.07h57.38v3.07c-2.34.1-4.28.34-5.84.73a7.35 7.35 0 0 0-4.09 2.92c-1.17 1.46-1.75 3.75-1.75 6.86v18.69l30.51-21.61a74.85 74.85 0 0 0 6.43-4.82c1.07-1.07 1.36-1.75.87-2.04-.39-.4-1.4-.63-3.06-.73v-3.07h30.8v2.37h-.73c-.2 0-.44.7-.73.7-3.7.2-7.69.92-11.97 2.19-4.28 1.26-9.1 3.55-14.45 6.86l-5.99 3.65L118 204.72c1.56 2.72 3.31 4.77 5.26 6.13 1.94 1.27 3.8 2.1 5.54 2.48.73.12 1.71.3 2.31.3 1.41 0 2.5-.54 3.46-.88a7.24 7.24 0 0 0 3.36-3.07c.88-1.46 1.32-3.55 1.32-6.28v-75.04c0-2.72-.44-4.82-1.32-6.28a6.45 6.45 0 0 0-3.36-2.92 20.61 20.61 0 0 0-5.25-1.31h-1.76v-3.07h125.18c5.84 0 10.85.98 15.04 2.92 4.18 1.85 7.35 4.38 9.49 7.6a17.23 17.23 0 0 1 3.21 9.92c0 3.31-.97 6.33-2.92 9.05a21.63 21.63 0 0 1-7.88 6.43 24.99 24.99 0 0 1-10.37 2.48c5.94 1.27 10.32 3.21 13.14 5.84 2.82 2.53 4.53 5.35 5.11 8.47s.92 7.5 1.02 13.14c-.1 3.9-.05 6.9.15 9.93a42.2 42.2 0 0 0 1.9 8.9c1.36 4.67 3.11 8.28 5.25 10.8a10.75 10.75 0 0 0 4.48 3.2c.48-.08.93-.17 1.34-.27a7.68 7.68 0 0 0 3.94-2.92c1.07-1.46 1.6-3.75 1.6-6.87v-75.04c0-3.11-.53-5.4-1.6-6.86a6.76 6.76 0 0 0-4.09-2.92 30.37 30.37 0 0 0-5.99-.73v-3.07h57.38v3.07c-2.33.1-4.28.34-5.84.73a7.35 7.35 0 0 0-4.09 2.92c-1.16 1.46-1.75 3.75-1.75 6.86v18.69l30.52-21.61a74.94 74.94 0 0 0 6.42-4.82c1.07-1.07 1.36-1.75.88-2.04-.4-.4-1.42-.63-3.07-.73v-3.07h30.8v3.07h-1.45c-3.7.2-7.7.92-11.98 2.19-4.28 1.26-9.1 3.55-14.45 6.86l-5.99 3.65 32.12 74.17c1.56 2.72 3.31 4.77 5.26 6.13 1.95 1.27 3.8 2.1 5.55 2.48Zm-213.57-84.97c0-2.72-.44-4.82-1.32-6.28a6.45 6.45 0 0 0-3.36-2.92c-1.18-.5-2.67-.9-4.44-1.18l-.14.01c-2.04.2-3.74.59-5.1 1.17a7.27 7.27 0 0 0-3.36 2.92c-.88 1.46-1.32 3.56-1.32 6.28v75.04c0 2.73.44 4.82 1.32 6.28a8.3 8.3 0 0 0 3.35 3.07c1.37.49 3.37 1.02 5.22 1.02s3.3-.6 4.47-1.02a7.24 7.24 0 0 0 3.36-3.07c.88-1.46 1.32-3.55 1.32-6.28v-75.04Zm53.29 6.72c0-2.73-.54-5.21-1.61-7.45a11.83 11.83 0 0 0-4.67-5.55c-2.05-1.46-4.58-2.19-7.6-2.19h-5.4v30.52h5.4c2.93 0 5.4-.68 7.45-2.05a13.67 13.67 0 0 0 4.82-5.7 18.66 18.66 0 0 0 1.6-7.58Zm643.96 43.5a48.8 48.8 0 0 0-10.36-10.65c-4.09-3.22-9.4-6.96-15.92-11.25a271.2 271.2 0 0 1-13.28-9.63 40.44 40.44 0 0 1-8.03-8.32c-2.14-3.02-3.21-6.09-3.21-9.2 0-2.63.58-4.82 1.75-6.57a10.27 10.27 0 0 1 5.25-3.94c2.24-.88 4.87-1.17 7.89-1.17 3.6 0 7.25 1.02 10.95 3.36 3.8 2.24 7.3 5.7 10.51 10.36 3.21 4.58 5.99 10.22 8.32 16.94h5.55l-4.38-25.99c-3.6-3.02-8.47-5.4-14.6-7.15-6.13-1.85-13.29-2.78-21.46-2.78-8.47 0-15.82 1.02-22.05 3.07-6.23 1.95-11.1 4.91-14.6 8.9-3.4 4-5.1 9.1-5.1 15.33a28.4 28.4 0 0 0 4.96 16.06 60.4 60.4 0 0 0 11.97 13c4.67 3.7 10.66 8.03 17.96 13 4.86 3.5 8.66 6.32 11.38 8.46a36.46 36.46 0 0 1 6.72 6.72c1.85 2.24 2.77 4.43 2.77 6.57 0 2.24-.77 4.13-2.33 5.7a15.57 15.57 0 0 1-6.43 3.35 35.27 35.27 0 0 1-9.63 1.17c-4.67 0-9.35-1.27-14.02-3.8-4.57-2.63-8.76-6.52-12.55-11.68-3.8-5.16-6.72-11.34-8.76-18.54h-7.83c-.48 5.74-1.6 12.21-3.35 16.79-1.66 4.57-4.68 8.47-9.06 11.68-4.38 3.11-10.26 4.67-17.66 4.67h-13v-84.68c0-2.72.44-4.82 1.32-6.28a7.27 7.27 0 0 1 3.36-2.92 20.85 20.85 0 0 1 5.4-1.31h1.6v-3.07h-57.37v3.07h1.75c2.14.3 3.9.73 5.25 1.31a6.45 6.45 0 0 1 3.36 2.92c.88 1.46 1.32 3.56 1.32 6.28v75.04c0 2.73-.44 4.82-1.32 6.28a7.24 7.24 0 0 1-3.36 3.07 26.7 26.7 0 0 1-5.25 1.17h-1.75v3.06h91.68V204.8c3.12 3.6 10.84 8.44 18.63 10.87a87.97 87.97 0 0 0 25.11 3.5 92.6 92.6 0 0 0 22.78-2.63c6.9-1.75 12.55-4.67 16.93-8.76 4.38-4.18 6.57-9.73 6.57-16.64 0-4.38-1.46-8.56-4.38-12.56Zm170.26-63.8v3.07h1.75c2.14.3 3.84.73 5.11 1.31a6.48 6.48 0 0 1 3.36 2.92c.97 1.46 1.46 3.56 1.46 6.28v35.77l-39.14-49.35h-49.05v3.07h1.75c2.14.3 3.9.73 5.26 1.31a6.45 6.45 0 0 1 3.36 2.92c.87 1.46 1.31 3.56 1.31 6.28v75.04c0 2.73-.44 4.82-1.31 6.28a7.24 7.24 0 0 1-3.36 3.07 26.7 26.7 0 0 1-5.26 1.17h-1.75v3.06h28.47v-3.06a14 14 0 0 0-2.04-.15c-1.95-.2-3.6-.53-4.97-1.02a7.24 7.24 0 0 1-3.35-3.07c-.88-1.46-1.32-3.55-1.32-6.28v-74.16l68.91 88.18h7.6v-89.06c0-2.72.43-4.82 1.31-6.28a6.44 6.44 0 0 1 3.36-2.92c1.36-.58 3.01-.97 4.96-1.17.68-.1 1.36-.14 2.05-.14v-3.07h-28.47Zm-169.77 3.07h1.76c2.14.3 3.89.73 5.25 1.31a6.45 6.45 0 0 1 3.36 2.92c.88 1.46 1.31 3.56 1.31 6.28v75.04c0 2.73-.43 4.82-1.3 6.28a7.25 7.25 0 0 1-3.37 3.07 26.7 26.7 0 0 1-5.25 1.17h-1.76v3.06h91.7v-35.77h-2.93a51.21 51.21 0 0 1-3.2 15.19c-1.76 4.38-4.83 8.08-9.2 11.1-4.39 2.91-10.28 4.37-17.67 4.37h-13V149.1h3.21c2.73 0 5.7 1.07 8.91 3.21 3.21 2.05 6.33 5.02 9.34 8.91a61.92 61.92 0 0 1 7.89 13.14l2.63-.44-15.63-47.45-2.62.44c.58 3.8.63 6.96.14 9.5a9.22 9.22 0 0 1-3.36 5.68c-1.75 1.27-4.18 1.9-7.3 1.9h-3.2V119.9h12.99c7.4 0 13.28 1.51 17.66 4.53 4.38 2.92 7.45 6.62 9.2 11.1a49.57 49.57 0 0 1 3.21 15.03h2.92v-35.77h-91.69v3.07Zm-266.74-3.07h87.36v35.77h-2.92a49.54 49.54 0 0 0-3.22-15.04c-1.75-4.47-4.81-8.17-9.2-11.1-4.37-3-10.26-4.52-17.66-4.52h-13V144h3.22c3.11 0 5.55-.64 7.3-1.9a9.21 9.21 0 0 0 3.36-5.7c.48-2.53.43-5.7-.15-9.49l2.63-.44 15.62 47.45-2.63.44a61.83 61.83 0 0 0-7.88-13.14c-3.02-3.9-6.13-6.86-9.35-8.9-3.2-2.15-6.18-3.22-8.9-3.22h-3.21v62.78h13c7.39 0 13.28-1.46 17.66-4.38 4.38-3.01 7.44-6.71 9.2-11.1a51.18 51.18 0 0 0 3.2-15.18h2.93v35.77H565.9v-3.06h1.75c2.14-.3 3.9-.68 5.26-1.17a7.24 7.24 0 0 0 3.35-3.07c.88-1.46 1.32-3.55 1.32-6.28v-75.04c0-2.72-.44-4.82-1.32-6.28a6.45 6.45 0 0 0-3.35-2.92 18.91 18.91 0 0 0-4.21-1.14c-1.87.2-3.47.58-4.8 1.14a6.45 6.45 0 0 0-3.35 2.92c-.88 1.46-1.32 3.56-1.32 6.28v89.06h-7.59l-68.91-88.18v74.16c0 2.73.44 4.82 1.31 6.28.88 1.46 2 2.48 3.36 3.07 1.36.49 3.02.83 4.97 1.02a14 14 0 0 1 2.04.15v3.06h-28.47v-3.06h1.75c2.14-.3 3.9-.68 5.26-1.17a7.24 7.24 0 0 0 3.36-3.07c.87-1.46 1.31-3.55 1.31-6.28v-75.04c0-2.72-.44-4.82-1.31-6.28a6.45 6.45 0 0 0-3.36-2.92 20.61 20.61 0 0 0-5.26-1.31h-1.75v-3.07h49.96l38.22 49.35v-35.77c0-2.72-.48-4.82-1.46-6.28a6.45 6.45 0 0 0-3.35-2.92 18.39 18.39 0 0 0-5.11-1.31h-1.76v-3.07h80.84Zm-1.77 3.2-.13.01c-2.05.2-3.75.59-5.11 1.17a7.27 7.27 0 0 0-3.36 2.92c-.88 1.46-1.31 3.56-1.31 6.28v75.04c0 2.73.43 4.82 1.31 6.28a8.3 8.3 0 0 0 3.36 3.07c1.36.49 3.06.83 5.1 1.02h.22c1.73-.26 3.2-.6 4.37-1.02a7.24 7.24 0 0 0 3.35-3.07c.88-1.46 1.32-3.55 1.32-6.28v-75.04c0-2.72-.44-4.82-1.32-6.28a6.45 6.45 0 0 0-3.35-2.92c-1.19-.5-2.68-.9-4.45-1.18Z"
    />
</svg>