<svg
    xmlns="http://www.w3.org/2000/svg"
    width="68.26"
    height="46.49"
    viewBox="0 0 682.6 464.9"
>
    <path
        data-name-part="first1"
        style="--d: 0;"
        fill="currentColor"
        d="M213.4 111.2c-1 3.8-2.9 7.6-5.8 11.5-3 3.8-7.3 7.1-13.1 10-5.8 2.8-13 4.2-22 4.2a77 77 0 0 1-30.2-5.9 48.4 48.4 0 0 1-30.8-46.6A50.2 50.2 0 0 1 140 37a66.6 66.6 0 0 1 30-6.5c8.6 0 16.3 1.2 23 3.4a47 47 0 0 1 15.6 8l3.2 24.4h-5.5a61.8 61.8 0 0 0-9.4-17.4 35.7 35.7 0 0 0-11.2-10 25 25 0 0 0-12.3-3.3c-5.9 0-11 2-15 5.7s-7.2 9-9.3 15.7a77 77 0 0 0 1.1 47.4 33.4 33.4 0 0 0 32.4 22 26 26 0 0 0 26.1-16.7l4.7 1.6Zm271.8 20.4c.6 0 1.2 0 2 .2v3h-50v.5h-11.4c-6.6 0-12.1-.4-16.6-1a28 28 0 0 1-11.4-4.3 19.3 19.3 0 0 1-7-9.2 31 31 0 0 1-2.2-10c-.2-3.8-.2-8.3-.1-13.8 0-5.4 0-9.7-.5-12.7a14 14 0 0 0-2.9-7.7c-1.6-2-4-3-7.6-3h-7v47.6c0 2.8.4 4.9 1.3 6.3 1 1.5 2.1 2.5 3.4 3a21.5 21.5 0 0 0 7 1.3v3H271.8v-3h1.7c2.2-.3 4-.7 5.3-1.2a7.2 7.2 0 0 0 3.3-3c1-1.5 1.3-3.6 1.3-6.4V67H256v54.3c0 2.8.4 4.9 1.3 6.3 1 1.5 2 2.5 3.3 3a21.5 21.5 0 0 0 7 1.3v3h-57.3v-3h1.7a28 28 0 0 0 5.3-1.2 7.2 7.2 0 0 0 3.3-3c.9-1.5 1.3-3.6 1.3-6.4v-75c0-2.7-.4-4.8-1.3-6.3a7 7 0 0 0-3.3-2.9c-1.4-.6-3.2-1-5.3-1.3h-1.7v-3h57.3v3l-1.9.1c-2 .2-3.7.6-5 1.2a7.3 7.3 0 0 0-3.4 3c-1 1.4-1.3 3.5-1.3 6.2v15.6h27.5V46.2c0-2.7-.4-4.8-1.3-6.3s-2-2.4-3.3-2.9c-1.4-.6-3.1-1-5.3-1.3h-1.7v-3H397c5.9 0 10.9.9 15 2.8 4.2 1.9 7.4 4.4 9.6 7.6 2 3.2 3.2 6.5 3.2 10 0 3.3-1 6.3-3 9a20.7 20.7 0 0 1-7.8 6.4 25 25 0 0 1-10.4 2.5c6 1.3 10.3 3.2 13.1 5.9a15 15 0 0 1 5.1 8.4c.6 3.1 1 7.5 1 13.2 0 3.9 0 7.3.2 10.3.3 3 1 6 2 9 1.3 4.6 3 8.2 5.2 10.7 1.1 1.3 2.3 2.3 3.5 3a22 22 0 0 0 3.2-1 7.2 7.2 0 0 0 3.3-3c.9-1.4 1.3-3.5 1.3-6.3v-75c0-2.7-.4-4.8-1.3-6.3s-2-2.4-3.3-2.9c-1.4-.6-3.2-1-5.3-1.3h-1.8v-3h57.4v3l-1.9.1c-2 .2-3.7.6-5 1.2a7.3 7.3 0 0 0-3.4 3c-1 1.4-1.4 3.5-1.4 6.2v75c0 2.8.5 4.9 1.4 6.3 1 1.5 2 2.5 3.3 3 1.4.6 3 1 5.1 1.1ZM336.5 46.2c0-2.7-.5-4.8-1.3-6.3s-2-2.4-3.4-2.9a15.4 15.4 0 0 0-9.7 0c-1.3.5-2.4 1.5-3.3 3s-1.3 3.5-1.3 6.2v75c0 2.8.4 4.9 1.3 6.3.9 1.5 2 2.5 3.3 3 1.4.6 3 1 5 1.1h.3c1.8-.2 3.2-.6 4.4-1a7.2 7.2 0 0 0 3.4-3c.8-1.5 1.3-3.6 1.3-6.4v-75Zm53.3 6.7a17 17 0 0 0-1.6-7.4 13.1 13.1 0 0 0-12.3-7.8h-5.4v30.6h5.4c3 0 5.4-.7 7.4-2 2.2-1.6 3.8-3.5 4.9-5.8 1-2.4 1.6-5 1.6-7.6Zm182 43.5a47 47 0 0 0-10.3-10.6c-4.1-3.2-9.4-7-16-11.3-5.6-3.9-10-7-13.2-9.6a40.4 40.4 0 0 1-8-8.3c-2.2-3-3.2-6.1-3.2-9.2 0-2.7.5-4.8 1.7-6.6 1.3-1.8 3-3.2 5.3-4a20.4 20.4 0 0 1 18.8 2.2c3.8 2.3 7.3 5.7 10.5 10.4 3.2 4.6 6 10.2 8.3 17h5.6l-4.4-26c-3.6-3-8.5-5.4-14.6-7.2a74.6 74.6 0 0 0-21.5-2.8 71 71 0 0 0-22 3.1 32 32 0 0 0-14.6 9c-3.4 3.9-5.1 9-5.1 15.2 0 5.8 1.6 11.1 5 16.1 3.3 4.9 7.2 9.2 12 13 4.6 3.7 10.6 8 17.9 13l11.4 8.5c2.7 2.1 5 4.3 6.7 6.7 1.8 2.2 2.7 4.4 2.7 6.5 0 2.3-.7 4.2-2.3 5.7a15.4 15.4 0 0 1-6.4 3.4c-2.7.8-6 1.2-9.6 1.2-4.7 0-9.4-1.3-14-3.8a41.5 41.5 0 0 1-12.6-11.7 57.4 57.4 0 0 1-8.8-18.6h-6.7l4 26.8c3.2 3.6 8.7 6.6 16.4 9a92.6 92.6 0 0 0 47.9.9 38 38 0 0 0 17-8.8 22 22 0 0 0 6.5-16.6 21 21 0 0 0-4.3-12.6Z"
    />
    <path
        data-name-part="first2"
        style="--d: 1;"
        fill="currentColor"
        d="M248.8 183.6a63 63 0 0 0-6.4-29.8 41.9 41.9 0 0 0-18-18.1c-7.7-4-16.5-6.1-26.5-6.1s-19 2-26.6 6.1a42.8 42.8 0 0 0-17.6 17.5v-21.4H51.5v35.7h2.9c.5-5.6 1.5-10.7 3.2-15.3 1.7-4.7 4.7-8.6 8.7-11.7a26 26 0 0 1 16.5-4.8h2.8v84.7c0 2.7-.4 4.9-1.3 6.6a8 8 0 0 1-3.4 3.3c-1.3.6-3 1-5.2 1.5l-1.8.3v1.9h57.4v-2l-1.7-.2a23 23 0 0 1-5.3-1.5 9.2 9.2 0 0 1-3.3-3.3 14 14 0 0 1-1.4-6.6v-84.7h3c6.8 0 12.2 1.6 16.3 4.8 4.1 3.1 7 7 8.6 11.7 1 3 1.9 6.1 2.5 9.5a69.4 69.4 0 0 0-3.2 21.9 60 60 0 0 0 6.4 29.5 41.7 41.7 0 0 0 18 17.4c7.6 3.8 16.5 5.7 26.7 5.7s19-2 26.5-5.7a40.7 40.7 0 0 0 18-17.4 61.2 61.2 0 0 0 6.4-29.5Zm-36.6 28.3a32 32 0 0 1-5.2 14.8c-2.3 2.9-5.4 4.3-9.1 4.3s-7-1.5-9.2-4.5c-2.4-3-4.1-8-5.3-15.2-1-7.2-1.6-17.2-1.6-30 0-12.1.5-21.5 1.6-28 1.2-6.8 3-11.6 5.3-14.4s5.4-4.2 9.2-4.2 6.8 1.4 9.1 4.4a31 31 0 0 1 5.2 14.6c1.1 6.8 1.7 16.5 1.7 29s-.6 22.3-1.7 29.2Zm125.5-49.6a17 17 0 0 0 0-19.9 22.4 22.4 0 0 0-9.4-7.7c-4.2-2-9.2-3-15-3H241v3.1h1.8c2 .3 3.8.8 5.2 1.3 1.4.5 2.5 1.5 3.4 3 .8 1.4 1.3 3.5 1.3 6.2v75c0 2.8-.5 4.9-1.3 6.2-.8 1.4-1.8 2.3-3.1 2.8s-3 .9-5.3 1.2c-.6 0-1.3.2-2 .4v3h57.4v-3l-2-.2c-2-.1-3.7-.5-5-1a8.3 8.3 0 0 1-3.4-3c-.9-1.5-1.3-3.6-1.3-6.3v-47.6h26.4a34 34 0 0 0 15-3c4.3-1.9 7.5-4.4 9.6-7.5Zm-33.2-2.5a13.1 13.1 0 0 1-12.3 7.7h-5.4V137h5.4c3 0 5.5.7 7.6 2.2 2.1 1.3 3.7 3.2 4.7 5.5s1.6 4.8 1.6 7.5a19 19 0 0 1-1.6 7.7ZM631 227.7a29.4 29.4 0 0 1-5.2-10.8c-1-3-1.6-6-2-9-.1-3-.2-6.4 0-10.3-.2-5.6-.5-10-1-13.1s-2.4-6-5.2-8.5a27.5 27.5 0 0 0-13.1-5.8 25 25 0 0 0 10.3-2.5c3.3-1.7 6-3.8 8-6.4 1.9-2.8 2.8-5.8 2.8-9.1 0-3.5-1-6.8-3.2-10a21.4 21.4 0 0 0-9.5-7.5c-4.1-2-9.2-3-15-3H391.3v3.1h1.7c2.2.3 4 .8 5.3 1.3 1.3.5 2.5 1.5 3.3 3 1 1.4 1.3 3.5 1.3 6.2V161h-27.5v-15.7c0-2.7.4-4.8 1.3-6.2 1-1.5 2-2.5 3.3-3 1.4-.5 3-1 5.1-1.1l2-.2v-3h-57.4v3h1.7c2.1.3 3.9.8 5.3 1.3 1.3.5 2.4 1.5 3.3 3 .9 1.4 1.3 3.5 1.3 6.2v75c0 2.8-.4 4.9-1.3 6.4-.9 1.4-2 2.4-3.3 3a28 28 0 0 1-5.3 1.2h-1.7v3H387v-3l-1.9-.2c-2-.1-3.7-.5-5-1a8.3 8.3 0 0 1-3.4-3c-1-1.5-1.3-3.6-1.3-6.3V166h27.5v54.3c0 2.7-.4 4.8-1.3 6.3-.8 1.4-2 2.4-3.3 3-1.4.5-3.1.9-5.3 1.2h-1.7v3h192v-3l-2-.2c-2-.1-3.7-.5-5-1a8.3 8.3 0 0 1-3.4-3c-.9-1.5-1.3-3.6-1.3-6.3v-47.8h7c3.5 0 6 1 7.6 3.1a14 14 0 0 1 2.9 7.7c.4 3 .5 7.3.4 12.7 0 5.5 0 10 .2 13.8.2 3.6.9 7 2.2 10 1.5 4 3.9 7.1 7 9.2a28 28 0 0 0 11.4 4.3c4.4.7 10 1 16.6 1h11.4v-3c-2.5 0-5-1.2-7.2-3.7Zm-181-7.3c0 2.7-.4 4.8-1.3 6.3-.9 1.4-2 2.4-3.3 3l-2 .6-1.9-.6a7.2 7.2 0 0 1-3.3-3c-.9-1.5-1.3-3.6-1.3-6.3v-75c0-2.8.4-4.9 1.3-6.3.9-1.5 2-2.5 3.3-3l2-.6 1.9.6c1.3.5 2.4 1.5 3.3 3 .9 1.4 1.3 3.5 1.3 6.2v75Zm87.5 0c0 2.7-.5 4.8-1.4 6.3-.8 1.4-2 2.4-3.3 3l-2.8.8v-32.3h-2.9a51.2 51.2 0 0 1-3.2 15.2c-1.7 4.4-4.8 8-9.2 11-4.4 3-10.3 4.5-17.6 4.5h-13V166h3.2c2.7 0 5.7 1 8.9 3.2 3.2 2 6.3 5 9.3 8.9 3 3.8 5.7 8.2 7.9 13.1l2.6-.4-15.6-47.5-2.6.5c.6 3.8.6 7 .1 9.5a9.2 9.2 0 0 1-3.3 5.7 12.3 12.3 0 0 1-7.3 1.9h-3.2v-24.1h13c7.4 0 13.2 1.5 17.6 4.5 4.4 3 7.5 6.6 9.2 11a50 50 0 0 1 3.2 15.1h3v-32.2l2.7.8c1.3.5 2.5 1.5 3.3 3 1 1.4 1.4 3.5 1.4 6.2v75Zm51.6-60.8a12.6 12.6 0 0 1-12.2 7.7h-5.4V137h5.4c3 0 5.5.7 7.6 2.2 2.1 1.3 3.7 3.2 4.6 5.5a18.7 18.7 0 0 1 0 15Z"
    />
    <path
        data-name-part="last1"
        style="--d: 2;"
        fill="currentColor"
        d="M543.2 327c-2-1.4-3.7-3.4-5.2-6.2l-32.1-74.1 6-3.7a52.2 52.2 0 0 1 26.4-9h1.4v-3.1H509v3c1.7.2 2.7.4 3 .8.6.3.3 1-.8 2a67 67 0 0 1-6.4 4.9l-30.5 21.6v-18.7c0-3.1.6-5.4 1.7-6.9a7.4 7.4 0 0 1 4.1-3c1.6-.3 3.5-.5 5.9-.6v-3.1h-57.4v3c2.4.2 4.4.4 6 .8 1.6.4 3 1.4 4 3 1.1 1.4 1.7 3.7 1.7 6.8v75c0 3.1-.6 5.4-1.6 6.9a7.7 7.7 0 0 1-6.2 3.3c-1.3-.6-2.5-1.6-3.6-2.9a29.4 29.4 0 0 1-5.3-10.8c-1-3-1.6-6-1.9-8.9-.2-3-.2-6.5-.1-10.4-.1-5.6-.4-10-1-13.1s-2.3-6-5.1-8.5a27.5 27.5 0 0 0-13.2-5.8 25 25 0 0 0 10.4-2.5 21 21 0 0 0 7.9-6.4c2-2.7 2.9-5.8 2.9-9 0-3.6-1-6.9-3.2-10a21.4 21.4 0 0 0-9.5-7.6c-4.2-2-9.2-2.9-15-2.9H270.5v3h1.7c2.2.4 4 .8 5.3 1.4 1.3.5 2.5 1.4 3.3 2.9 1 1.5 1.4 3.5 1.4 6.3v75c0 2.7-.5 4.8-1.4 6.3s-2 2.5-3.3 3c-1 .4-2.1.7-3.5 1l-2.3-.4c-1.7-.3-3.6-1.2-5.5-2.4-2-1.4-3.7-3.4-5.3-6.2l-32.1-74.1 6-3.7a52.2 52.2 0 0 1 26.4-9h1.5v-3.1h-30.8v3c1.6.2 2.6.4 3 .8.5.3.2 1-.9 2a67 67 0 0 1-6.4 4.9l-30.5 21.6v-18.7c0-3.1.6-5.4 1.8-6.9a7.4 7.4 0 0 1 4-3c1.6-.3 3.6-.5 5.9-.6v-3.1h-57.4v3c2.4.2 4.4.4 6 .8 1.7.4 3 1.4 4 3 1.2 1.4 1.7 3.7 1.7 6.8v75c0 3.1-.5 5.4-1.6 6.9a7.7 7.7 0 0 1-4 2.9 31 31 0 0 1-6 .7v3h57.3v-3h-1.2c-2.1 0-4-.4-5.4-.8a9 9 0 0 1-3.6-3.1c-1-1.6-1.5-3.8-1.5-6.6v-50l3.2-1.8 23 53a12 12 0 0 1 1.1 5.8c-.2 1.3-.8 2.2-1.7 2.7-1 .4-2.4.7-4.3.8h-1.3v3.1H381v-3c-.7-.2-1.3-.2-1.9-.2-2-.2-3.7-.6-5.1-1a8.3 8.3 0 0 1-3.4-3.1c-.8-1.5-1.3-3.6-1.3-6.3v-47.7h7c3.5 0 6 1 7.6 3a14 14 0 0 1 3 7.8c.3 3 .5 7.2.4 12.7-.1 5.4 0 10 .1 13.7.2 3.6 1 7 2.2 10 1.6 4 4 7.1 7 9.3a28 28 0 0 0 11.4 4.2c4.5.7 10 1 16.7 1H436v-.4h50v-3h-1.2c-2.2-.2-4-.5-5.4-1a9 9 0 0 1-3.7-3c-1-1.6-1.4-3.8-1.4-6.6v-50l3.2-1.8 23 53c.9 2.5 1.3 4.5 1 5.8-.1 1.3-.7 2.2-1.7 2.7-1 .4-2.4.7-4.2.8h-1.3v3.1H555v-3l-6.3-.7c-1.8-.3-3.6-1.2-5.6-2.4Zm-208-7.5c0 2.7-.4 4.8-1.3 6.3s-2 2.5-3.4 3c-1.1.5-2.6.8-4.3 1h-.2c-2-.1-3.8-.5-5.2-1a8.3 8.3 0 0 1-3.3-3c-.9-1.5-1.3-3.6-1.3-6.3v-75c0-2.8.4-4.8 1.3-6.3 1-1.5 2-2.4 3.3-3 1.4-.5 3.1-.9 5.2-1v-.1c1.9.3 3.4.7 4.5 1.2 1.4.5 2.5 1.4 3.4 2.9a12 12 0 0 1 1.3 6.3v75Zm51.7-60.7c-1 2.3-2.7 4.2-4.8 5.7-2 1.3-4.6 2-7.5 2h-5.4V236h5.4c3 0 5.6.7 7.6 2.2a12 12 0 0 1 4.7 5.5 18.6 18.6 0 0 1 0 15ZM607.4 281l-15 15-15-15 15-15 15 15Zm-514-15 15 15-15 15-15-15 15-15Z"
    />
    <path
        data-name-part="last2"
        style="--d: 3;"
        fill="currentColor"
        d="M185 330h-76.4v3.1h1.7c2.2.3 3.9.7 5.1 1.3 1.4.5 2.5 1.5 3.4 3 1 1.4 1.4 3.5 1.4 6.2v35.8l-38-49.2L32 330v3.1h1.7c2.1.3 3.9.7 5.3 1.3 1.3.5 2.4 1.5 3.3 3 .9 1.4 1.3 3.5 1.3 6.2v75c0 2.8-.4 4.9-1.3 6.3-.9 1.5-2 2.5-3.3 3.1a28 28 0 0 1-5.3 1.2H32v3h28.4v-3l-2-.2a21 21 0 0 1-5-1 7.2 7.2 0 0 1-3.3-3c-1-1.5-1.4-3.6-1.4-6.3v-74.2l69 88.2h7.5v-89c0-2.8.5-5 1.4-6.4.8-1.4 2-2.4 3.3-2.9 1.3-.6 3-1 4.8-1.1 1.7.2 3 .6 4.2 1.1 1.4.5 2.5 1.5 3.4 3 .9 1.4 1.3 3.5 1.3 6.2v75c0 2.8-.4 4.9-1.3 6.3-.9 1.5-2 2.5-3.4 3.1-1.3.5-3 .9-5.2 1.2H132v3h144.8v-35.7h-3a51.2 51.2 0 0 1-3.2 15.1 23.8 23.8 0 0 1-9.2 11.1c-4.4 3-10.2 4.4-17.6 4.4h-13v-62.8h3.2c2.7 0 5.7 1.1 8.9 3.3 3.2 2 6.3 5 9.3 8.9a62 62 0 0 1 8 13.1l2.5-.4-15.6-47.5-2.6.4c.6 3.8.6 7 .1 9.5a9.2 9.2 0 0 1-3.3 5.7 12.3 12.3 0 0 1-7.3 2h-3.2V335h13c7.4 0 13.2 1.5 17.6 4.6 4.4 2.9 7.5 6.6 9.2 11 1.8 4.4 2.8 9.5 3.2 15.1h3V330H185Zm7 4.4c1.4.5 2.6 1.5 3.4 3 .9 1.4 1.3 3.5 1.3 6.2v75c0 2.8-.4 4.9-1.3 6.3a7 7 0 0 1-3.3 3.1c-1.2.4-2.7.8-4.4 1h-.2c-2-.2-3.8-.5-5.1-1a8.3 8.3 0 0 1-3.4-3c-.9-1.5-1.3-3.6-1.3-6.3v-75c0-2.8.4-5 1.3-6.4 1-1.4 2.1-2.4 3.4-2.9 1.3-.6 3-1 5-1.2h.2c1.8.3 3.3.7 4.5 1.2Zm268 72a22 22 0 0 1-6.5 16.6c-4.4 4.1-10 7-17 8.8a92.6 92.6 0 0 1-47.9-.9A46 46 0 0 1 370 420v12.2h-91.7v-3h1.8c2.1-.3 3.9-.7 5.2-1.2a7.2 7.2 0 0 0 3.4-3c.9-1.5 1.3-3.6 1.3-6.3v-75c0-2.8-.4-5-1.3-6.4-.9-1.4-2-2.4-3.4-2.9-1.3-.6-3-1-5.2-1.3h-1.8v-3h57.4v3h-1.6c-2.2.3-4 .7-5.4 1.3a7.3 7.3 0 0 0-3.4 3c-.8 1.4-1.3 3.5-1.3 6.2v84.7h13a30 30 0 0 0 17.7-4.7c4.4-3.2 7.4-7 9-11.7a64 64 0 0 0 3.4-16.8h7.8c2 7.2 5 13.4 8.8 18.6 3.8 5.1 8 9 12.5 11.7 4.7 2.5 9.4 3.8 14 3.8 3.7 0 7-.4 9.7-1.2 2.7-.8 4.8-1.9 6.4-3.4a7.7 7.7 0 0 0 2.3-5.7c0-2.1-.9-4.3-2.7-6.5-1.8-2.4-4-4.6-6.8-6.7-2.7-2.2-6.5-5-11.3-8.5-7.3-5-13.3-9.3-18-13a60.6 60.6 0 0 1-12-13c-3.3-5-5-10.3-5-16a23 23 0 0 1 5.2-15.4c3.5-4 8.3-7 14.6-8.9a71 71 0 0 1 22-3 77 77 0 0 1 21.5 2.7c6.1 1.8 11 4.2 14.6 7.2l4.4 26h-5.6a68.7 68.7 0 0 0-8.3-17 34.2 34.2 0 0 0-10.5-10.3 20.4 20.4 0 0 0-18.9-2.2 9 9 0 0 0-5.2 4 10.9 10.9 0 0 0-1.8 6.5c0 3 1.1 6.2 3.2 9.2 2.2 3 4.9 5.8 8 8.3 3.3 2.5 7.7 5.7 13.4 9.6 6.5 4.3 11.8 8 15.9 11.3 4 3 7.5 6.6 10.3 10.6 3 4 4.4 8.2 4.4 12.6Zm-3.9-76.4h91.7v35.8H545a49.5 49.5 0 0 0-3.2-15 23.5 23.5 0 0 0-9.2-11.1 31 31 0 0 0-17.7-4.6h-13v24.1h3.2c3.2 0 5.6-.6 7.3-1.9a9.2 9.2 0 0 0 3.4-5.7c.5-2.5.4-5.7-.1-9.5l2.6-.4 15.6 47.5-2.6.4a62 62 0 0 0-7.9-13.1c-3-4-6.1-6.9-9.3-9a16.4 16.4 0 0 0-9-3.2h-3.2v62.8h13a31 31 0 0 0 17.7-4.4c4.4-3 7.4-6.7 9.2-11 1.7-4.5 2.8-9.6 3.2-15.2h3v35.7h-92v-3h1.8c2.1-.3 3.9-.7 5.2-1.2a7.2 7.2 0 0 0 3.4-3c.9-1.5 1.3-3.6 1.3-6.3v-75c0-2.8-.4-5-1.3-6.4-.9-1.4-2-2.4-3.4-2.9-1.3-.6-3-1-5.2-1.3H456v-3Zm198.3 0v3.1l-2 .1c-2 .2-3.7.6-5 1.2a6.4 6.4 0 0 0-3.4 3c-.9 1.4-1.3 3.5-1.3 6.2v89H635l-69-88.1v74.2c0 2.7.5 4.8 1.4 6.2.9 1.5 2 2.5 3.4 3.1a21.1 21.1 0 0 0 7 1.2v3h-28.5v-3h1.7c2.2-.3 4-.7 5.3-1.2a7.2 7.2 0 0 0 3.4-3c.8-1.5 1.3-3.6 1.3-6.3v-75c0-2.8-.5-5-1.3-6.4-1-1.4-2-2.4-3.4-2.9-1.4-.6-3.1-1-5.3-1.3h-1.7v-3h50l38.2 49.3v-35.8c0-2.7-.5-4.8-1.5-6.3a7 7 0 0 0-3.3-2.9c-1.3-.6-3-1-5.1-1.3h-1.8v-3h28.5Z"
    />
</svg>