<svg xmlns="http://www.w3.org/2000/svg" viewBox="0 0 16 16">
    <!-- No-A.I. icon by chriskirknielsen, free to use for your own website -->
    <title>No A.I.</title>
    <path fill="currentColor" d="M10.29 8.48v-4.7h2.07v6.77zM7 8.78H5.86l.16-.99-1.5-1.5-1.3 5.43H5.4l.21-1.39h1.65l.22 1.4h2.2l-.09-.38zm1.43-2.14-.7-2.87H5.57zm3.94 6.71 1-1-9.76-9.74-1 1zM8 15.5c4.25 0 7.5-3.25 7.5-7.5S12.26.5 8 .5A7.37 7.37 0 0 0 .5 8c0 4.24 3.26 7.5 7.5 7.5m0-1.32A6.07 6.07 0 0 1 1.83 8C1.83 4.5 4.5 1.82 8 1.82S14.17 4.5 14.17 8 11.5 14.18 8 14.18" />
</svg>