<svg
    xmlns="http://www.w3.org/2000/svg"
    width="24"
    height="24"
    viewBox="0 0 24 24"
>
    <g id="icon-no-disc">
        <path
            fill="none"
            d="M0 0h24v24H0z"
        />
        <g fill="currentColor">
            <path d="M9.28 14.72a3.86 3.86 0 0 1 5.44-5.44l-1.06 1.06a2.35 2.35 0 0 0-3.32 3.32l-1.06 1.06Z" />
            <path d="M4.02 19.98a11.3 11.3 0 0 1 0-15.96 11.3 11.3 0 0 1 15.96 0l-1.41 1.41A9.3 9.3 0 0 0 5.43 18.57l-1.41 1.41Z" />
            <path d="M.3 20.87 20.86.3l1.41 1.41L1.71 22.3z" />
            <path d="M14.28 12.55a2.33 2.33 0 0 1-1.73 1.73l-1.45 1.45a3.84 3.84 0 0 0 4.63-4.63l-1.45 1.45Z" />
            <path d="M19.82 7a9.3 9.3 0 0 1-1.25 11.57A9.3 9.3 0 0 1 7 19.82l-1.44 1.44a11.27 11.27 0 0 0 15.7-15.7L19.82 7Z" />
        </g>
    </g>
</svg>