<svg xmlns="http://www.w3.org/2000/svg" viewBox="0 0 16 16">
    <path fill="currentColor" d="M8 15.42c-.2 0-.39-.06-.56-.15l-1.8-1.08c-.26-.15-.13-.2-.05-.23a3 3 0 0 0 .8-.37c.05-.02.1-.01.14.02l1.38.83c.05.03.12.03.16 0l5.37-3.15a.16.16 0 0 0 .08-.15V4.85a.18.18 0 0 0-.08-.15L8.07 1.57c-.06-.03-.12-.03-.16 0L2.54 4.7c-.06.03-.08.1-.08.15v6.29c0 .05.02.12.08.15l1.46.86c.8.4 1.3-.07 1.3-.55V5.4c0-.08.06-.16.16-.16h.68c.08 0 .16.06.16.16v6.2c0 1.08-.58 1.7-1.59 1.7-.3 0-.55 0-1.23-.33l-1.42-.82c-.35-.2-.56-.59-.56-1V4.87c0-.41.21-.8.56-1L7.44.72c.33-.19.79-.19 1.12 0l5.37 3.15c.35.2.57.59.57 1v6.28c0 .41-.22.8-.57 1L8.56 15.3c-.17.08-.37.12-.56.12Zm1.65-4.32c-2.35 0-2.84-1.1-2.84-2.02 0-.08.07-.16.17-.16h.7c.08 0 .14.05.14.13.11.73.42 1.08 1.85 1.08 1.13 0 1.61-.26 1.61-.87 0-.36-.13-.62-1.9-.8C7.92 8.33 7 8 7 6.8c0-1.1.92-1.76 2.45-1.76 1.73 0 2.57.6 2.68 1.91 0 .04-.01.08-.04.13-.03.02-.07.05-.1.05h-.7a.16.16 0 0 1-.16-.12c-.16-.75-.58-1-1.68-1-1.24 0-1.38.44-1.38.77 0 .39.17.51 1.84.73 1.66.22 2.44.53 2.44 1.7-.02 1.2-.99 1.89-2.7 1.89Z"/>
</svg>