<svg xmlns="http://www.w3.org/2000/svg" width="24" height="24" viewBox="0 0 24 24">
    <path fill="currentColor" d="M21.9465,10.951c-.4695-4.6111-4.201-8.379-8.8079-8.8878C7.1059,1.3969,2,6.1023,2,12.0002c0,0,0,4.5476,4.0612,4.5476,1.9357,0,2.2079-1.5728,4.6577-1.5728,1.2812,0,1.9962,1.0283,1.9962,1.9357,0,1.6332-1.1191,1.7542-1.1191,3.2664.0029,1.0453.9344,1.8637,1.9672,1.7016,5.1117-.8023,8.9384-5.4771,8.3834-10.9277ZM6.4093,12.7824c-1.2142,0-2.1986-.9844-2.1986-2.1986s.9844-2.1985,2.1986-2.1985,2.1985.9843,2.1985,2.1985-.9843,2.1986-2.1985,2.1986ZM10.6812,7.7169c-.9854,0-1.7842-.7988-1.7843-1.7842,0-.9854.7989-1.7843,1.7843-1.7843s1.7842.7988,1.7842,1.7843-.7988,1.7842-1.7842,1.7842ZM16.3333,5.976c.9348,0,1.6926.7578,1.6926,1.6926s-.7578,1.6926-1.6926,1.6926-1.6926-.7578-1.6926-1.6926.7578-1.6926,1.6926-1.6926ZM15.9773,18.55c-.7382,0-1.3366-.5984-1.3366-1.3366s.5984-1.3367,1.3366-1.3367,1.3366.5984,1.3366,1.3367-.5984,1.3366-1.3366,1.3366ZM18.2994,14.4302c-.8673,0-1.5704-.7031-1.5704-1.5704s.7031-1.5704,1.5704-1.5704,1.5704.7031,1.5704,1.5704-.7031,1.5704-1.5704,1.5704Z"/>
    <!-- <path fill="currentColor" d="M19.5 12.4h-.1l-9 9h9c1.4 0 2.5-1.2 2.5-2.5v-4.1c0-1.4-1-2.4-2.4-2.4ZM19 7.9l-2.9-3a2.4 2.4 0 0 0-3.4 0v12.9l6.3-6.4c1-1 1-2.5 0-3.4ZM9.2 2.1H5.1c-1.3 0-2.4 1-2.4 2.4v12.3a4.5 4.5 0 0 0 9 0V4.5c0-1.3-1.1-2.4-2.5-2.4Zm-2 15.8a1 1 0 1 1 0-2.2 1 1 0 0 1 0 2.2Z"/> -->
</svg>