<svg xmlns="http://www.w3.org/2000/svg" viewBox="0 0 16 16">
<path fill="currentColor" d="M7.19 6.36c.07.15.13.2.13.48s-.05.41-.17.57c-.13.13-.28.23-.45.29-.2.04-.4.07-.61.08H5.6V5.95s.32-.04.57-.04c.43 0 .81.1 1.02.44Zm7.31-2.58v8.44a2.28 2.28 0 0 1-2.28 2.28H3.78a2.28 2.28 0 0 1-2.28-2.28V3.78A2.28 2.28 0 0 1 3.78 1.5h8.44a2.28 2.28 0 0 1 2.28 2.28ZM8.53 6.76c0-.23-.04-.47-.12-.69a1.61 1.61 0 0 0-.41-.6 2.82 2.82 0 0 0-1.83-.57h-1.7c-.04 0-.04.04-.04.08v5.56c0 .04.04.08.08.04h1.05a.15.15 0 0 0 .04-.08V8.75h.53c.42 0 .83-.07 1.22-.2.34-.13.64-.36.85-.65.23-.34.34-.73.33-1.14Zm3.7 2.56c0-.2-.04-.4-.13-.57a2.3 2.3 0 0 0-.44-.45 3.06 3.06 0 0 0-.82-.4 1.45 1.45 0 0 1-.56-.33c-.04-.03-.05-.07-.05-.12 0-.08.01-.12.05-.16a.36.36 0 0 1 .16-.13c.1-.03.21-.04.32-.04.2.01.41.04.61.08.19.05.36.11.53.2.06.04.11.04.16 0l.04-.03v-.98l-.04-.04a4 4 0 0 0-1.18-.16c-.33-.01-.67.06-.97.2-.24.1-.44.27-.57.49a1.22 1.22 0 0 0-.08 1.22c.1.17.24.33.4.44.24.18.5.32.78.41.19.05.37.13.53.24.07.04.12.12.12.2 0 .11-.07.2-.17.25-.14.06-.29.09-.44.08-.22 0-.44-.03-.65-.08a3.53 3.53 0 0 1-.7-.28c-.01-.01-.02-.02-.03 0l-.05.04v.93c0 .04.03.1.09.12a4.5 4.5 0 0 0 1.3.24c.33.02.66-.04.97-.15.24-.12.44-.29.6-.5.13-.22.2-.47.21-.72Z"/>
</svg>