<svg xmlns="http://www.w3.org/2000/svg" viewBox="0 0 16 16">
    <path fill="currentColor" d="M12.17 1.5H3.83A2.33 2.33 0 0 0 1.5 3.83v8.34a2.33 2.33 0 0 0 2.33 2.33h8.34a2.33 2.33 0 0 0 2.33-2.33V3.83a2.33 2.33 0 0 0-2.33-2.33M6.18 9.26h-.82v1.68H3.7V4.95h2.34c1.7 0 2.66.8 2.66 2.13 0 1.56-1.3 2.18-2.52 2.18m4.55 1.76a3.5 3.5 0 0 1-1.7-.37l.01-1.39a3.3 3.3 0 0 0 1.6.51q.45 0 .45-.25c0-.18-.2-.25-.57-.37C9.79 8.94 9 8.65 9 7.7c0-.97.8-1.5 1.95-1.5q.81 0 1.38.24v1.33a3 3 0 0 0-1.34-.36c-.3 0-.4.09-.4.22 0 .16.13.21.56.34.84.25 1.53.52 1.53 1.5 0 .93-.76 1.55-1.95 1.55m-3.77-3.9c0 .51-.36.72-.87.72h-.73V6.37h.77q.81.02.83.75" />
</svg>