<svg xmlns="http://www.w3.org/2000/svg" viewBox="0 0 16 16">
<path fill="currentColor" d="M9.9 10.38H8.7l.47-2.44c.06-.28.04-.47-.06-.57-.1-.1-.3-.15-.6-.15h-.95l-.62 3.16h-1.2l1.08-5.52h1.2l-.29 1.47h1.06c.67 0 1.14.11 1.39.35.25.23.33.6.23 1.13l-.5 2.57Zm5.03-3.5c.32.36.42.87.29 1.53a2.45 2.45 0 0 1-.76 1.35c-.24.23-.5.39-.8.48-.3.1-.66.14-1.12.14h-1.03l-.29 1.47h-1.2l1.07-5.52h2.32c.7 0 1.2.18 1.52.55Zm-1.06.57c-.15-.17-.46-.25-.92-.25h-.82l-.45 2.31h.73c.49 0 .85-.09 1.08-.27.24-.19.4-.49.49-.92.08-.4.04-.7-.11-.87Zm-8.33-.58c.31.37.41.88.28 1.54a2.45 2.45 0 0 1-.75 1.35c-.24.23-.5.39-.8.48-.3.1-.67.14-1.13.14H2.11l-.28 1.47H.63L1.7 6.33H4c.7 0 1.2.18 1.53.55Zm-1.07.58c-.15-.17-.46-.25-.91-.25h-.83L2.28 9.5h.73c.49 0 .85-.09 1.09-.27.23-.19.4-.49.48-.92.08-.4.04-.7-.11-.87Z"/>
</svg>