<svg xmlns="http://www.w3.org/2000/svg" viewBox="0 0 16 16">
<path fill="currentColor" d="M5.596 7.41c.11.122.136.33.078.626-.06.308-.175.528-.347.66-.171.132-.432.198-.781.198h-.528l.324-1.666h.594c.329 0 .549.061.659.182Zm6.11-.183h-.594l-.324 1.666h.528c.35 0 .61-.066.781-.198.171-.132.287-.352.347-.66.057-.296.031-.505-.078-.626-.11-.122-.329-.182-.659-.182Zm3.782 1.128c0 2.179-3.358 3.945-7.5 3.945s-7.5-1.766-7.5-3.945 3.358-3.945 7.5-3.945 7.5 1.766 7.5 3.945Zm-9.109.275a1.79 1.79 0 0 0 .192-.533c.092-.472.023-.839-.208-1.103s-.596-.395-1.098-.395H3.597l-.774 3.981h.867l.206-1.058h.743c.328 0 .597-.034.809-.103a1.53 1.53 0 0 0 .577-.346c.145-.134.263-.281.353-.442Zm3.135.892.36-1.853c.073-.377.018-.649-.165-.818-.183-.168-.516-.252-.998-.252h-.767l.206-1.058h-.86l-.774 3.981h.86l.443-2.281h.688c.22 0 .364.036.432.109.068.073.082.21.043.41L8.64 9.521h.874Zm3.618-2.528c-.23-.263-.596-.395-1.098-.395h-1.668l-.774 3.981h.867l.206-1.058h.743c.328 0 .597-.034.809-.103a1.53 1.53 0 0 0 .577-.346c.145-.134.263-.281.353-.442a1.79 1.79 0 0 0 .192-.533c.092-.472.023-.839-.208-1.103Z"/>
</svg>