<svg xmlns="http://www.w3.org/2000/svg" viewBox="0 0 16 16">
<path fill="currentColor" d="M8 1.25a6.75 6.75 0 1 0 0 13.5 6.75 6.75 0 0 0 0-13.5Zm2.251 5.988c-1.169.452-2.136.38-2.531.25-.452-.149-.717-.446-.781-.614-.027-.066-.069-.178 0-.215.042-.024.058-.019.173.106.109.12.542.438 1.365.345 2.162-.242 3.464-1.92 3.052-2.824-.29-.632-1.955-.916-4.035.12C4.955 5.67 4.816 6.714 4.795 7.11c-.058 1.089 1.347 1.663 2.107 2.473l.029.032s.558-.156 1.233-.121c1.101.057 1.776.794 1.744 1.525-.021.568-.56.803-.659.819-.072.011-.109.013-.12-.043-.008-.037.019-.056.101-.106.082-.053.401-.283.391-.583-.01-.311-.183-1.031-1.555-1.137-.552-.043-.851.072-.851.072.203.455.237 1.355-.232 2.056-.491.73-1.4 1.174-2.287.927-.287-.08-.717-.672-.345-1.496.329-.728 1.644-1.416 1.99-1.586.029-.016.061-.035.096-.053-.691-.603-2.415-1.419-2.656-2.67-.069-.351.096-1.195 1.132-2.162.871-.815 2.083-1.437 3.201-1.836 1.878-.667 3.865-.274 4.17.924.3 1.177-.723 2.585-2.032 3.092Zm-3.82 3.122c.056-.035.141-.085.242-.146.016-.011.027-.016.027-.016l.061-.037a1.692 1.692 0 0 1-.404 1.665c-.391.428-.94.59-1.174.452-.252-.146-.154-.776.327-1.23.292-.276.672-.531.922-.688Z"/>
</svg>