<svg xmlns="http://www.w3.org/2000/svg" viewBox="0 0 16 16">
<path fill="currentColor" d="M7.33.8q.54-.02.9.36l.04.06.12-.01q.81 0 1.28.89.15.28.21.5l.28-.07v12.6l-8.51-1.47S2.7 5.5 2.77 5.2c.05-.38.06-.39.47-.52l1.37-.43c.08-.61.38-1.4.77-2.03.56-.9 1.25-1.4 1.95-1.42m-.1 4.49C5.3 5.4 4.42 6.77 4.5 8.1c.1 1.6 1.7 1.54 1.76 2.51a.56.56 0 0 1-.54.6c-.63.04-1.4-.55-1.4-.55l-.3 1.27s.77.84 2.19.75c1.17-.07 1.98-1.01 1.9-2.4-.12-1.74-2.08-1.9-2.12-2.65-.02-.13 0-.67.85-.73.6-.04 1.1.19 1.1.19l.43-1.67S8 5.24 7.24 5.29m.11-4.03c-1.08.04-2.02 1.72-2.26 2.82l1.22-.37c.14-.7.47-1.45.91-1.93q.27-.27.55-.41a1 1 0 0 0-.42-.1m.71.48q-.3.16-.5.37c-.32.36-.6.9-.74 1.45l1.47-.45c.01-.39-.03-.95-.23-1.37m.49-.04c.16.42.2.92.2 1.27l.7-.21c-.11-.36-.37-.95-.9-1.06m3.02 1.73 1.08.02q.1 0 .13.12l1.58 10.66-3.39.84V2.85z"/>
</svg>