<svg
    xmlns="http://www.w3.org/2000/svg"
    width="107.25"
    height="24"
    viewBox="0 0 107.25 24"
    fill="currentColor"
>
    <title>Smashing Magazine</title>
    <path d="M95.34 7.98a5.57 5.57 0 0 1 10.51-2.6l-2.05.66a3.47 3.47 0 1 0-.22 4.18l-1.22.2-1.48-1.48 3.19-.51 3.18-.52-.5 3.19-.52 3.18-1.52-1.52.14-.87a5.57 5.57 0 0 1-9.51-3.93v.02Zm-64.4 1.66a3.45 3.45 0 0 0 1.39 2.94c.45.32.95.56 1.5.7.56.15 1.15.23 1.74.23.66 0 1.32-.08 1.95-.26.52-.14 1-.39 1.42-.72.37-.3.67-.67.86-1.1.2-.44.3-.91.3-1.4a2.6 2.6 0 0 0-.4-1.49 3.1 3.1 0 0 0-.91-.94c-.34-.22-.7-.4-1.08-.51-.28-.1-.56-.17-.84-.23l-1.67-.42a6.54 6.54 0 0 1-.98-.33c-.2-.07-.35-.2-.47-.36a.97.97 0 0 1-.13-.51c0-.2.05-.4.16-.58a1.4 1.4 0 0 1 .89-.6l.57-.06c.28 0 .56.02.83.07.24.04.47.13.67.26.2.12.36.3.46.5.13.24.2.5.21.77h2.32c.01-.55-.11-1.1-.37-1.6a3.02 3.02 0 0 0-.95-1.1c-.43-.29-.9-.5-1.4-.6a6.53 6.53 0 0 0-1.63-.2c-.5 0-.99.06-1.47.2a4.1 4.1 0 0 0-1.3.6 2.85 2.85 0 0 0-1.3 2.47c-.01.45.08.89.28 1.29.18.33.44.63.74.87.32.24.66.43 1.03.57a21.96 21.96 0 0 0 2.36.67c.34.09.69.2 1.02.33.27.1.52.25.73.45.2.19.3.45.3.72 0 .24-.08.49-.22.68-.14.18-.32.32-.51.41-.22.1-.45.18-.69.22a5.56 5.56 0 0 1-1.62-.04c-.28-.07-.54-.19-.78-.35a1.82 1.82 0 0 1-.51-.62c-.14-.29-.21-.6-.2-.93h-2.3Zm26.55-4.6 1.37 3.98h-2.82l1.45-3.99Zm-5.28 8.08V2.38h-3.37L46.4 9.85l-2.55-7.47H40.5v10.87h2.24l.03-7.65 2.66 7.63h1.84l2.7-7.7v7.72h4.6l.86-2.42h4.06l.82 2.42h2.48L58.72 2.38h-2.45L52.2 13.12Zm9.82-3.48a3.46 3.46 0 0 0 1.4 2.94c.44.33.95.56 1.49.7.57.15 1.16.23 1.75.23.66 0 1.31-.08 1.95-.26.51-.14 1-.39 1.41-.72.38-.3.68-.67.87-1.1.2-.44.3-.91.29-1.4a2.59 2.59 0 0 0-.4-1.49c-.23-.37-.54-.7-.91-.94-.33-.22-.7-.4-1.08-.51a8.2 8.2 0 0 0-.84-.23l-1.66-.42c-.34-.1-.67-.2-.99-.34a1.1 1.1 0 0 1-.47-.37.97.97 0 0 1-.12-.5c-.01-.21.04-.41.15-.59a1.38 1.38 0 0 1 .9-.59 3.93 3.93 0 0 1 1.39.02c.23.04.45.13.66.26.2.12.35.3.45.5.13.24.2.5.23.77h2.31a3.24 3.24 0 0 0-1.32-2.7c-.43-.29-.9-.5-1.4-.6a6.53 6.53 0 0 0-3.1.02 4.1 4.1 0 0 0-1.31.6 2.85 2.85 0 0 0-1.29 2.47c-.01.45.08.89.28 1.29.18.33.44.63.74.87.31.24.66.43 1.03.57a21.96 21.96 0 0 0 2.36.67c.34.09.68.2 1.02.33.27.1.52.25.73.45.2.19.3.45.29.72 0 .24-.07.49-.22.68-.14.18-.31.32-.51.41-.22.1-.45.18-.69.22a3.94 3.94 0 0 1-1.6-.06c-.27-.08-.53-.2-.77-.35a1.84 1.84 0 0 1-.71-1.55h-2.3Zm9.56 3.59h2.39V8.56h4.4v4.69h2.4V2.38h-2.4v4.17h-4.4V2.38h-2.41l.02 10.85Zm10.27 0h2.39V2.38h-2.4v10.85Zm3.48 0h2.24l.03-7.28 4.52 7.28h2.4V2.38h-2.25l-.02 7.31-4.54-7.31h-2.37v10.85Z" />
    <path d="M14.04 15.38a14.1 14.1 0 0 0-3.58-1.93c-.97-.4-1.89-.89-2.74-1.47-2.05-1.43-3.07-3.2-3.07-5.3A5.44 5.44 0 0 1 6.2 2.65L1.83 3.68A2.36 2.36 0 0 0 .06 6.52l3.62 15.65a2.36 2.36 0 0 0 2.83 1.77l1.8-.43-.14-.04c-1.21-.37-2.38-.87-3.47-1.5l1.89-4.17a8.34 8.34 0 0 0 5.32 1.87c2.04 0 3.07-.73 3.07-2.18a2.7 2.7 0 0 0-.94-2.11ZM23.94 17.48 20.3 1.83A2.36 2.36 0 0 0 17.48.06l-2.63.6.9.18c1.18.26 2.32.67 3.4 1.22l-1.53 4.1c-1.15-.99-2.75-1.48-4.8-1.48-1.83 0-2.75.73-2.76 2.2.05.62.38 1.19.91 1.53 1.21.77 2.51 1.4 3.87 1.87a12.1 12.1 0 0 1 3.27 1.81 6.32 6.32 0 0 1 2.33 5.04c.04 1.4-.4 2.77-1.26 3.88l2.99-.69a2.36 2.36 0 0 0 1.77-2.84Z" />
    <path d="M32.42 16.86h.88l2.17 5.6 2.16-5.6h.88v6.37h-.6v-5.51l-2.16 5.51h-.56l-2.15-5.51v5.51h-.62v-6.37ZM43.35 16.86H44l2.49 6.37h-.66l-.77-1.98h-2.85l-.76 1.98h-.64l2.53-6.37Zm-.95 3.87h2.47l-1.21-3.27-1.26 3.27ZM54.17 23.23h-.43l-.08-1.16a2.26 2.26 0 0 1-2.17 1.3c-1.98 0-2.96-1.58-2.96-3.33s.98-3.32 2.96-3.32c1.3-.1 2.44.83 2.62 2.11h-.6a1.96 1.96 0 0 0-2.02-1.6c-1.66 0-2.36 1.41-2.36 2.81s.7 2.81 2.36 2.81c1.39 0 2.2-1 2.17-2.34h-2.13v-.52h2.64v3.24ZM58.9 16.86h.67l2.46 6.38h-.64l-.76-1.99h-2.88L57 23.24h-.64l2.54-6.38Zm-.94 3.88h2.46l-1.2-3.28-1.26 3.28ZM64.05 16.86h4.51v.51l-4.12 5.33h4.21v.5h-4.88v-.5l4.13-5.33h-3.85v-.51ZM71.2 16.86h.6v6.37h-.6v-6.37ZM74.85 16.86h.67l3.65 5.4v-5.4h.6v6.37h-.66l-3.66-5.4v5.4h-.6v-6.37ZM82.83 16.86h4.32v.51h-3.73v2.3h3.5v.52h-3.5v2.52h3.78v.51h-4.37v-6.36Z" />
</svg>