<svg xmlns="http://www.w3.org/2000/svg" viewBox="0 0 16 16">
<path fill="none" stroke="currentColor" d="M4.41 13.51h7.18v.74H4.4zM8.58 1.75H7.42S6.5 5.73 3.23 10.2l2.39 3.62h4.76l2.39-3.62a26 26 0 0 1-4.19-8.45Zm-1.52 6.5a.94.94 0 1 1 1.88 0 .94.94 0 0 1-1.88 0ZM8 1.75v5.57m-4.87-3.7H1.75a.25.25 0 0 1-.25-.25V2c0-.13.11-.25.25-.25h1.38c.13 0 .25.12.25.25v1.38c0 .14-.12.25-.25.25ZM4.68 8A5.5 5.5 0 0 1 2.5 3.63m10.12-.25V2c0-.13.12-.25.25-.25h1.38c.14 0 .25.12.25.25v1.38c0 .14-.11.25-.25.25h-1.38a.25.25 0 0 1-.25-.25Zm.88.25c0 1.79-.86 3.38-2.18 4.38"/>
</svg>