<svg
  xmlns="http://www.w3.org/2000/svg"
  width="24"
  height="24"
  viewBox="0 0 24 24"
>
  <path
    d="M21.7 7.3a6.1 6.1 0 0 0-7.9.2c-.1-1-.5-2.3-1.7-3.7a6.8 6.8 0 0 0-4.4-2.2c-.5-.1-.8.5-.5.8l.4.3c.1.2.2.4.1.6l-.5 1.3c0 .3 0 .5.3.6l1.5.6c.1.1.3.3.3.5v.8L8 7C6 7 4.7 8 3.5 9c-.4.3-.1 1 .4.9l.5-.1c.1 0 .3 0 .4.2l.8 1.3c.1.2.4.3.6.2l1.4-.8h.6l.9.9c.2.2.5.2.6 0l.9-.8c.1-.2.4-.2.6-.1h.1a32 32 0 0 0-4.4 11c0 1 4.5 1 4.5 0 0-4.3 1.1-8 1.9-10.2h.2l.3.6-.3 1.2c0 .2.1.5.4.5l1.2.4c.2 0 .3.2.3.4l.1 1.6c0 .2.3.4.5.4h1.5c.2 0 .4 0 .5.2l.2.4c.2.4.8.3.9-.2.2-1.6.2-3.2-.8-4.8l-1.4-1.7.2-.1.5-.8c0-.2.3-.3.5-.2l1.4.4c.2 0 .4 0 .5-.3l.6-1c0-.2.2-.3.4-.3h.4c.4 0 .6-.6.3-.9Z"
    fill="currentColor"
  />
</svg>