<svg xmlns="http://www.w3.org/2000/svg" width="24" height="24" viewBox="0 0 24 24">
  <g transform="rotate(45 12 12)">
    <g fill="none" stroke="currentColor" >
      <rect width="13" height="13" x="5.5" y="5.5" stroke-width="2" rx="2" />
      <rect width="8.12" height="8.12" x="7.95" y="7.95" stroke-width="1" />
    </g>
    <g fill="currentColor">
      <path d="M15.1 2.15h1v2h-1zm-3.56 0h1v2h-1zm-3.56 0h1v2h-1z"/>
      <path d="M2.18 8.94v-1h2v1zm0 3.56v-1h2v1zm0 3.56v-1h2v1z"/>
      <path d="M8.98 21.86h-1v-2h1zm3.56 0h-1v-2h1zm3.56 0h-1v-2h1z"/>
      <path d="M21.89 15.06v1h-2v-1zm.01-3.56v1h-2v-1zm0-3.56v1h-2v-1z"/>
    </g>
  </g>
</svg>
