<svg xmlns="http://www.w3.org/2000/svg" viewBox="0 0 16 16">
<path fill="currentColor" d="M2.262 8a5.79 5.79 0 0 0 3.263 5.211L2.763 5.643A5.773 5.773 0 0 0 2.262 8Zm9.699-.292c0-.716-.257-1.211-.478-1.597-.294-.477-.569-.881-.569-1.358 0-.532.404-1.028.972-1.028.026 0 .05.003.075.005a5.768 5.768 0 0 0-3.91-1.52 5.783 5.783 0 0 0-4.838 2.61c.136.004.264.007.373.007.606 0 1.543-.073 1.543-.073.312-.018.349.44.037.477 0 0-.314.037-.663.055l2.109 6.272 1.267-3.801-.902-2.472c-.312-.018-.607-.055-.607-.055-.312-.018-.275-.495.037-.477 0 0 .956.073 1.525.073.606 0 1.543-.073 1.543-.073.312-.018.349.44.037.477 0 0-.314.037-.663.055l2.093 6.225.578-1.93c.25-.801.441-1.376.441-1.872Zm-3.807.798-1.737 5.049a5.808 5.808 0 0 0 3.559-.092.43.43 0 0 1-.041-.08l-1.78-4.876Zm4.979-3.284c.025.184.039.382.039.595 0 .588-.11 1.248-.44 2.074l-1.769 5.114a5.789 5.789 0 0 0 2.17-7.783ZM8.052 1.25c-3.722 0-6.75 3.028-6.75 6.75s3.028 6.75 6.75 6.75 6.75-3.028 6.75-6.75a6.758 6.758 0 0 0-6.75-6.75Zm0 13.191c-3.551 0-6.44-2.889-6.44-6.441s2.889-6.441 6.44-6.441 6.44 2.889 6.44 6.44-2.889 6.441-6.44 6.441Z"/>
</svg>