<svg
    xmlns="http://www.w3.org/2000/svg"
    width="512"
    height="512"
    viewBox="0 0 512 512"
>
    <title>An unofficial CSS logo made with love by chriskirknielsen :)</title>
    <g fill="#5a1880">
        <polygon points="433.5544 464.1438 17.2663 464.1438 17.2663 47.8557 433.5544 47.8557 433.5544 206.1613 401.5544 206.1613 401.5544 79.8557 49.2663 79.8557 49.2663 432.1438 401.5544 432.1438 401.5544 404.465 433.5544 404.465 433.5544 464.1438" />
        <path d="M265.8713,330.3928c0,19.8555,15.4658,27.5879,33.0215,27.5879,11.4951,0,29.0508-3.3438,29.0508-18.6006,0-16.0928-22.3623-18.8096-44.3076-24.6621-22.1538-5.8516-44.5166-14.4209-44.5166-42.4268,0-30.5137,28.8418-45.1436,55.8027-45.1436,31.1406,0,59.7734,13.585,59.7734,48.0693h-31.7676c-1.0449-17.9736-13.7939-22.5723-29.4688-22.5723-10.4502,0-22.5723,4.3896-22.5723,16.9297,0,11.4951,7.1064,12.958,44.5166,22.5713,10.8682,2.7178,44.3086,9.6143,44.3086,43.4727,0,27.3789-21.5273,47.8604-62.0732,47.8604-33.022,0-63.9536-16.3018-63.5356-53.0859h31.7681Z" />
        <path d="M405.1877,330.3928c0,19.8555,15.4658,27.5879,33.0215,27.5879,11.4951,0,29.0508-3.3438,29.0508-18.6006,0-16.0928-22.3623-18.8096-44.3076-24.6621-22.1543-5.8516-44.5166-14.4209-44.5166-42.4268,0-30.5137,28.8418-45.1436,55.8027-45.1436,31.1406,0,59.7734,13.585,59.7734,48.0693h-31.7676c-1.0449-17.9736-13.7939-22.5723-29.4688-22.5723-10.4502,0-22.5723,4.3896-22.5723,16.9297,0,11.4951,7.1064,12.958,44.5166,22.5713,10.8682,2.7178,44.3086,9.6143,44.3086,43.4727,0,27.3789-21.5273,47.8604-62.0732,47.8604-33.0215,0-63.9541-16.3018-63.5361-53.0859h31.7686Z" />
        <path d="M186.0493,330.3929c-4.2822,15.3181-15.033,25.4979-32.2649,25.4979-29.4688,0-40.5459-25.0801-40.5459-49.9512,0-26.124,11.0771-51.2041,40.5459-51.2041,16.0762,0,30.1108,10.9769,32.5015,25.5121h31.7859c-4.2288-34.0958-31.6714-53.1-64.2874-53.1-46.189,0-73.3589,34.4844-73.3589,78.792,0,43.0547,27.1699,77.5391,73.3589,77.5391,33.8977,0,58.4456-20.4748,64.5223-53.0858h-32.2574Z" />
        <path
            visibility="hidden"
            d="M383.4767,164.302v20.1592h-12.7402v21.7002h-23.7998v-21.7002h-42.7002v-22.2598l43.6797-53.6191h22.8203v55.7197h12.7402ZM347.6369,164.302v-31.5h-.2803l-24.6396,31.5h24.9199Z"
        />
    </g>
</svg>