<svg xmlns="http://www.w3.org/2000/svg" viewBox="0 0 1200 1200" width="1200" height="1200">
    <title>Aphex Twin logo</title>
    <g>
        <path fill="#231f20" stroke="#967714" stroke-width="20" d="M10 10h1180v1180H10V10z" />
        <g fill="#967714" fill-rule="evenodd">
            <path d="M589.4 267.8a334 334 0 1 0 0 668 334 334 0 0 0 0-668Zm0 645.3a311.4 311.4 0 1 1 0-622.7 311.4 311.4 0 0 1 0 622.7Z" />
            <path d="M808.5 751.7 707 465.9c-11.2-31-34.8-48.6-63.7-48.6H414.5a46 46 0 0 0 0 91.9h65.8c29.5 0 47.8-36 56.2-40a17.5 17.5 0 0 1 25.6 22.2l-.2.5L447 698.5a20.2 20.2 0 0 0 33.3 22.8l61-75.1c5.7-6.3 7-8.3 19.2-8.3a38.1 38.1 0 0 0 31.1-60.1 22.3 22.3 0 1 1 38.5-22.6l133 219c.2.1.3.3.3.4l.1.2a25.4 25.4 0 0 0 45-23.1Z" />
        </g>
    </g>
</svg>