<svg xmlns="http://www.w3.org/2000/svg" viewBox="0 0 1200 1200" width="1200" height="1200">
    <title>Audioslave logo</title>
    <path fill="#661d00" stroke="#d88121" stroke-width="20" d="M10 10h1180v1180H10V10z" />
    <path fill="#d88121" d="M787.3 656.4c-37.1 0-8.8-45.4-8.8-89.9S727 486.7 727 452.1c0-4.8.9-9.1 2.3-13 0 0-24.5-2.5-24.5 33.9s6.6 38.9 6.6 58.5-11.2 22.1-16 22.1c-32.2 0-17.5-157.2-243.5-200.5 0 0 100.7 84.5 100.7 162.4 0 0 .2 20.1-13 20.1s-11.7-16.7-33.3-36.7c-39.5-36.5-149.4-74-151.4-136.2 0 0-26.7 32.5-26.7 71.2 0 81.8 125.7 155.9 125.7 212.8 0 16.1-7 26.3-26.3 26.3-23.7 0-55.4-53.2-55.4-88.5 0 0-9.4 31.4-9.4 69.5 0 108 76 218.3 237.3 218.3 138.4 0 253.1-70.2 253.1-213.6 0-23-5-42.4-10.3-58.7 0 0-18.4 56.4-55.5 56.4Z" />
</svg>
