<svg xmlns="http://www.w3.org/2000/svg" viewBox="0 0 1200 1200" width="1200" height="1200">
    <title>Audioslave logo</title>
    <path fill="#ffeab1" stroke="#dd981d" stroke-width="20" d="M10 10h1180v1180H10V10z" />
    <path fill="none" d="M600 801.9c-119.6 0-176-81.8-176-161.8 0-28.3 7-51.6 7-51.6 0 26.2 23.5 65.6 41.1 65.6 14.3 0 19.5-7.5 19.5-19.5 0-42.2-93.2-97.1-93.2-157.7 0-28.8 19.8-52.9 19.8-52.9 1.5 46.1 83 74 112.2 101 16 14.9 15.1 27.3 24.8 27.3s9.6-15 9.6-15C564.8 479.7 490 417 490 417c167.6 32.2 156.7 148.7 180.6 148.7 3.5 0 11.8-1.9 11.8-16.4s-4.9-16.4-4.9-43.4 18.2-25 18.2-25c-1 2.8-1.7 6-1.7 9.5 0 25.7 38.3 52 38.3 84.9s-21 66.6 6.5 66.6 41-41.8 41-41.8c4 12 7.8 26.4 7.8 43.5 0 106.4-85.1 158.4-187.7 158.4Z" />
    <path fill="#dd981d" d="M787.3 656.4c-37.1 0-8.8-45.4-8.8-89.9S727 486.7 727 452.1c0-4.8.9-9.1 2.3-13 0 0-24.5-2.5-24.5 33.9s6.6 38.9 6.6 58.5-11.2 22.1-16 22.1c-32.2 0-17.5-157.2-243.5-200.5 0 0 100.7 84.5 100.7 162.4 0 0 .2 20.1-13 20.1s-11.7-16.7-33.3-36.7c-39.5-36.5-149.4-74-151.4-136.2 0 0-26.7 32.5-26.7 71.2 0 81.8 125.7 155.9 125.7 212.8 0 16.1-7 26.3-26.3 26.3-23.7 0-55.4-53.2-55.4-88.5 0 0-9.4 31.4-9.4 69.5 0 108 76 218.3 237.3 218.3 138.4 0 253.1-70.2 253.1-213.6 0-23-5-42.4-10.3-58.7 0 0-18.4 56.4-55.5 56.4Z" />
</svg>
