<svg xmlns="http://www.w3.org/2000/svg" viewBox="0 0 1200 1200" width="1200" height="1200">
    <title>Audioslave logo</title>
    <path fill="#ffeab1" stroke="#bc1a31" stroke-width="20" d="M10 10h1180v1180H10V10z" />
    <path fill="none" d="M600 801.9c-119.6 0-176-81.8-176-161.8 0-28.3 7-51.6 7-51.6 0 26.2 23.5 65.6 41.1 65.6 14.3 0 19.5-7.5 19.5-19.5 0-42.2-93.2-97.1-93.2-157.7 0-28.8 19.8-52.9 19.8-52.9 1.5 46.1 83 74 112.2 101 16 14.9 15.1 27.3 24.8 27.3s9.6-15 9.6-15C564.8 479.7 490 417 490 417c167.6 32.2 156.7 148.7 180.6 148.7 3.5 0 11.8-1.9 11.8-16.4s-4.9-16.4-4.9-43.4 18.2-25 18.2-25c-1 2.8-1.7 6-1.7 9.5 0 25.7 38.3 52 38.3 84.9s-21 66.6 6.5 66.6 41-41.8 41-41.8c4 12 7.8 26.4 7.8 43.5 0 106.4-85.1 158.4-187.7 158.4Z" />
    <path fill="#bc1a31" d="M738.9 641.8c-27.6 0-6.5-33.6-6.5-66.6S694 516 694 490.3c0-3.5.6-6.7 1.7-9.6 0 0-18.2-1.8-18.2 25.1s4.9 28.8 4.9 43.4-8.3 16.4-11.8 16.4c-23.9 0-13-116.5-180.6-148.7 0 0 74.7 62.7 74.7 120.5 0 0 .1 14.9-9.6 14.9s-8.8-12.4-24.8-27.2c-29.2-27.1-110.8-55-112.2-101 0 0-19.8 24-19.8 52.8 0 60.6 93.2 115.5 93.2 157.7 0 12-5.2 19.5-19.5 19.5-17.6 0-41.1-39.4-41.1-65.6 0 0-7 23.3-7 51.6 0 80 56.4 161.8 176 161.8 102.6 0 187.7-52 187.7-158.4 0-17-3.8-31.4-7.7-43.5 0 0-13.6 41.8-41.1 41.8Z" />
    <path fill="none" stroke="#bc1a31" stroke-width="3" d="M600 264.3a335.7 335.7 0 1 0 0 671.4 335.7 335.7 0 0 0 0-671.4Z" />
</svg>