<svg xmlns="http://www.w3.org/2000/svg" viewBox="0 0 1200 1200" width="1200" height="1200">
    <title>blink-182 logo</title>
    <path fill="#e35faa" stroke="#2a2625" stroke-width="20" d="M10 10h1180v1180H10V10z" />
    <path fill="#2a2625" d="M438.2 727c-.4-1.7-4-4-4.7-6l2-.3c.2-.1-2.6-3.6-.7-4l3.3 4.7-.3-5.3-22.4-32.4c-1-2.1.1-4.4-.7-6.6-1-2.2-8-8-8.1-8.9l2.3-4.6-3.7-4.1c-11-54.2-15-108 8-159.7 14.9-34 36.7-66.9 63.7-92.3 0-2.8-1-4.3-3.7-4.3l76.3-38.7 1.4-3.3 50.6-10.5-2-1.4c13-.2 26.4-3.8 39.3-4.6 36.5-2.3 82.6 13.1 114.5 30.3a213.8 213.8 0 0 1 81.8 78.8c18.6 30.3 25.6 66.5 36.9 100 .4 1.8 2.4.3 2.5.4.2.2.7 3 .7 3.6 5.2 74.3-26.8 155.3-83.3 203.6-5.3 4.5-12.3 8-15.8 13.9L717.5 808l-9.6 32.3-5.4-22.6c-2.2-4.4-12.8.9-16.4 1.8-26 6.8-53 8.3-79.3 3l-.7 4.6-.8-3.1c-32-13.2-65.4-23.6-95-41.5a520.6 520.6 0 0 1-33.3-21.6c-12.7-9-24.5-21-31.6-34.9l-1.3.4c-2.2 3 5 7.6 5.3 10.8l-10-7.9c0 7.8-.3 15.7-.6 23.5 0 .8.5 2.4-.6 2.3v-28Zm349-305.6L786 419a251 251 0 0 0-78-59.2l20.4 12.3c22 13.5 39.6 32.3 59 49.2Zm-66-17.9c-4-.4-9.3-6-12.6-7-8.9-2.3-19.1-4.8-28.3-6.7a267 267 0 0 0-97-.8L499 420.4C474.3 442 444.2 470 442 505c-2.6 44.8 1.8 92-1.3 136.9-1.8 44.4 30 79.8 63 105a237 237 0 0 0 99 46.3l-3.3-44.9c-.4-1.2-13.6-4.7-16.1-5.7-70-25.6-120.7-94.6-126.6-168.8-.8-10.2-.6-36.3 4.6-44.8.4-.7 1.8-.6 2.7-1.4 1.8-1.8 2-3.9 5-4.3 4.5-.8 9.2.3 13.4 2-3.8 23.7-6.4 45.5-2.4 69.4 9 53.4 43.3 91.1 84.8 122.8 20.8 16 62 20.1 87 15 45.8-9.3 76.3-40.8 87.7-85.5 1.9-7.6 7-35.4 4-41.4-10.5-12.1-19-28-29.4-40-.5-.7-1.5-2.2-2.5-2-16 14.6-27.5 33.2-44 47.2-6.7 5.7-14.8 13-23.8 13.5 8.4-14.4 16.2-29.3 26.2-42.8 9.5-13 20.4-24.2 31.8-35.5-8.5-16.9-19.2-34.2-24.6-52.5-8.1-27.4-7.7-57.2 2.2-84.2l18.2-3.7c.3 0 1.5 2.7 1.6 3.2.6 4-3 16-3.8 21-5 36.2 6.4 69.3 24.4 100l83.3-64.4-15.6-24.7-48.5-41 .3 3.3-3.6-2 3.3 6.6-22.2-9.2-1 .3 5.3 5ZM607.4 792.7c15 1.8 30 4.2 45.2 3.4 116.7-6.7 215.9-105.5 193.8-226.2-5.4-30-13.8-60-29.2-86.4L730.4 548l27.9 41.1c7-1.9 4.2 6.3 5.5 10 2.8 8.2 17.4 22.6 21.1 31.1.8 1.8-.3 3 0 4 .6 1.6 4.2 3 2.3 6-.7.5-10.7-6.1-12.4-6.6-1.7-.4-3 .7-4.3.5-1.4-.4-5.9-5.1-7.7-5.9-1.3 34-15.6 68.6-42 90.5-19.3 16-47 26.8-71.6 30.9a97.7 97.7 0 0 1-27.5.8l-5 11.3c-1.6 1.1-4-5.5-4.3-5.3l-5 36.3ZM438 663.9c.3-32 .6-64 .7-96.2 0-16.8.5-32.5-1.4-49.4-.2-1.7-2-17-2.9-17-5.1 27.4-13.7 54.4-15.5 82.3a506.5 506.5 0 0 0 18 78.5c.3.6.2 2 1.1 1.8Zm199-255.4-76.3 76.3c-8.4-19.2-13-40-23.8-58.1l-1.2-.6-12.7 5.8c-1.7 2.5 4.8 27.2 6.1 31.6 4.2 14 10 27.4 15.8 40.8l-24.9 28.4 2 2-21 31.8c-.4.9-2.1 4.5-.5 4.9 3.7.8 46.5-47.4 53.6-52.2 19.7 16.8 34.2 42 60.8 48.9 1.2-1.3-1.5-2.2-1.6-3.3 3.6 0 14.4 6.2 16.8 2.6-.7-1.8-2.8-3.6-4.3-5-10.7-10-22.7-19-32.7-30-2.9-3.1-22.8-28.2-22.7-30l91.2-90 2.6-16.8c-11.7-3.5-18.7 7-27.1 12.9Z" />
    <circle cx="600" cy="601.4" r="331.1" fill="none" stroke="#2a2625" stroke-width="12" />
    <path fill="#2a2625" d="m426.9 362.2-42.7-41.8 20.9-21.3-103.8-1.3 2 108.4 20.7-22.6 43.6 41 59.3-62.4zM339.6 462.3l-56.7-18.9 9.4-28.2-93.9 44.3 49.3 96.5 8.8-29.3 57.1 17.7 26-82.1zM305 590.5l-59.3 7.9-3.9-29.5-65 81 86.7 65.1-5-30.2 59.1-9.1-12.6-85.2zM330 721l-49.8 33-16.4-24.8-22.9 101.3 106.4 20.6-17.7-25 49.1-34.1-48.7-71zM409.8 827.2l-30.3 51.6-25.7-15.1 23.9 101 104.6-28.1-26.9-14.7 29.3-52.2-74.9-42.5z" />
</svg>