<svg xmlns="http://www.w3.org/2000/svg" viewBox="0 0 1200 1200" width="1200" height="1200">
    <title>Carpenter Brut logo</title>
    <path fill="#3a0404" stroke="#d04a41" stroke-width="20" d="M1190 10v1180H10V10z" />
    <path fill="#d04a41" d="m837.2 539.7 50.1 154.1-67.9 208.6-202 .3 61.4-44.7h108.3L846 680.3 818 598.4l19.2-58.7ZM665.5 392.5l86.5-1.2L902.8 502l-33.5 103 23.5 72.3L955 485.1 777.6 356h-162l49.9 36.4Zm-243 81.4 25.6-82.6L600 282l87.6 63.7h76L600 227.1 422.5 356l-50.1 154 50-36.1Zm2.3 256.3-70.7-50L297.2 502l87.6-63.6 23.5-72.3L245 485l67.7 208.6 131 95.3-18.9-58.8Zm244.5 77L600 858.8l-187.1-1-33.5-103-61.5-44.6 62.7 192.1 219.3.1L731 807.3l-61.7-.2ZM706 433 600 356h-84l-49.3 35.4H600l56 41.7 50-.1Zm7.1 88.9L600 440.4h-55.8L513 463H600l123.2 89.6-10-30.6Zm-152.9-53.4L447.8 551l-17.2 53 11.8 36.7 26.9-82.8 123.2-89.4h-32.2Zm-98 129L506 729.8l45.1 32.7 38.5.2-70.4-51.2-47-144.8-10 30.6Zm92.3 133 139.5-.6 45-32.9 12.1-36.5-70.4 51.1H528.5l26 18.9Zm155-46.7L752.3 551l-17.3-53-31-22.9 26.8 82.8-47 144.8 26-18.9Zm-63.8 51.4-45.8 34H492l40 29h68l86.5-62.9h-40.7Zm96.6-136.6 18.2 54-33.4 102.8L767 726l21.1-64.6-33-101.7-12.7 38.8ZM642.2 464.5l57-.7 87.5 63.6-15.5-47-55-40H609.3l33 24Zm-158.5 53.8 17-54.4 87.5-63.6-49.5.3-55 39.8-33 101.7 33-23.8Zm2.2 167.3-46.4-33L406 549.8l-15 47.1 20.9 64.7 86.5 62.8-12.5-38.8Zm-12.4-237.8-106 77.1-26 79.9 18.6 57.8 41.1-126.7 57-40.5 15.3-47.6Zm-57.7 225.7 40.5 124.8 68 49.2 60.7.3-107.8-78.3-20.9-66.7-40.5-29.3Zm196.8 124.7h131.2l67.8-49.4 19-57.6L723 769.5l-70-.8-40.3 29.5ZM792 649.5l40.5-124.7-26-79.8-49-35.9 41.3 126.7-22.4 66.2 15.6 47.5Z" />
</svg>