<svg xmlns="http://www.w3.org/2000/svg" viewBox="0 0 1200 1200" width="1200" height="1200">
    <title>Daft Punk's Alive logo</title>
    <g stroke="#5cafcc">
        <path fill="#09133d" stroke-width="20" d="M10 10h1180v1180H10V10z" />
        <g fill="none" stroke-width="10">
            <path d="M547 356H360L232 581h184l141-242 10 18" />
            <path d="m262 565 108-190h145L407 565H262zM443 502l-73-127M479 439l-36-64M407 565l-72-128M335 565l-36-64M336 565l107-190" />
            <path d="M610 600v285M553 586 354 711M597 597 445 773M610 647l-160-49M610 677l-209-66M610 719l-267-92M610 600l141-34-141-245-142 245 142 34z" />
            <path d="m738 543 20-6-148-251-149 251 20 6M672 356h187l128 225H803L662 339l-10 18" />
            <path d="M957 565 849 375H704l108 190h145zM776 502l73-127M740 439l36-64M812 565l72-128M884 565l37-64M884 565 776 375" />
            <path d="m734 570 6 19 216 61-346 235-347-235 216-61 7-19M666 586l199 125M623 597l151 176M610 647l159-49M610 677l208-66M610 719l266-92M610 563l85-20-85-148-86 148 86 20z" />
            <path d="m557 485 53 13 52-13M574 455l36 8 35-8M557 485l53-13 52 13" />
        </g>
        <path fill="none" stroke-miterlimit="5" stroke-width="5" d="m217 642 159-41H200l151-265h185l20-36 11 18 43-72 42 72 11-18 21 36h184l151 265H844l158 41-392 269-393-269z" />
    </g>
</svg>