<svg xmlns="http://www.w3.org/2000/svg" viewBox="0 0 1200 1200" width="1200" height="1200">
    <title>deadmau5 logo</title>
    <path fill="#11112d" stroke="#a52121" stroke-width="20" d="M1190 10v1180H10V10z" />
    <path fill="#a52121" d="M951.7 429.1a128.1 128.1 0 0 0-21.3-31.7c-24.1-26.5-57.2-43-92.8-46.6-45.7-6-91.9 8-126.5 38.5a205 205 0 0 0-67.5 114.8l-2 9.8c-10.8-2-18.5-3-32.8-3s-22 1-32.9 3c-.7-3.5-1.2-6.7-2-9.8a205 205 0 0 0-67.5-114.8A160.2 160.2 0 0 0 380 350.8c-35.6 3.5-68.7 20.1-92.8 46.6a128 128 0 0 0-21.3 31.7 144.6 144.6 0 0 0-13 75.9 162.7 162.7 0 0 0 77 124c24.2 15 51.4 24.4 79.7 27.6 9.9 1.2 20 1.7 30.4 2.5 0 .6-.7 24.5-.2 35.8 1.3 20.5 6.7 40.6 15.8 59 25.7 53.8 77.1 96.6 153.3 96.6s127.5-42.8 153.2-96.6a154.6 154.6 0 0 0 15.8-59c.5-11.3-.2-35.2-.2-35.8 10.5-.8 20.5-1.3 30.4-2.5a194.2 194.2 0 0 0 79.7-27.5 162.6 162.6 0 0 0 77-124.1c2.7-26-1.8-52.2-13-75.9Zm-274 124c6.6-2.2 10.9-2.4 15.1-2.4a55.3 55.3 0 0 1 52.3 70.9 28.5 28.5 0 0 1-11.7 17.9c-6.9 4-15 5-22.6 2.7a74.5 74.5 0 0 1-52.1-57.6c-3.5-14 5.3-27 19-31.5Zm-153-2.4c4.2 0 8.5.2 15.1 2.4 13.7 4.4 22.5 17.6 19 31.5a74.5 74.5 0 0 1-52 57.6 29.3 29.3 0 0 1-22.7-2.7 28.5 28.5 0 0 1-11.7-18 55.3 55.3 0 0 1 52.3-70.8Zm233.7 175.1a146.9 146.9 0 0 1-75.2 82c-23.2 12-50.8 18.7-74.4 18.7s-51.3-6.8-74.5-18.7a146.9 146.9 0 0 1-75.2-82 119 119 0 0 1-7.4-38.3c52.3 3.8 104.7 5.5 157 5 52.4.5 104.8-1.2 157-5-.3 13-2.7 26-7.3 38.3Z" />
</svg>