<svg xmlns="http://www.w3.org/2000/svg" viewBox="0 0 1200 1200" width="1200" height="1200">
    <title>Deftones’s White Pony album logo</title>
    <path fill="#a0a2a6" stroke="#f9faf5" stroke-width="20" d="M1190 10v1180H10V10z" />
    <path fill="#fff" d="m827 576-3-6 12-10c-6 1-9 5-15 6-18 3-48-8-62-20-8-7-14-17-21-25-23-24-59-53-95-45-39 7-74 53-107 9-5-6-14-19-11-26 2-5 7-5 9-9-10-2-21-8-20-19l12-2c-20 2-28-22-49-19 1-14-1-23-11-33-4 5 2 15-3 19-4 4-15 0-18 7-6-7-9-17-20-18-2 9 7 21 6 29-1 6-10 17-11 23s2 15 1 24c0 6-3 16-5 22-5 12-14 21-7 35 12 26 30 0 40-13 4-4 6-9 9-13 1-2 0-3 4-2 2 31 23 67 14 98-1 5-6 11-7 15-3 16 10 30 14 45 3 13 3 26 7 39 7 21 10 22 13 46 4 33 8 29 26 53l12 17c2 4 0 10 3 15 1 4 12 24 14 26s3 4 6 4c15-3 12-24 6-35-3-2-7 5-12 2-2-1-7-13-6-14 6 2 10 3 16 1 3-1 3-4 5-4 4-2 13 0 15-7-3-5-10-13-16-13s-6 10-8 10l-13 2c-14 0-11-25-13-33 0-4-4-6-4-11 0-4 15-28 18-35 7-15 13-32 16-48 8 2 22-1 28 2l23 24c15 14 24 12 26 36l2 41c0 8-5 39-3 42 1 1 4 1 5 3 4 6-7 30-7 38 2 8 27-4 29-12 1-6-9-14-4-21h4c2-8-2-18-1-25 1-9 10-32 14-41 3-5 14-20 14-24 2-6-3-15-4-22-2-16 3-37 5-54v-18c0-3 12-16 15-24 1-5 3-23 8-22 7 1 5 15 7 21 5 15 35 33 50 29 4-1 6-5 10-7 6-2 29-3 25-14-1-4-10-5-8-12 1-2 11-5 15-8 6-6 4-15 13-12 1-5-4-4-7-7ZM532 702c0 5-3 13-5 18-5-3-11-16-11-21v-24c5-1 12-3 16 1v26Zm145 0-1 27c0 14-8 39-14 52-1 3-4 11-7 10-2-2 2-59 3-67 1-4 1-9 3-12 1-5 7-11 7-16-1-10-36-32-36-49 0-6 24-18 27-24v27c3 19 20 34 18 52Z"/>
</svg>