<svg xmlns="http://www.w3.org/2000/svg" viewBox="0 0 1200 1200" width="1200" height="1200">
    <title>Foo Fighters logo</title>
    <path fill="#0a0e21" stroke="#8e1616" stroke-width="20" d="M10 10h1180v1180H10V10z" />
    <g fill="#8e1616">
        <path d="M657.3 711.1c-19.7 0-30.6-9.3-30.6-30.5h200.5c0 15.2-16 30.5-30.5 30.5H657.3Z" />
        <path d="M865 535.3c0-7.5-6.1-13.5-13.6-13.5H675c-52.8 0-91 46.8-91 85.3 0 20.2 7.6 38.9 14.9 52 4.1 7.5 15.3 6 17.4-2.3 22.2-88 71.8-103.2 105.8-103.2h76S713.8 585.1 684 695.8c-29.7 110.8-94.2 96-94.2 96-4.6 0-9.6-2.3-14.5-5.7-3.5-2.5-8.2 1-6.8 5 6.2 18.1 19.2 35.9 46.5 35.9 55.8 0 116.3-42.4 141.3-133.7 25-91.2 62.4-122.3 70.4-129.8 8-7.5 29-15.5 29-15.5 5.4-1.8 9.2-6.8 9.2-12.7Z" />
        <path d="M473.5 577.5c-19.6 0-30.5-9.4-30.5-30.6h200.5c0 15.3-16 30.6-30.6 30.6H473.5Z" />
        <path d="M681.2 401.6c0-7.4-6-13.5-13.5-13.5H491.3c-52.9 0-91 46.8-91 85.3 0 20.3 7.6 39 14.9 52 4 7.6 15.2 6 17.3-2.3 22.2-88 71.9-103.2 105.9-103.2h76S530 451.4 500.2 562.2c-29.7 110.8-94.2 96-94.2 96-4.6 0-9.6-2.4-14.4-5.8-3.6-2.4-8.2 1-6.8 5 6.2 18.2 19.2 36 46.5 36 55.8 0 116.3-42.5 141.3-133.7 25-91.3 62.4-122.4 70.3-129.9 8-7.5 29-15.4 29-15.4 5.4-1.8 9.3-6.9 9.3-12.8Z" />
        <path d="M605.6 252.2a342.1 342.1 0 1 0 0 684.3 342.1 342.1 0 0 0 0-684.3Zm0 658.4a316.2 316.2 0 1 1 0-632.5 316.2 316.2 0 0 1 0 632.5Z" />
    </g>
</svg>