<svg xmlns="http://www.w3.org/2000/svg" viewBox="0 0 1200 1200" width="1200" height="1200">
    <title>Linkin Park logo</title>
    <path fill="#071f28" stroke="#ca62ad" stroke-miterlimit="10" stroke-width="20" d="M1190 10v1180H10V10z" />
    <path fill="#ca62ad" d="M793.5 789.7Zm9.7-26c-1-19-17.3-33.5-36.3-32.4h-1.4l-194.2.2c-13 0-25 7.5-30.8 19.3l-31.3 64a34.4 34.4 0 0 0 22.4 48.4 271.3 271.3 0 0 0 261.9-73.5c6.7-7 10.3-16.4 9.7-26Zm-356.6-32.5a39.2 39.2 0 1 0 0 78.4 39.2 39.2 0 0 0 0-78.4Zm116.8-346.4a34.4 34.4 0 0 0-40.2-48.6 273.3 273.3 0 0 0-119.5 71.9 272.2 272.2 0 0 0-60.3 286.7 34.4 34.4 0 0 0 32 22.3h.2c15.8 0 27-10.3 33-24.1l154.8-308.2Zm63 303.1 54 .2a34.4 34.4 0 0 0 30.8-50l-27.5-54.4a34.4 34.4 0 0 0-30.7-19h-.2c-13 .2-25 7.6-30.7 19.3l-26.6 54.4a34.3 34.3 0 0 0 30.8 49.5Zm342.5-89a370.1 370.1 0 1 1-740.2 0 370.1 370.1 0 0 1 740.2 0Zm-52.8 0a317.2 317.2 0 1 0-634.5 0 317.2 317.2 0 0 0 634.5 0Zm-126 96.6ZM669.4 334.9a34.4 34.4 0 0 0-39.7 17.7l-28.5 56.5a34.4 34.4 0 0 0 42.1 48 26.6 26.6 0 0 1 32.5 13l113 222.9 1.1 2.4a34.4 34.4 0 0 0 32 21.8h.3c14.2-.2 26.8-9 31.9-22.3a271.8 271.8 0 0 0 17.4-96.3c0-121.2-85-232-202.1-263.7Z" />
</svg>