<svg xmlns="http://www.w3.org/2000/svg" viewBox="0 0 1200 1200" width="1200" height="1200">
    <title>Moving Mountains logo</title>
    <path fill="#004d63" stroke="#fcf6de" stroke-miterlimit="10" stroke-width="20" d="M10 10h1180v1179.97L10 1190V10z" />
    <g fill="none" stroke="#fcf6de" stroke-miterlimit="2" stroke-width="10">
        <circle cx="600" cy="600" r="371.47" />
        <path d="M778.41 867.73A320.2 320.2 0 0 1 600 921.7a320.2 320.2 0 0 1-178.41-53.97m-54.21-45.51C312.2 764.46 278.3 686.19 278.3 600c0-177.67 144.03-321.7 321.7-321.7S921.7 422.33 921.7 600c0 86.19-33.9 164.46-89.08 222.22" />
        <path d="m744.81 305.14-114.1 298.91-119.14-298.91H374.02" />
        <path d="m455.19 305.14 114.1 298.91 119.14-298.91h137.55m0 0H687.76m145.92 6.08 82.59 483.71M366.32 311.22l-82.59 483.71" />
        <path d="m785.86 921.7-52.41-379.74-137.71 320.87h-58.09L409.62 541.96l-51.26 340.18" />
        <path d="m414.14 921.7 52.41-379.74 137.71 320.87h58.09l128.03-320.87 51.27 340.18" />
    </g>
</svg>