<svg xmlns="http://www.w3.org/2000/svg" xmlns:xlink="http://www.w3.org/1999/xlink" viewBox="0 0 1200 1200" width="1200" height="1200">
    <title>Muse logo</title>
    <path fill="#001727" stroke="#00c2f6" stroke-miterlimit="10" stroke-width="20" d="M10 10h1180v1180H10V10z"/>
    <path fill="#00c2f6" d="M308.4 477.3h583.2v32H308.4v-32Zm0 213.5h583.2v31.9H308.4v-32Zm21.3-153.2V663h32v-94.4L391 663h35.3l29.4-94.4V663h31.9V537.6h-53l-26 82.2-26-82.2h-53Zm189-.6v80.4c0 11.3 2.5 24.7 12.4 34.7 10 10.1 24.6 14.3 42.7 14.3s32.9-4.2 42.8-14.3a48 48 0 0 0 12.3-34.7V537h-33.4v81.4c0 12-9.7 21.9-21.7 21.9s-21.6-9.8-21.6-22V537h-33.4Zm262.3.8v126h88.9v-23.4h-57v-29.7h52.8v-23.5h-52.8V561h57v-23.2h-89Zm-123.5 34.7c0 47.6 58.7 35.5 58.7 57.2s-38.3 8.2-54.7 3.7l-2.9 28.4c30 7.8 93.2 12.6 93.2-36.4s-58.6-30.6-59.6-52.9c-1-22.3 39.4-10.2 50.4-7.3l1.7-25.4c-16.2-4.4-86.8-15-86.8 32.7Z"/>
</svg>