<svg xmlns="http://www.w3.org/2000/svg" viewBox="0 0 1200 1200" width="1200" height="1200">
    <title>Pendulum logo</title>
    <path fill="#161616" stroke="#258088" stroke-width="20" d="M10 10h1180v1180H10V10z" />
    <path fill="#258088" d="M968.3 606v10a369.5 369.5 0 0 1-354 351.5c-1 0-11.7.5-11.7 0v-11.8c0-.9 5.5-1.7 6.8-1.8a480 480 0 0 0 66-8 353.4 353.4 0 0 0 278-322.5l.7-17.4c4.7-.4 9.5-1.6 14.2 0Zm-.8-23c-1.5-31.1-6.4-66.9-16.8-96.4-2.2-6.2-3.8-4.6-8.8-1.9a433.5 433.5 0 0 1 13.4 52.1c3.3 18.7 4.9 37.5 5.9 56.4h7v-8.5l-.7-1.8ZM594.8 956.3c0-.1-.8-1.7-1.2-1.8l-5.6-.7c-73.5-5.2-138.7-24-197.8-69-1.5-1.1-2.6-.3-1-2.5.5-.7 3.4-4.6 3.9-4.6A334.2 334.2 0 0 0 534 939.5c1.7-.1 3.9-14.8 3.1-15.5l-3-.1c-46.5-9-94-32.4-132-60-2.7-2-10.3-9.3-13-8.6-2.2.6-6 7.2-7.8 9.3-.8 1-6 7-6.4 7.2-1.3.7-6.3-3.6-6.3-4.3 0-2.2 11.5-11.7 13.3-15 3-5.4-6.5-11-9.8-14.2-84.4-81.8-120.2-196-94.3-312 23.4-104.7 98.2-188.8 195.5-231.4 1.9-.8 10-3.4 10.4-4.6.6-1.8-3.2-13.7-5.4-14.4-2-.5-9.6 3-12 4.1a342.7 342.7 0 0 0-91.7 57c-6-4-10.3-10.2-15-15.6a370 370 0 0 0-124 231c-27.5 216.3 134.3 404.2 350.3 415 1.3.1 8.6.4 8.9 0 .4-.3 0-9.4 0-11ZM376 603.2c-.5 0-1 1.1-1 1.7-.5 2.4-.2 8-.1 10.7a216.1 216.1 0 0 0 33.9 104.2c1.7 2.6 12.1 16.5 12.3 17.6 0 .4 0 .7-.2 1L405.6 750c-4.2 3.8.4 7.7 3.1 11 74.9 91.8 211 115.3 313.9 57 4.7-2.6 32.7-20 33.6-23.3.6-2.3-7.4-12.5-10.1-12.2-7 4-13 9.3-19.8 13.7a232 232 0 0 1-298.8-39c-1-1-.9-2 0-3 .7-.8 4.2-3.4 5-2.8a229.6 229.6 0 0 0 101.8 64.8C671.4 857 813.5 763 824.6 619.9c.2-2.8-.2-5.7 0-8.6 0-1.1 1.3-5.5.7-6l-4.6-.7c-1.8-.2-10.3-.1-11 .8-.6.7-1.2 14.7-1.6 17.2-14.2 111.7-107 193.1-220.8 186.2-104-6.4-184-86.3-196-189-.2-2.5-.7-16.2-1.4-16.6-.6-.4-11.9 0-14 0Zm310.2-108.9c8 6.6 13.1 13.2 19.9 20.6 1.5 1.6 2.6 3.2 5 2.9 2.4-.4 9.7-8 12.1-10a28 28 0 0 1 5-3.5c1 .2 10.3 14.7 11.6 16.8 32.8 56.5 26.3 134.1-17.3 183.1-2.8 3.1-14.1 13-15 15.6-.7 2.2.2 3.5 1.2 5.3 1.4 2.4 5.8 8 8.6 7.4 2-.4 10.3-9.1 12.3-11.2 77.3-82.2 57.7-215-38.1-272.8-60.1-36.3-135-34-192.7 5.6-2 1.4-7.7 4.8-8 7.1-.2 2.8 7.4 12.6 11 11.6 2-.5 11.1-8.2 14-10.1 47.4-30.3 114.3-30.7 162.7-2.7a207 207 0 0 1 38.3 30c.5.6.3.9 0 1.5-.1.2-4.7 4.2-5 4.2-.5 0-6.2-6.4-7.4-7.5-24-21.4-55.3-38-88-40.2-1 0-12.4-.6-12.4 0v15a146 146 0 0 1 82.2 31.3Zm230.5 111c2.4 0 .4-9.3.3-11-2.7-93.7-41.7-177.6-113.4-238a329.9 329.9 0 0 0-86.1-51.2c-1 0-3.1 6-2.4 7 .3.4 9.2 3.6 10.8 4.4 104.9 49.6 174.4 142.6 182.6 260 .4 5.5.5 10.8.7 16.3 0 1.2.9 2.5.8 3.5 0 .4-1.7 1.2-1.8 1.2h-13.9c-.6 0-.6-9.9-1.4-11-4.1-147.2-129.2-272.3-275.7-279.3a75 75 0 0 0-9.6 0c-.3.2-.3 6.8 0 7 .2.3 4.8 0 6 0 87.4 7 158.8 42.5 213 111.5 90.7 115.2 76 288.1-33.3 385.6a289 289 0 0 1-169 74.3c-1 .1-5.2-.2-5.3 0-.3.3-.3 6.9 0 7.1 1.3 1.4 33.2-3.6 37.8-4.4 45-8.6 86-28 122.2-55.3l24.2 33a339.6 339.6 0 0 1-65 39c-4.8 2-9.8 3.8-14.7 5.9-.7.3-2 .3-2 .3-.4.3 1.8 6.9 2.1 7.1.4.3 1.1 0 1.7 0a363.5 363.5 0 0 0 89-51.2c.6-1.1-.8-2.5-1.5-3.5-8.8-12-19.3-23-28-35.3 6-5.9 12.7-11 18.8-16.7 54.5-51.2 82.5-116.8 89.3-191 .4-4.2 0-9.4.7-13.5 0-.7.5-1.7 1-1.8h22.1Zm-322 280.3c-26.6.7-53.4-4-78.7-11.9a292.2 292.2 0 0 1-166.8-134.9 307 307 0 0 1-34.9-117.4c-.7-2.1-5.7-.8-7.7-1.2 1.1 6.5 1.4 13 2.2 19.5a295.1 295.1 0 0 0 275 253.8c1.6-.8 18.8.9 18.8 0v-22.8c0-.5 8.5-1.3 9.6-1.4 4.3-.5 9.3-.3 13.5-.7 72.9-7.6 135.9-41 182.5-97.2a270.5 270.5 0 0 0 48.4-253.3c-.3-.8.6-1.2-1-1-1.6.1-6 1.5-6.1 3.1 2 7.7 4.4 15.3 6.2 23a263.6 263.6 0 0 1-64.2 236.4c-1.4 1.6-8 8.4-9.3 8.6-2.7.2-7.7-6.3-9.2-8.6-.4-.8-1.8-2.8-1.5-3.6 23-23.9 43-51.2 55.2-82.2v-1.7l-6.4-1.8a246.7 246.7 0 0 1-59 85.4c-.9.8-2.1 1-2.2 1-.4.7 2.2 3.8 2.9 4.7 2.5 3.2 10.7 10.5 11.3 13.7.3 1.7-3.5 5-5 6.2a258.4 258.4 0 0 1-98 51.4 262.1 262.1 0 0 1-307.6-141.6c-1.3-2.8-4.7-12.7-6-14-.7-1-6.9 1-7.4 1.4-.7.7 6.8 16.4 7.7 18.3A274 274 0 0 0 593 870c.6 0 1.6.5 1.8 1 .9 3.6-.7 10.7 0 14.6Zm102.5-250.8a103.7 103.7 0 0 0-88.6-136.2C536 492 480 563.9 503 633.4c12.4 37.6 48.8 67.7 89 69.4v-28.5a74.6 74.6 0 0 1-51.9-30.4c-31.3-45.8-5.4-108.8 50.1-116a73.8 73.8 0 0 1 80.2 95 72.1 72.1 0 0 1-62.8 51.4v28.5a101 101 0 0 0 89.6-68Zm-17.1-23.5c8.9-63.5-61.2-112.4-117.8-81.6-64.9 35.3-53.3 126.6 17 149 1 .4 5.5 1 5.5 1.3v15c-41.3-4.8-74.5-41-79.6-81.6a95.4 95.4 0 0 1 120.3-104.7c91.7 24.2 94 158.5 1.4 184-1.8.4-13 3.8-13 1.2v-13.2a81.7 81.7 0 0 0 66.2-69.4ZM524.5 345c.6 1.7 2.8 6.8 4.5 7 44-11.5 90.8-12.8 135-1.3a264 264 0 0 1 148.4 104.1c11.5 16.7 20 34.5 28.2 53 .3.5.7.6 1.4.6 2 0 12.5-3.5 13.1-5.4 1-3.4-13.4-32.2-16.2-37-56.6-100.6-168.4-153.5-282.8-136.8a261.4 261.4 0 0 0-33.2 7.8 31 31 0 0 0 1.6 8Zm83 227.2 2.2.6c37.8 17.4 17.4 67.4-19.4 56.4-21.7-6.6-27-37.1-9.4-51 2-1.6 9.7-6.9 11.9-6.9a79 79 0 0 0-.1-9.1v-19c-2-2-19 5.4-21.9 7-41.2 23.3-37.6 84.8 5 104.2 47 21.4 95.6-23.6 79.5-72.4a59.4 59.4 0 0 0-47.7-39.4v29.6Zm-21.4-5.9c-.2.6-8.6 6.2-10.2 7.6-29.4 26-2.7 72.3 34.4 62 27.3-7.4 36.1-44.6 13.3-62.7-4.3-3.4-9.9-3.6-9.7-10.4 0-1.5.7-2.8.8-4.2.2-2.7-1.3-6.9 2.2-6.4 9.2 1.2 22.9 13.7 27.5 21.5 21.6 36-6 81.5-47.9 79.2-45-2.5-65.3-61.4-31-90.8 2.8-2.3 17.1-11.4 20-9.5.9.7 1.1 12.2.6 13.7Zm-102-232.3c-.8.3-1.3-.4-1 1.1l17 41a249.7 249.7 0 0 0-114.6 104 248.6 248.6 0 0 0-1.4 236.6c1.5 2.9 13.2 22.6 14.7 23 1.2.2 4.2-3.8 5.2-4.7a240 240 0 0 1-14.5-246.5c26.7-50.8 71.2-90 124.9-110.3l-20.7-46.9c-1-.7-8 2.1-9.6 2.7Zm140.6 21.4-5.4 55.6c6.3 1.5 13.1 2.4 19.6 3.8a190.1 190.1 0 0 1 136 112.8c3.3-.7 6.7-1.8 10-3 9-3.3 12-8.7 16.4 3.2a219 219 0 0 1 11.9 56.4c0 1.4-.3 7.9 0 8.2.3.3 6.5-.2 7.8 0a223.8 223.8 0 0 0-47.3-128.7c-.8 0-5.7 3.5-5.3 5.1.3 1 6.5 8.4 7.7 10.2 5 7.7 12.3 19 16.1 27.3 2.3 4.8 3 6-2 8.7-2.5 1.2-8.1 3.4-10.7 2.6-1.7-.6-5.5-9.6-6.7-11.8-30.5-53.6-82.3-92.5-144.6-99.8l6.4-49.1-10-1.5ZM571 795.2A196.3 196.3 0 0 0 713.8 761a197.6 197.6 0 0 0 79.3-200c-.6-2.5-4.5-18.7-5.5-19.4-.3-.3-6.4 1.7-6.5 2.2a194 194 0 0 1-15.5 148.8 189.3 189.3 0 0 1-177.6 97c-2.4-.2-15.9-2.6-16.6-2-.4.1-2.3 7.5-.4 7.6ZM639.2 256a349 349 0 0 0-126.5 8.5c-3.5 1-24 6.8-25 8.5-1.5 2.4 3.4 12.2 4.7 15a354 354 0 0 1 58-14.2c24-3.5 48.3-3.5 72.5-2.2 10.3.6 20.7 1 31 2.8.5-2.5 3.3-14 2-15.6-.6-.6-14.6-2.5-16.7-2.8ZM576 380.5a220 220 0 0 0-196.8 210.6c.2.2 6.9.2 7.1 0 .2-.2 0-3.7 0-4.7 10.9-108.8 89.9-192.8 201-199.5 1.4-.1 7.9.2 8.2 0 .3-.3.2-7.6 0-7.9l-19.5 1.5Zm133 310.2c-1 1-6.2 6.5-7 6.3-.3 0-3.7-2.7-4.1-3.1-1-1-5.1-6.8-6-6.8-.4 0-5.3 5-5.3 5.3 0 .8 9.9 9.3 9.9 10.7 0 1.2-14.6 13-16.8 14.5a143.4 143.4 0 0 1-106.4 22c-24.6-5-48-18-67.1-34-.7 1-5.3 5-5.3 5.3 0 .7 8.7 7.6 10 8.5 71.2 53.3 176.7 32.8 219.2-46 4.7-8.8 11.8-25.6 14-35.2 1.2-5.8-2.6-4.5-7-4.4a138.8 138.8 0 0 1-28.1 56.9ZM469.9 486.5a172.7 172.7 0 0 0-22 195.6c1.6 3.1 13.9 23.5 15.6 23.5.4 0 5.3-4.1 5-5a166 166 0 0 1 9.2-212c1.4-1.6 10.3-9.6 10.3-10.3 0-.4-4.3-5.5-5.2-5.3-1 .2-11.4 11.6-13 13.5ZM912.4 623c-1.3 0-2.4-1.4-3 .5-1.3 4-1 10.3-1.7 14.7-11 78.3-41.1 136.6-98 190.8-1.6 1.5-7 4.5-6.4 7 .4 1.6 3.7 3.8 3.5 6.1 8-8.3 16.7-15.8 24.5-24.2 52.2-55.4 77.6-117.5 85-193.1.2-.7 1-1.7.8-1.8-.2-.2-3.7 0-4.7 0ZM840 652.4c14-68.3-1-144.8-44.3-200-.5-.7-3-3.4-3.5-3.5-1.5 0-2 1.9-2.8 2.7-1 1-2.4.2-1.7 2.3 22.5 30 39.2 65 46 102.2 5.2 29 5.2 61.6 0 90.6-1.8 9.5-4.7 18.6-7 28l6.4 2.5c2.7-8.2 5.2-16.4 7-24.8ZM567 459a143.5 143.5 0 0 0-111.7 134.8c.3.3 6.9.3 7.1 0 .3-.2 0-4.9 0-6 3-36.6 25-76.1 54.2-98.2 21.4-16.2 48-24.6 74.6-26.7 0-1.7 1.4-6 0-7-1.9-1.3-20.7 2.3-24.2 3Zm85 479c15.9-2.2 34-6 49.3-11 1.8-.6 6.6-1.5 6.6-3.4-3.5-9-6.4-19-10.5-27.9-3.8-8-3.4-6.3-11.6-3.8l10.6 26.8c.1 1.6-3.2 2.7-4.5 3.1-3 1.1-7 1.9-10.2 2.6-36.9 9-75.9 12.2-113.6 8.8-6.5-.6-13.1-1.8-19.6-2.9l-.7 7.9c34.4 5 69.7 4.8 104.1-.1ZM475.1 609.3c3.6 38 21.1 72.2 52.5 94.1 15 10.5 38.4 21 56.8 22.2 6.9.5 6.3-.4 6-7a116 116 0 0 1-103-83.9c-2.6-9-4-18.4-5.2-27.8-2.8 0-7.3-1.4-7.1 2.4Zm437.7-146a335.5 335.5 0 0 0-78.4-110.8c-2-2-4.7-5.5-6.7-6.8-.7-.5-.8-1-1.8-.4-.3.2-4.3 4.7-4.3 5 0 .5 3 2.2 3.6 2.8a347.4 347.4 0 0 1 45.8 51.7c17 23.6 30.9 49.5 41 76.7 1.2-.3 7.5-1 7.8-1.3.7-.6-6.2-15.2-7-16.9ZM813 332.8a366.9 366.9 0 0 0-94.7-53.4 412.7 412.7 0 0 0-40.7-12.6c-1.8-.4-8.4-1.7-9.4-.8a19 19 0 0 0-.7 7 344.3 344.3 0 0 1 142.2 66.2c0-2.4 5-4.1 3.3-6.4ZM699 732.8c-.8 0-8.7 6.1-10.5 7.3a169.5 169.5 0 0 1-113 23.9c.2 1.2-1.7 6.7-1.5 7 .3.4 7.6 1.4 9 1.5 34.1 3.4 71.1-4.6 101-21.2 6.8-3.7 12.9-8.4 19.5-12.3.5-.8-3.4-6.5-4.5-6.3ZM453.9 600.2a142.3 142.3 0 0 0 26.8 87.4c1.5 2.2 12.3 16.5 13.4 16.5.4 0 5.2-4.7 4.6-6a143.1 143.1 0 0 1-32.2-56c-2.9-10.3-4.9-22.4-5.5-33 0-1.5.3-8.6 0-8.9-.2-.2-6.8-.2-7.1 0Zm212.7-310.6c-15.8-2.9-32-6-48-6.8-1.6 0-10.6-.3-11 0-.3.3.2 6 0 7.2 30.6.9 61 6.2 90 15.6 1.9.3 3.7-6.6 3.2-7l-34.2-9ZM329.4 603.5c.6.6.7 1.3.7 2.1.9 14.3 2 28.4 4.5 42.5.6 3.5 7 34.7 8.7 34.8 2 .1 5.2-2.1 7.4-2.2a240 240 0 0 1-10.5-44.5c-1-6.5-1.9-14.2-2.3-20.6 0-2 .5-12 0-12.5-.3-.3-7.3 0-8.5.4Zm254.1-69.6a64.4 64.4 0 0 0-48.9 49.3c.4.6 4.4 2.5 4.7 2.2.2-.4 1.8-7 2.5-8.6a63.4 63.4 0 0 1 46.5-37.4c1-.2 3.5-.2 3.6-.3.3-.2.2-6.2 0-6.4-.5-.6-7 .9-8.4 1.2Zm-49.8 80.7c-1.4 2 6 17.7 7.6 20.3a74.2 74.2 0 0 0 39.6 32.3c1.4.5 9.7 2.8 10.3 2.1.2-.2.2-6.2 0-6.4-.5-.3-9.9-2-12-2.6a62.8 62.8 0 0 1-38.7-39.5c-.4-1.2-1.6-7.4-2-7.7-.5-.3-4.7 1.3-4.8 1.5Zm104.2 69.8a91.1 91.1 0 0 0 50.6-59A92.2 92.2 0 0 0 567 515.3c-2.5 1-17.7 8.2-17.8 10 0 .3 4.3 5.2 4.7 5.2.5 0 7.4-5 9-5.7C610.9 501.3 674 530 683.6 583c8 44.5-16 86.4-59.6 99.4-1.2.4-5.4.9-5.6 1-.3.3-.3 7 0 7.2.7.8 17.3-5.3 19.6-6.3Zm-57.3-1.2a78.5 78.5 0 0 1-55.5-45c-15.8-36-11-77.4 21.3-102.4.2-.8-3.4-6-4-6a91.9 91.9 0 0 0 14.1 151.7c2.8 1.6 23.7 10.2 24.7 9.2.3-.3.3-7-.6-7.5Zm-8.1-120.5a47.3 47.3 0 0 0 18 85c51.5 10.8 79.4-58.7 35-86.4-.8-.5-6.9-4-7.2-3.7-.3.3-.1 6.7 0 7 .5.5 5.2 3.2 6.3 4.1 34.6 27.3 8.6 80.9-32 72.6-37.1-7.6-45.3-52.5-14.1-74.7.8-.7 2.7-1.2 3.1-1.9.5-.7.6-6.8.4-7-.7-.8-8.4 4.2-9.5 5Z" />
</svg>