<svg xmlns="http://www.w3.org/2000/svg" xmlns:xlink="http://www.w3.org/1999/xlink" viewBox="0 0 1200 1200" width="1200" height="1200">
    <title>Rammstein logo</title>
    <path fill="#110606" stroke="#d10000" stroke-width="20" d="M10 10h1180v1180H10V10z" />
    <path fill="#d10000" d="M435 798v118h146v-32H468l-1-86h-32Zm445-182v113H728v155H611v32h149V761h153V616h-33ZM287 430v155h33V462h283v149l43 123H532l-50-142h-43v142H320V615h-33v152h185V660l37 107h183l-57-162V430H287Zm148-146v115h33v-83h119v-32H435Zm182 0v32h111v153h152v117h33V437H760V284H617Z" />
</svg>