<svg xmlns="http://www.w3.org/2000/svg" viewBox="0 0 1200 1200" width="1200" height="1200">
    <title>Sleep Token Logo</title>
    <path fill="#24362f" stroke="#a99863" stroke-miterlimit="10" stroke-width="20" d="M10 10h1180v1180H10V10z" />
    <path fill="none" stroke="#a99863" stroke-miterlimit="10" stroke-width="2" d="M119.2 1080.8V119.2h961.6v961.3l-961.6.3z" />
    <path fill="none" stroke="#a99863" stroke-miterlimit="10" stroke-width="4" d="M90.9 1109.1V90.9h1018.2v1017.9l-1018.2.3z" />
    <path fill="#24362f" d="m873 80.1 248 248v546.1l-248 248H327l-248-248v-546l248-248h546Z" />
    <path fill="#a99863" d="m749.2 834.8-14.3-13.5c-9.9-10-19.6-20.1-29.7-30-1-1-2.8-1.4-4.2-2-.3 1.4-1 2.8-1 4.2L700 899c0 1.5-.8 2.9-1.3 4.4-1.4-.8-2.9-1.4-4-2.3-4.6-4.4-9.2-8.7-13.6-13.4a11.1 11.1 0 0 1-2.8-6.9c-.2-14 0-28 0-41.9 0-18.6 0-37-.2-55.6 0-4.6.4-9 0-13.7-.3-2.9-1.3-6.4-3.2-8.5-14.3-14.6-29-28.9-43.3-43.4-8.7-8.7-17.4-17.5-25.9-26.3-4.3-4.4-5.1-4.4-9.5-.2-8 8-16.3 15.7-24.3 23.8L528.4 759a17 17 0 0 0-5.2 12.6c.2 35.6-.1 71.3-.1 107 0 4-.9 7.3-3.8 10.1L505 902.6c-.5.5-1.5.7-3 1.4-.3-2.4-.7-4.2-.7-6l.5-72.8c0-10.9-.3-21.8-.4-32.8 0-1.1-.8-2.1-1.3-3.2-1.2.5-2.6.7-3.4 1.5l-25 25.1c-5.5 5.6-11 11.2-16.7 16.7-.8.8-2.2 1-3.3 1.6-.4-1.2-1.1-2.5-1.1-3.6-.2-19.4-.2-38.8-.2-58.2l-.3-93.7c0-16.5.6-33.1.6-49.6 0-29.8-.3-59.5-.3-89.3 0-6.1-5.4-8.6-8.6-12.5-3.2-3.8-7-7.2-10.6-10.6-1.3-1.2-3-1.9-4.4-2.7-.5 1.7-1.5 3.2-1.5 4.9-.2 28.6 0 57.4 0 86l.1 98c0 4.2-1 7.5-4.3 10.4-4.6 4.3-9 9-13.7 13.4a4 4 0 0 1-3 1c-.5 0-1-1.7-1-2.7v-40c0-13.3-.2-26.7 0-40l.1-70.1-.1-30.5c0-17 0-33.9-.2-51 0-2.4-1-5.5-2.6-7.3-10.5-11-21.3-21.7-31.9-32.3-.4-.4-1-.4-2.2-1-.3 1.8-.7 3.4-.7 5v243.9l.1 142.4c0 8.6-.2 16.5-8.2 22.1-3.4 2.2-5.7 5.9-8.7 8.7-.8.8-2.2 1.2-3.3 1.8-.6-1.3-1.7-2.5-1.7-4l-.1-19c0-13.5-.2-26.7 0-40.1l.4-64.7-.2-71.4v-97.3l.3-102-.1-19c0-1.6-.6-3.2-.9-4.6l-1.5-.7c-38.3 37.3-75.4 74.6-112.6 111.8l-1.5-.6c-.5-3-1.4-5.7-1.5-8.6-.2-4.5.3-9.1.1-13.6 0-4.7 1.8-8.2 5.2-11.6 17.3-17.2 34.6-34.3 51.8-51.7l56.1-56.2 86-86.2 38.6-38.6c1.8-1.8 3.8-3.3 6.7-5.8.4 3 1 5 1 7v209.7q0 16.6 11.7 28.4c5 4.7 9.7 9.6 14.5 14.4 2.7 2.6 3.7 2.2 4.8-1.4 1.8-5.8 3.3-11.6 5.3-17.4 5.6-16 16-28.7 28.5-39.8 2.4-2 3-4 2-7L519.8 428c-.4-1.2-.1-2.7-.1-4.3 1.4.2 3 0 4.2.6 6.3 3 12.7 5.8 18.6 9.5 2.2 1.2 3.9 4.2 4.7 6.8 3.8 11 7.1 22.2 10.8 33.4.7 2 1 4.9 4.3 3.9 3-.8 2.4-3.2 2-5.6L553.8 402c-.3-2.4.5-4.9.8-7.3 2.1 1 4.3 1.7 6.3 3 3.8 2.5 7.3 5.4 11.2 7.6 4.6 2.7 6.1 6.9 6.7 11.6l6.7 48.2c.3 1.8 1.2 3.5 1.8 5.3a7 7 0 0 1 1.7-.3c.2-2.2.7-4.3.7-6.5l-.2-75.6c0-6.7-.8-13.4.3-20 1.3-7 4.2-13.8 6.7-20.6.8-2.2 2.5-4.2 4-6.2a65.6 65.6 0 0 1 10.2 42.5c-.8 11.2 0 22.5 0 33.7V466c0 1.4 1.3 3 2 4.3.7-1.5 1.8-3 2-4.4l7.6-52.7c.2-1.3.6-3 1.6-3.6 7.1-5.5 14.4-10.8 22.7-17 .2 3 .6 4.4.3 5.8l-8 54.9c-1 6.7-2 13.5-2.6 20.2-.1 1.6 1.5 3.4 2.5 5 1.1-1 2.8-2 3.4-3.4l11.6-35c.7-1.9 1.8-4.1 3.3-5 6.4-3.6 13.1-7 19.9-10.2 1-.5 2.7-.1 4.1-.1-.1 1.3.2 2.6-.2 4-6.3 19.5-12.5 39.2-18.9 58.7-1 3-.3 5.2 2.2 7.1a90.2 90.2 0 0 1 31 47c.9 3.7 2 7.4 3.1 11 .9 3 2.4 2.6 4.2.8 8.1-8.2 16.2-16.3 24.2-24.7 1.2-1.3 1.8-3.5 1.8-5.3.3-12.7.3-25.4.3-38.3l.1-73.7c0-27.8-.3-55.6-.4-83.2v-29c0-1.6.7-3.2 1.4-6.2 4.7 4.4 8.6 8 12.4 11.8l21 21.4c9.3 9.5 18.8 18.9 28.2 28.2l33.2 33 35.6 35.6 60.2 59.9 31.6 31.4c6.5 6.6 13 13 19.3 19.7 1.3 1.5 2.2 4 2.3 6 .3 7 .3 14 .2 21 0 1.4-.9 2.9-1.4 4.3-1.4-.8-3.1-1.3-4.2-2.4-20.4-20.2-40.7-40.6-61-61L863 457.6c-1.3-1.2-2.8-2-5-3.8-.2 2.7-.6 4.5-.6 6.2v179.9l.1 102.3-.1 63.7v66.5c0 1.5-.7 3-1 4.6-1.5-.8-3-1.4-4.5-2.4s-2.2-2.5-3.6-3.3c-12-7.7-13-19-12.8-32 .5-41 .1-82 .2-122.9 0-34.5.3-68.8.3-103.3 0-36.8-.1-73.5-.3-110.2V460c0-2-.4-4-.7-7-2.2 1.7-3.7 2.7-5 4-9 9-18 18.3-27.2 27.2A15 15 0 0 0 798 496c.3 28.2.1 56.4 0 84.7v142.8c0 1.6-.9 3.1-1.3 4.6-1.4-.7-3-1.2-4.2-2.2-4.6-4.2-9.5-8.1-13.4-12.9a16.2 16.2 0 0 1-3.3-9.7c-.2-14.8.4-29.6.4-44.4 0-14.6-.4-29-.4-43.6l.1-34.5-.3-64.5c0-.6-.2-1.1-.7-2.8-2.3 2-4.3 3.2-6.1 4.9-5 4.9-10.3 9.7-15 15-1.6 2-2.9 5-3 7.6-.3 20.8-.2 41.6-.2 62.4l-.1 164.4v66.6c-.3-.1-.8.2-1.4.4Zm-70.5-266c-1.4-7.1-2-14.5-4.4-21.4a77.7 77.7 0 0 0-54.7-52.4 70.5 70.5 0 0 0-44.6 2 80 80 0 0 0-34 24.7 76.2 76.2 0 0 0-17.8 53 8 8 0 0 0 2 4.8c6.3 6.6 13 12.7 19.4 19.2 6.7 6.5 13.1 13.4 19.8 20 10.8 10.8 21.7 21.6 32.4 32.5 2.8 3 5 2.5 7.6-.3 3.3-3.5 7-6.7 10.3-10 19.3-19.2 38.3-38.5 57.7-57.5 4.3-4.3 6.4-8.6 6.3-14.6ZM501.2 671h-.3v-4l.1-73.2c0-2.8-.4-6.6-2-8.4-7.3-8.1-15.2-15.6-23-23.3-2-2-3.6-1.4-3.7 1.5-.2 1.3-.2 2.4-.2 3.6l-.3 99.2v110.5c0 1.2.7 2.5 1 3.7 1.1-.4 2.4-.4 3-1 7.6-7.5 15.3-14.9 22.6-22.6 1.4-1.4 2.5-3.9 2.5-6 .4-26.6.3-53.3.3-80Zm227-111.3c-2.3 2-4.1 3.4-5.8 5-6.4 6.5-12.5 13.3-19 19.6a9.2 9.2 0 0 0-3.4 7.8c.2 8.2.2 16.3.2 24.6l.1 133.4a11 11 0 0 0 2.7 6.8c7.4 7.8 15 15.4 22.6 22.9.7.7 1.8.8 2.8 1.3.4-1.2 1.1-2.1 1.1-3.3v-17.1l-.1-54 .2-125.6-.2-17.3c-.2-1.2-.7-2.1-1.2-4.1ZM523.1 729.8l1.7.6 3.2-2.8 52-52.1c4.7-4.8 4.7-5.3.2-9.8l-51.8-51.5c-1-1-2.5-1.4-3.8-2.1-.5 1.2-1.4 2.6-1.4 3.9-.1 10.7 0 21.5 0 32.2 0 23.6-.1 47.4-.3 71 .2 3.6.2 7.1.2 10.6Zm154.9-59q.1 0 0 0v-53.6c0-1.6-.7-3.3-1-5l-5.2 2.2c-.5.3-.8.9-1.2 1.3l-36.3 36.9-14.8 14.8c-2.3 2.4-2.6 4.3 0 6.8 17.8 17.6 35.4 35.4 53 53 1.1 1 2.7 1.6 4 2.3.5-1.5 1.3-3 1.3-4.4.3-18 .2-36 .2-54.2Zm73-246.3h.1v72.8c0 1.4.9 2.6 1.3 4 1.3-.7 2.8-1 3.8-2 5.8-6 11.8-11.8 17.4-18 1.7-1.9 3-5 3-7.5.2-18 .2-35.9 0-53.9-.2-15.8-.5-31.4-1-47.2 0-1.8-1-4-2.1-5.2-5.7-6-11.6-11.8-17.5-17.7-1-1-2.3-1.7-3.5-2.4-.5 1.4-1.5 3-1.5 4.4v72.7Zm-301.7-78-2.5-1.6c-.4 1.4-.5 3-1.4 4-4.9 5.2-9.7 10.5-15 15-4.1 3.5-5.8 7.3-5.8 12.6l.4 99.5c0 1.9.9 4.1 2 5.4 6.1 6.2 12.6 12.2 18.9 18.3.7.6 1.8 1 2.6 1.3.4-1 1.4-2 1.4-3l.3-27.3-.3-50.8.1-69.1c0-1.4-.4-2.8-.7-4.2ZM798.5 454l1.5.8c2.3-2 4.6-3.7 6.6-5.8 7-7 13.7-14.1 20.7-21 2.6-2.5 2.6-4.2.1-6.7-8.1-8.1-16-16.5-24-24.6-.9-.8-2.4-1-3.5-1.7-.4 1.3-1.1 2.4-1.3 3.7a3878.9 3878.9 0 0 0-.1 55.3Zm-397.2.8 1.5-.7v-45.8c0-3.6 0-7.2-.2-10.9 0-1-.7-2-1.4-2.6-.5-.3-1.8.1-2.3.7l-25.4 25.8c-2.5 2.5-2 4.3.2 6.6 6.2 6.3 12.5 12.7 18.8 18.8 2.7 3 5.7 5.5 8.8 8.1Z" />
</svg>