<svg xmlns="http://www.w3.org/2000/svg" viewBox="0 0 1200 1200" width="1200" height="1200">
    <title>Slipknot logo</title>
    <path fill="#26080c" stroke="#99101a" stroke-width="20" d="M10 10h1180v1180H10V10z" />
    <circle cx="600" cy="601.4" r="321.5" fill="#26080c" stroke="#99101a" stroke-width="2" />
    <g fill="none" stroke="#99101a" stroke-width="4">
        <path d="M668.7 681.3h392.6L690.6 547.6M533.2 683l68.2 386.6 67.3-388.3M508.1 549.9 139.2 684.1l394-1.1M634.8 502 438.6 162l69.5 387.9" />
        <path d="m704 618.5 300.7-252.3L634.8 502M601.3 706.8 902 959.2 704 618.5M496.4 621 300.2 961l301.1-254.2M562.7 502.8 193.9 368.6 496.4 621" />
        <path d="m690.6 547.6 68.2-386.5-196.1 341.7" />
    </g>
    <circle cx="600" cy="601.4" r="118.9" fill="#26080c" stroke="#99101a" stroke-width="2" />
    <path fill="#99101a" fill-rule="evenodd" stroke="#26080c" stroke-miterlimit="10" stroke-width="8" paint-order="stroke" d="M599.9 408s-13.7-29.3-31.4-7.3c-29 36.3-13.4 87.5 12.6 112 41.3 39.3 123.8 116.1 72 253.5 13-104.6-12.7-150-50.8-189-15-15-33.1-27.4-48.7-44.5-25.9-28.4-39.7-65.5-33-114.8 0 0 9.6-27.9 4.1-41.1-5.4-13.3.2-51.5.2-51.5 2.1 31 19.9 40 19.9 40s14-22.2 36-35c10.4-79-9.6-129.4-9.6-129.4s27.5 1.8 43.8 133.4c0 0 34.3 2.9 52.6 26.8 0 0 5.2 6.3 12.7-.5l14.4-29.1s5 27-4 47.4c-9.2 17.9-5.4 17-3.1 26.3a110 110 0 0 1-.7 45.2c-4.5 15 2 20.3 2 20.3 5.6 18.8 33.8 46 33.8 46s-27.8-16.5-38.7-21.3c-11-5.2-8.3 11-8.3 11s64 89.1 45.3 213c-2-76.2-42-182.5-102.4-197.6-23.7-5.7-38.2-29.7-38.2-29.7-18-42.5 9.8-54.2 9.8-54.2s-8.7 30 6.4 38.8c14.7 8.8 62.2 17.5 63.8-49.8 1.4-67.7-59.7-51.4-59.7-51.4l-.8 32.4Zm16.4 418.2-10.9-18.6s-5.6-4.3 3.1-11.2c8.8-6.5 42-34.2 32.7-104.6-9.1-70-38.8-98-66.8-122.2-28-24.2-74.5-54.7-62.2-158.6 0 0-50.6 78.7 25.3 174.7 16.8 21.5 2.2 25.1 2.2 25.1-111.1 96.4-55.5 231-55.5 231s0-34.5 1.5-55.2c0 0 5.5-16 9.6-4.5 4.1 11.2 34.8 75.4 83.1 95.4-10.2 27-48.6 36.2-48.6 36.2s48.5 3.1 63.4-5.3c14.7-8.1 17.3 15.6 17.3 15.6s10.8 67.2 4.1 117.5c2.4-2.2 26-24.7 12.6-153.6 0 0 24.3-16.4 36.2-32.3 0 0 9-12.4 10.8 1 1.5 13-1.5 28.3-1.5 28.3s24.5-19.1 16.6-75.4l12.6-15.3s6.9-12 10.7-.4c4.2 11.2 8.5 34.6 8.5 34.6s6.4-230-98-294.3c73.1 68.8 82.6 280.7-14.1 311.6-32 10.5-64-19.1-81.9-52.6-26.7-50.2-24.2-122.7 28.3-147 70.6-32.4 80 122.5 10.7 106.6-29.7-6.9-24.2-77.8-24.2-77.8-40.8 58.7 9 133.5 43.2 128.9 0 0 8.4 20 31.2 22.4Z" />
</svg>