<svg xmlns="http://www.w3.org/2000/svg" viewBox="0 0 1200 1200" width="1200" height="1200">
    <title>Static-X logo</title>
    <path fill="#0b1900" stroke="#9fc730" stroke-width="20" d="M10 10h1180v1180H10V10z" />
    <g fill="#9fc730">
        <path d="M600 717a147 147 0 1 0 0 295 147 147 0 0 0 0-295Zm0 250c-54 0-97-46-97-103s43-103 97-103 97 46 97 103-43 103-97 103Z" />
        <path d="m485 788 40-40 194 194-41 40z" />
        <path d="m485 942 194-194 40 40-193 194zM529 738s2-24-6-36c0 0 25-37 25-61s-21-68-21-68 20-22 36-45l-15-356 59 341-7 15s-31 33-31 50 23 18 23 61c0 29-18 25-18 84l-45 15Zm-7 1-11-11v-67l-21-32s16-21 16-61-50-192-50-192 21 91 21 172c0 27-7 55-17 79 0 0 21 48 21 59 0 12-5 23-18 23s-17-10-17-22c0-15 6-16 6-34s-61-115-61-115 26 110 26 125-4 41-4 41 36 25 36 41l-1 27-10-10s-17 4-24-5c-7-8 3-21-4-29a93 93 0 0 0-31-23s17 21 17 40c0 4 0 8-2 13l38 39v23s3 8 28 11l62-92Z" />
        <path d="M626 723c0-59-18-55-18-84 0-43 23-44 23-61s-31-50-31-50l-7-16 59-340-15 356c16 23 36 45 36 45s-21 44-21 68 25 61 25 61c-8 12-6 36-6 36l-45-15Zm114 108c25-3 28-11 28-11v-23l38-39c-2-5-2-9-2-13 0-19 17-40 17-40s-18 7-31 23c-7 8 3 21-4 29-7 9-24 5-24 5l-10 10-1-27c0-15 36-41 36-41s-4-25-4-41 26-125 26-125-61 97-61 115 6 19 6 34c0 12-3 22-17 22s-18-11-18-23c0-11 21-59 21-59-10-24-17-52-17-79 0-81 21-172 21-172s-50 152-50 192 16 61 16 61l-21 32v67l-11 11 62 92Z" />
    </g>
</svg>