<svg xmlns="http://www.w3.org/2000/svg" viewBox="0 0 1200 1200" width="1200" height="1200">
    <title>System of a Down logo</title>
    <path fill="#7c1322" stroke="#e2d5b0" stroke-width="20" d="M10 10h1180v1180H10V10z" />
    <path fill="#e2d5b0" d="M372 665.2c4.6 47.7-1.3 115-38 147.1-48.1 32.2-123.3 27.6-157.5-21-2.5-11 4.6-19.1-7.4-21.7-7-12 .4-24.6-8.2-26.4-.6-3.3.8-4.4 3.7-5.4-5-4.4-10.3-19.2-3.6-22-4.1-14.5-7.9-40.1 11.5-42.3 20.8 13 78.4-16.3 66 28.9l-13.8 3.5c17.3 3.4 6.8 7.6 19.7 19.5 3.8 32.8 14.5 36.7 43.6 18.3 16.2-33.2-5.5-27.3 9.5-44.1-27.9-43.3-20.9-45.6-76.4-65.6-12.2-17-31.6-20-37.5-40.9-10.3-1.8-10.7-3.8-6.6-14.2-12.5-6-14-10.5-8.7-22.9-20.6-8.7 5-52.1-11-42.9.8-2.7-1.5-9 4-7.3 5.4-4.5-2.2-5.8-3.8-8.3-5.3-8.2-.3-15.2 8.9-11.7 1-9-6.7-8-5.7-19.1 21-26.8-3.6-45.2 13-44.5-6.4-11.6 3.6-9.6 6.8-13.2 13.8-17.4 38.4-38.3 61.4-36 53.5-16.9 116.6 37.6 107.2 92.4-.6 2-.6 4-.5 5.9 18-13.1 10.2 22.4 8.7 29.7-10 6 1.7 5.1-7 13.2-21.1-3.7-61.9 11.6-73.9-15.6.2-14.3.2-52.8-23.1-47-9.7 3.8-13.9 9.7-13.7 21-17.2 106.8 118.6 70 132.5 192.6Zm219-87.4c-.8 6-5.7 7.9-5.6 10.8 7.7 9.4-.7 26.4-1 38.3 1.9 6.2 4.9 15.3-6.2 14.4 10 5.4 10.8 28.2 1.7 32.8 5.5 7.6 3 8 0 15.5.5.5 11.4-8.2 11-1-1 19.2-26 2.1-32.8 14.6-.1 5.5 23.3 1.5 27.3-.1 5.5 2.6 2.5 14-.9 17.4-17.7-2.1-91 11-61-30.2 11.2 1.7 11.7 1.8 10.1-9.9-23.8-9.4-6.8-18.9-6.8-22.7-5.4-3.9-9-21.4-.8-26.3 3.2-16 5.5-36.8-2.7-50 6.7-15.6-4.4-17.9 5.6-30.7a52 52 0 0 1-12.3-20.6c12.3-19.2.6-41.5-1.8-63.8 4.2-21.7-18.2-29-35.6-27.5-8.7 2.8 2 17.8-12.3 19 2.3 14.6-6.2 30.2-.4 43.7-18.1 16-11.4 47-14.1 68.9-16.3 19.4 14.6 11 6.6 34.2-4.8 5-1.6 19.8.3 23.7-6.4 11.2.6 17.8-10.2 28 3.4 8 4 22.6-1.8 29.2-.7 3.8 3.9 9.7-.2 12.3-3.3 2.2-11.2-1.3-12.9 4.5 21.1-5.4 18.4 14.6 25.9 27 12.6-2.4 7.7 15.4 23.2 19.4 22.8-11.2 48.4-23.2 75.7-17.1 28.4-5.8 21.3 12 18.8 31.3-16.2 11.7 21 25.5-10.7 25.7-8.6 2.6-11.5 19.6-23.6 14.5l-15.7 24.4c-16.2 3-34.4-3.8-48.8 4-7.2-.4-15.6-11.3-23.5-9.3-8.5 19.7-37.2-15.4-43.6-24-1.7-20-5.8-32.2-15.4-51.9-1.4-4.9-7.7-33.2-5-35.1 15-6.3 55.8-1.2 20-18-20.2 20-22.8-8.3-21.4-25.8-1.3-9.3-9.5-19.5-10.5-31.7 11.9-35.4-1.6-69.8 3.8-107 6.1-21.8 1.3-40.5 6.1-59.3 2.5-2 14-9.8 4.5-15.2 2.2-11 5-21.5 7.4-31.2 10.3.7 7.3-6.4 10.8-14.6 12.5-6.5 15.3-15.2 23-28 52.4-32.2 132.4-2.8 148.3 57.4 0 21.4-1.6 39.3.4 61.6 0 9.4 11.2 22.7-.3 21 10 13.3 4.8 38.4 7.4 57.4Zm-41 100.8c-9.5 6.3 10.7 13.6 11.7 8.2.9-4.5-8.5-7.5-11.7-8.2Zm103.6 71c8.8-16.2-52.9-29-46.3-5.5-13.5-2.3-8.4 5.3-7.7 13.5-7.6 16-16 49.8 6.8 59.2 17.8-1.2 74.6 8.4 54.4-28.1 4.5-17.4 22.2-32.8-7.2-39Zm154.8 51.2c-9.6-5.7-26.2-9-37.2-10.3-5.8-3.4-.6-7.6-.4-9.4.4-11.7-18.7-13.5-13.2.3-5 5.4-.6 10.2 2.3 15 3.1 11.5-6.4 26.3 14.1 24.2 13.6-9.2 65.7 11.1 34.4-19.8Zm218-258.6c-1.3-15.7 23.2-1.5 4.5-38.2-8.4-2-7.8 24.3-8.5 26.2-6 3.9-10.9 14.5 4 12Zm10.9-41.8c-2.3-15-15.2-48-19.8-9.9 8 6.4 6 12.7 19.8 9.9Zm3.6 144.6c-7.1 11.2-6 27.5-5.5 41.8-.8 4.6-7.6 7 .1 9.1-5.9 9.6-5 18-5.6 29-2.8 11.2-10.9 18.7-7.4 27.1-10.8 6-1.4 10.5-10.7 12.2-.7.8 3.5 4 2.8 7.3-11.4 30.7-40.4 56.6-73.9 40 1.9 4 22.4 7 12.8 13.6-28.2-.6-55.9-15.8-84.7-17.3l6.3 14.5c-7-2.5-32.5-1-35.2-7.7 1.8-13.1-23.8-42-4.9-46.8 1-3.7-3-4.6-4.4-7.4-1.5-6.2-8.4-12.6.3-15 3.6-26-.8-47.8 1.6-76.5-8.4-26 16.4-34.6-3-60.4 14.4-20.3-13.5-52 9.8-65 4-6.6-.6-14 3-20.2-8.3-3.5-7.8-12.7-5.4-20.2-3.6-7.6 1.4-9.5 5.4-13.6-8.9-1.6-4-16-11-22.7l7.4-3.7c-9.8-4.5 3.9-17.9-7-24-4-12.6 10.6-15.8 10.6-17.8-5.7-2.6-7.8-19.8-6.5-24.6 2.9-11 14.4-5.9 22-7.3 16.2-9.8 37-1.6 54.7.2 20.7 4 66.6-8.6 73.8 16.2l9-1.8c-2.4 14.9 27.9 31.5-3.6 32.8.3 3.1 5 1.4 8.4 3.5 7.2 5.8 5 15 .8 18.2 10 4.2 4.4 21.2-1.9 27.3 10-1 10 14.3 1.8 18.2 17.4 6.3-3 4.5 0 12.8 11-8.1 1.8 13.7 3.4 17l-7 3c9 5.4 0 20.5.9 28.2 6.2 14.2 3.4 29.4-.9 44.5 34-10-7.3-49 28.2-63.7 10 4.4 25.5 13 10.5 22.4-2.3 12.3-.3 30.5-5.7 47.8 21.3 25.8-3.3 20.8 10.7 29Zm-71 72.8c-1.2-9.7-12.2-2-8-10.6-4.3-21.6 12.9-32.2.7-53.4 3.6-58 13-119-9.7-172.8-13.3-9.2 11.3-22.3-27.2-20.5-3.6 8.2-10.1-.9-18.4 2-5.2 1.5 2.7 10.4-6.7 10.7 12 5.6 5.4 22.6 6.1 35.1 7 15.2-5.6 22.7 1.3 26 2.1 27.4-1.7 58.8-.2 86.8 18.2 4.7 7.6 25 .1 33.9 13.7 1-4.2 15.6 9.3 31.8a601.9 601.9 0 0 0-3.7 59.7c-6 1.7-5.2 3-8.2 8.8-18.9.7 3.7 16.1 13.6 12.4-12.7-21.6 17.7-13.6 34.4-23.8-5.6-10.2 16.6-21.7 16.7-26.1Zm-169.5 55.4c-14.3 9-42.1-8.5-51-19.2-1.4-8.2 6.2-15.4-5-20.4-43.1-9.8-81.5 7-122.6-10.3-22.3-8.6-19-22.1-9.6-34.6-7.3-7 1.4-13.4 5.6-18.2 0-2.6-10-10.3 3.7-12.2 1-11.5 10.7-22.3 5.9-33.2.2-3.4 10.3-25.9 10.3-27.4-4.9-4.4-1-8.5 2-13.2-1.7-9.4 2.4-14 5.6-21.8-2.1-8.8-.7-12 5-17.6 3.7-18.7-16.8-25.7-1.9-37.3 14.8-30.1.8-25.8 4.6-42.4 6.3-2.3 2.7-5.1-1.7-7.1-2-5.7 4-8.9 6-12.6-1-7 5.2-9.6 10.1-13.5-14-1.3 1-11.6 9.1-10-10.6-4.5-7.8-11.2-4-19.4-18-34.4 62.9-24.3 79.7-20.7 6 3.7 16.5 30 4.5 31 10.4 6 11.1 11.6 9 22.7.5 11.8 6.4 25.2 1.9 36.3 0 2 6.5 1.7 5.5 5.5-10.6 2.4-10.8 17-10.7 25.3 4.6 4.4 7.6 4.5 6.1 12 8.7 4.4 4.1 19.2 1 21.8 5.6.1 4.3 3.8 4.3 9.2 7.2 11.4 9.8 25 7.5 37.3 5 32.5 22.9 72.3 18 105.5 9.8 9.2 4 27.9 9.3 41 11.1 8.3 2.2 23 2.9 35.5 15.2 14.4-5.4 30-11.1 8ZM735 645c-1.4-12 2.5-37.5-6.6-44.4-8-21.2 3.6-34.6-6.4-52.1-.4-4 3.8-6.2 3.4-8.6-1-5.9-6.6-7.8.3-17.6-10-1.5-.4-11.2-7.5-18l-5.2 1.6c5.6 7.4-3.3 14.2-3.7 19.2 2.4 32.4-11.8 75.4-7 110.6.8 16 5.8 9.8 14.8 12.4 7.8 2.3 18 11.5 17.9-3Z" />
</svg>