<svg xmlns="http://www.w3.org/2000/svg" viewBox="0 0 1200 1200" width="1200" height="1200">
    <title>The Strokes logo</title>
    <path fill="#142a53" stroke="#6eb7e2" stroke-width="20" d="M10 10h1180v1180H10V10z" />
    <path fill="#6eb7e2" d="M301 512v-1c75-256 431-303 569-74l111-27a1 1 0 0 1 1 1v34l-1 1-255 63a1 1 0 0 1-1-1l2-34 1-1 97-25a272 272 0 0 0-475 53l-47 12-2-1Zm619-3-1 18 45-11h2a9 9 0 0 1 9 9v2l-3 53a19 19 0 0 1-13 16l-60 15c-10 3-14-7-18-14v-1l-11 22-1 1-78 19h-2l-6-3-3-8-1-10 4-87c0-10 4-18 8-23l3-2 3-2 77-19 2 2-4 80-1 1-53 13v17l128-31v-17l-52 12h-1c-3 0-6-3-7-6a12 12 0 0 1-1-5l5-56a20 20 0 0 1 10-16l3-1 25-6 27-7 26-6 1 1-3 34-2 1-57 15Zm-99 39s0 1 0 0l14-3 1-2 1-14-1-1-14 4-1 1v15Zm-164-23 2-34a1 1 0 0 0-2-1l-214 53 3-51a1 1 0 0 0-2-1l-41 10-1 1-4 52-58 15-1 1-1 34a1 1 0 0 0 2 1l56-14-9 145a1 1 0 0 0 2 1l41-10h1l24-31-2 24a1 1 0 0 0 2 1l34-8 1-2 6-100 15-3 1 17a1 1 0 0 0 1 1l36-9c2 0 2-7 2-8 0-17 6-49-24-41l-65 16-1 1-6 101a381 381 0 0 0-22 6l7-112 216-53 1-2Zm340 116h-1l-178 44-75-89 39-87c1-1 0-2-1-2l-48 12-1 1-23 50 9-145a1 1 0 0 0-1-2l-42 10-1 2-14 234a1 1 0 0 0 1 1l42-10 1-2 3-44 98 110h1l35-8 132-33 1-1 23-39v-2Zm-107 76-52 13h-1a271 271 0 0 1-397 85l351-87v-2l-24-28h-2L277 819v2l40 24h1l70-17a316 316 0 0 0 503-110l-1-1ZM648 452l-36 9v9l48-12h1v2l-10 22-1 1-55 13h-1c-2 0-3 0-4-2l-2-4-1-5-8 15-1 1-25 6h-1l-1-1v-54l-1-2-3-1-2 1-4 59-1 1-24 6h-1l-1-1 8-116 1-2 24-6 2 2-2 32 21-5 3-1a9 9 0 0 1 8 7l1 3-1 46 8-1 2-45c1-6 3-11 5-14l2-2 2-1 53-13-2 51-1 2Zm-26-23-8 2v9l8-2v-9Zm406 161-2-1-225 56a1 1 0 0 0 0 2l23 28h2l178-44h1l23-40v-1ZM759 692v-2l-24-28h-1L225 788a1 1 0 0 0 0 2l39 24h2l492-122h1ZM656 537v1c0 25-2 51-4 76a2565 2565 0 0 0-5 55c-2 3-5 6-11 7l-50 13-13 1-10-3c-4-2-6-4-7-7v-3l7-96a27 27 0 0 1 2-9c4-8 11-16 19-18v-1l23-5a2031 2031 0 0 0 49-11Zm-41 48-15 4-3 63 15-4 3-63ZM359 739c8-7 13-16 15-29l5-89c0-4-1-8-3-11s-6-6-12-4l-89 22 5-54 107-27 1-1 3-42a1 1 0 0 0-2-1l-128 32a28 28 0 0 0-11 5c-8 6-15 17-15 27l-6 88c-1 15 7 20 17 21 7 0 17-2 25-4l4-2 59-14-4 52-168 42a1 1 0 0 0 0 3l48 28 1 1 118-30c12-3 22-7 30-13Zm101-211c0 1 1 2 2 1l26-6 1-1 6-91 19-5 1-1v-24l-2-1-69 17-1 1v24l2 1 21-5-6 90Z" />
</svg>