<svg xmlns="http://www.w3.org/2000/svg" viewBox="0 0 1200 1200" width="1200" height="1200">
    <title>Tool logo</title>
    <path fill="#051e32" stroke="#ba8831" stroke-width="20" d="M10 10h1180v1180H10V10z" />
    <g fill="#ba8831">
        <path d="M666.8 545.1c-31.1 0-56.4 25.2-56.4 56.2a56.3 56.3 0 0 0 112.9 0c0-31-25.3-56.2-56.5-56.2Zm0 107.4c-25.1 0-44.3-22.9-44.3-51.2s19.2-51.3 44.3-51.3 42 23 42 51.3-16.8 51.2-42 51.2Z" />
        <path d="M663.8 546.8h5.6V655h-5.6z" />
        <path d="M665.7 594.8h286.9c18.2 0 36.5.7 54.7 2.1l37.8 3-37.8 2.9a710.3 710.3 0 0 1-54.7 2.1h-287v-10Z" />
        <path d="M666.8 657.5c52.8 0 89.3-18.7 105.5-80.1v79.2h131.3v-9.9H777.9v-101h-5.3C765 615.3 734 642.2 695.1 650l-28.3 7.6ZM903.6 656.6c30.8 0 54-19.5 54-51.7h-9.8c0 28.3-22 41.8-44.2 41.8v9.9ZM535.2 545.1c-31.2 0-56.4 25.2-56.4 56.2a56.3 56.3 0 0 0 112.8 0c0-31-25.2-56.2-56.4-56.2Zm0 107.4c-25.2 0-42-22.9-42-51.2s16.8-51.3 42-51.3 44.4 23 44.4 51.3-19.2 51.2-44.4 51.2Z" />
        <path d="M538.3 655h-5.6V546.8h5.6z" />
        <path d="M536.4 604.9h-287c-18.2 0-36.4-.7-54.7-2.1l-37.7-3 37.7-2.9c18.3-1.4 36.5-2 54.8-2h286.9v10ZM298.5 543.2h165.3v9.9H298.5z" />
        <path d="M424.2 653.6h5.5v-76.2c16.2 61.4 52.8 80 105.5 80L507 650c-38.7-7.8-69.8-34.7-77.5-104.1h-5.2v107.8ZM298.5 543.2c-30.9 0-54.1 19.5-54.1 51.6h9.8c0-28.2 22-41.8 44.3-41.8v-9.8Z" />
    </g>
</svg>