<svg xmlns="http://www.w3.org/2000/svg" viewBox="0 0 1200 1200" width="1200" height="1200">
    <title>Bad Omens logo</title>
    <path fill="#242424" stroke="#eb1811" stroke-width="20" d="M1190 10v1180H10V10z" />
    <g fill="#eb1811">
        <path d="M808.8 602.3c52 21 111.7 8.8 151.2-31l23.3-23.3-23.3-23.2a139.6 139.6 0 0 0-197.4-.4l-.3.4L739 548l23.3 23.3c13.2 13.4 29 24 46.5 31m-31-62.8a116.3 116.3 0 0 1 83-34.9c31.7-.4 62.3 12.2 84.5 35l8.5 8.4-8.5 9.4a116.3 116.3 0 0 1-84.5 34.9c-31.5.1-61.8-12.5-83.8-35l-8.5-9.3 9.3-8.5ZM942.2 656a69.8 69.8 0 0 0-76 15.5l-7 7-7.7-7.8a69.8 69.8 0 0 0-97.8 0L738.2 686l15.5 14.7a69.8 69.8 0 0 0 98.5 0l7-7.7 7.8 7.7a69.8 69.8 0 0 0 97.7 0l15.5-14.7-15.5-15.5a69.8 69.8 0 0 0-23.3-14.7h.8ZM837.5 686a48.9 48.9 0 0 1-69.8 0 48.9 48.9 0 0 1 69.8 0m113.2 0a48.9 48.9 0 0 1-69.8 0 48.9 48.9 0 0 1 69.8 0m-90-104.7a33.4 33.4 0 1 0 10.2-66 33.4 33.4 0 0 0-10.1 66M709.5 552.4a116.3 116.3 0 0 0-63.6-63.6 119.6 119.6 0 1 0 63.6 63.6m-149 138a100.8 100.8 0 0 1-52.7-52.7 100.8 100.8 0 0 1 0-77.6c5-11.5 12.1-22 21-31 9.3-9.3 7.7-7.7 12.4-10.8v.7a62 62 0 0 0 0 50.4 62 62 0 0 0 59.7 39.6 44.2 44.2 0 0 1 31 76 46.5 46.5 0 0 1-31 13.2h-1.5c-14 0-27-2.6-38.8-7.8M690 637.7a100.8 100.8 0 0 1-28.7 38 62 62 0 0 0-.8-47.3 62 62 0 0 0-59.7-39.6 44.2 44.2 0 0 1-31-76 46.5 46.5 0 0 1 31-13.2c25.7.8 50.1 11.4 68.3 29.5 28 28.8 36.2 71.5 21 108.6m-89.3-74.5a15.9 15.9 0 1 0 0-31.8 15.9 15.9 0 0 0 0 31.8m0 103.2a15.9 15.9 0 1 0 0-31.8 15.9 15.9 0 0 0 0 31.8M462 612.6v-21.8h-41.9a77.6 77.6 0 0 0-23.3-51.2 77.6 77.6 0 0 0-46.5-23.2v-36.5h-21v38c-17.6 2-34 10-46.5 22.5a77.6 77.6 0 0 0-23.2 51.2h-42v21h111.8v85.3h-73v21H424v-21h-73.7v-85.3H462ZM363.5 542a62 62 0 0 1 35.7 49.6h-48.9v-54.3l13.2 4.7Zm-83.8 49.6a59 59 0 0 1 48.9-54.3v54.3h-48.9Z" />
    </g>
</svg>