<svg xmlns="http://www.w3.org/2000/svg" viewBox="0 0 1200 1200" width="1200" height="1200">
    <title>Deftones’s White Pony album logo</title>
    <path fill="#a0a2a6" stroke="#f9faf5" stroke-width="20" d="M1190 10v1180H10V10z" />
    <path fill="#fff" d="M805.8 566a12.6 12.6 0 0 1-2.7-5.6l11.6-10.7c-5.3 1.3-8.5 5.1-14.3 6.1-18.4 3.2-48.4-7.9-62.4-20-8.3-7-13.9-16.8-21.2-24.5-23.2-24.4-58.7-53-94.7-45.7-38.6 7.8-73.6 53.3-107.5 9.8-4.7-6-13.4-19-10.3-26.4 2-4.7 6.3-5.1 8.6-8.6-9.5-2.8-20.7-8-19.6-19.6l11.4-1.6c-20 1.3-28.2-22.5-49-19.6a35.7 35.7 0 0 0-10.5-32.6c-4.5 5.2 1.5 14.9-2.8 19.2-4 3.8-15-.6-18.4 6.9-5.8-7.4-9.4-17.2-20.4-18-1.9 9.3 7.4 21.4 6.5 28.4-.9 6.8-9.7 17.4-11 23.4-1.5 6.6 1.8 15.6 1 24a110 110 0 0 1-5.5 22c-4.3 12-13.5 20.8-7 34.7 12.4 26.4 30 0 40.4-12.6 3.5-4.3 6.4-8.8 9.5-13.3 1-1.5-.3-3 3.6-2.2 1.9 31 23.1 67.5 14.2 98.3-1.5 5.3-6.3 10.8-7.3 15.5-3.2 15.6 9.6 29.6 13.5 44.5 3.4 12.8 3.6 26.5 7.8 39.5 6.9 21.1 9.3 22.1 12.6 46 4.6 32.8 8.4 28.4 25.8 52.6 2.2 3 12.1 15.8 12.6 16.8 1.8 3.8.1 10.2 2.3 15.6 1.4 3.8 12.3 23.4 14.8 26 1.7 1.8 2.9 4 5.8 4.2 15.1-3.5 11.4-24.8 5.7-35.3-3.2-2.2-6.7 4.4-11.5 1.8-2.6-1.3-7.6-12.8-6.6-13.9a29.6 29.6 0 0 0 16.5 1c3-1 2.7-3.6 4.3-4.2 4.6-1.5 13.6.3 14.9-7.1-2.3-5-9.6-12.6-15.3-12.5-5.8 0-6.2 9.2-8.4 9.8-2 .5-10.7 1.6-12.8 1.6-14.3.3-10.5-24.3-12.5-33.1-.9-3.7-4.7-5.6-4.7-10.1-.1-4.1 15.2-28.7 18.3-35.6a252 252 0 0 0 16.2-48.3c7.2 2 21.7-.1 27.5 2.3 1.6.7 18.7 20.7 22.9 24.5 15.3 14 24 11.6 26 35.9a641 641 0 0 1 1.8 40.7c.1 7.7-4.4 38.7-2.5 41.6 1 1.4 4 1.9 4.9 3.3 3.9 6-6.7 30-7.3 38.2 2.5 8.2 27-4.4 29-11.7 1.8-6.3-8.3-14-3.8-21.8l4.1.2c1.8-7.9-2.3-17.8-1.3-24.9a223 223 0 0 1 14.8-40.7c2.8-5.7 13.2-19.8 14-23.7 1.3-6.6-3.7-15.8-4.5-22.6-1.8-16.2 3.3-37 4.7-53.7.5-5.7-1-12.7 0-17.9.7-3.2 12.4-16.8 15-24.2 1.7-4.8 3.2-23.4 8.6-22.2 7.2 1.6 5.3 14.7 7 20.6 4.8 15.6 34.4 33 49.8 29.5 4.4-1 6.4-5 9.8-6.6 6.2-2.7 28.8-3.6 25.5-14.8-1.1-3.5-9.9-5-7.9-11.5.7-2.4 11-4.9 14.7-8.3 5.8-5.5 3.9-14.5 13-12.3 1-4.8-4.3-3.3-7.3-6.6ZM511.3 692.3a74.8 74.8 0 0 1-5.7 17.1c-4.7-2.8-10.6-15.7-10.6-20.3v-23.7c5.2-1.2 12-4 16.3.8-.7 8.4 1 18 0 26.1Zm145.2 0c-.7 10.5-1.9 14.6-1.7 26.1.2 14.2-8.2 39.5-13.9 53-1.2 3-3.4 10.9-7.3 9.8-2.1-2.6 2.2-59.5 3.5-67.5.6-3.7 1.3-8.7 2.5-12.1 1.8-5 7.4-10.3 7-15.7-.5-9.5-35.2-31.9-35.5-49.4 0-5.2 23.6-17.3 27.4-23.3.8 8.5-1.1 18.7 0 27 2.5 18.4 19.1 34 18 52.2Z" />
</svg>