<svg xmlns="http://www.w3.org/2000/svg" viewBox="0 0 1200 1200" width="1200" height="1200">
    <title>Tycho logo</title>
    <path fill="#0086c5" stroke="#f5ebe1" stroke-width="20" d="M1190 10v1180H10V10z" />
    <path fill="#f5ebe1" d="M867 661.5a21.4 21.4 0 1 1 .3 0h-.2Zm-88.9-80.3a21.4 21.4 0 1 1 .2 0h-.2Zm0 37.6a21.4 21.4 0 1 1-.2 0h.2Zm-89 42.7a21.4 21.4 0 1 1 .2 0h-.3Zm-89 0a21.4 21.4 0 1 1 .1 0h-.3.1Zm0-80.3a21.4 21.4 0 1 1 .1 0h-.3.1Zm-89.1 0a21.4 21.4 0 1 1 .2 0h-.3Zm-89.1 0a21.4 21.4 0 1 1 .3 0h-.4.1Zm0 37.6a21.4 21.4 0 1 1-.2 0h.2Zm-89-37.6a21.4 21.4 0 1 1 .3 0h-.4.1Zm0 37.6a21.4 21.4 0 1 1-.2 0h.2Z" />
    <path fill="none" stroke="#f5ebe1" stroke-width="3" d="m10 1190 590-348.8 590 348.8H10z" />
    <circle cx="600.1" cy="291.3" r="93.9" fill="none" stroke="#f27352" stroke-width="3" />
</svg>